<svg width="286" height="146" viewBox="0 0 286 146" fill="none" xmlns="http://www.w3.org/2000/svg">
<path d="M1.464 25V1.16H10.136C11.736 1.16 13.144 1.45867 14.36 2.056C15.576 2.632 16.5253 3.48533 17.208 4.616C17.912 5.72533 18.264 7.05867 18.264 8.616C18.264 10.2587 17.848 11.6667 17.016 12.84C16.2053 14.0133 15.1067 14.8667 13.72 15.4L19.224 25H14.936L9.08 14.6L11.544 16.04H5.24V25H1.464ZM5.24 12.68H10.2C11.0747 12.68 11.832 12.5093 12.472 12.168C13.112 11.8267 13.6027 11.3573 13.944 10.76C14.3067 10.1413 14.488 9.416 14.488 8.584C14.488 7.752 14.3067 7.03733 13.944 6.44C13.6027 5.82133 13.112 5.352 12.472 5.032C11.832 4.69067 11.0747 4.52 10.2 4.52H5.24V12.68ZM29.2088 25.384C27.4808 25.384 25.9448 24.9893 24.6008 24.2C23.2781 23.3893 22.2434 22.3013 21.4968 20.936C20.7501 19.5493 20.3768 18.0027 20.3768 16.296C20.3768 14.5467 20.7501 13 21.4968 11.656C22.2648 10.312 23.2888 9.256 24.5688 8.488C25.8488 7.69867 27.2994 7.304 28.9208 7.304C30.2221 7.304 31.3848 7.528 32.4088 7.976C33.4328 8.424 34.2968 9.04267 35.0008 9.832C35.7048 10.6 36.2381 11.4853 36.6007 12.488C36.9848 13.4907 37.1768 14.5573 37.1768 15.688C37.1768 15.9653 37.1661 16.2533 37.1448 16.552C37.1234 16.8507 37.0808 17.128 37.0168 17.384H23.2248V14.504H34.9688L33.2408 15.816C33.4541 14.7707 33.3794 13.8427 33.0168 13.032C32.6754 12.2 32.1421 11.5493 31.4168 11.08C30.7128 10.5893 29.8808 10.344 28.9208 10.344C27.9608 10.344 27.1074 10.5893 26.3608 11.08C25.6141 11.5493 25.0381 12.232 24.6328 13.128C24.2274 14.0027 24.0674 15.0693 24.1528 16.328C24.0461 17.5013 24.2061 18.5253 24.6328 19.4C25.0808 20.2747 25.6994 20.9573 26.4888 21.448C27.2994 21.9387 28.2168 22.184 29.2408 22.184C30.2861 22.184 31.1714 21.9493 31.8968 21.48C32.6434 21.0107 33.2301 20.4027 33.6568 19.656L36.6007 21.096C36.2594 21.9067 35.7261 22.6427 35.0008 23.304C34.2968 23.944 33.4434 24.456 32.4408 24.84C31.4594 25.2027 30.3821 25.384 29.2088 25.384ZM48.9298 25.384C47.2018 25.384 45.6658 24.9893 44.3218 24.2C42.9991 23.3893 41.9431 22.3013 41.1538 20.936C40.3858 19.5707 40.0018 18.024 40.0018 16.296C40.0018 14.5893 40.3858 13.0533 41.1538 11.688C41.9218 10.3227 42.9778 9.256 44.3218 8.488C45.6658 7.69867 47.2018 7.304 48.9298 7.304C50.1031 7.304 51.2018 7.51733 52.2258 7.944C53.2498 8.34933 54.1351 8.91467 54.8818 9.64C55.6498 10.3653 56.2151 11.208 56.5778 12.168L53.4098 13.64C53.0471 12.744 52.4604 12.0293 51.6498 11.496C50.8604 10.9413 49.9538 10.664 48.9298 10.664C47.9484 10.664 47.0631 10.9093 46.2738 11.4C45.5058 11.8693 44.8978 12.5413 44.4498 13.416C44.0018 14.2693 43.7778 15.24 43.7778 16.328C43.7778 17.416 44.0018 18.3973 44.4498 19.272C44.8978 20.1253 45.5058 20.7973 46.2738 21.288C47.0631 21.7787 47.9484 22.024 48.9298 22.024C49.9751 22.024 50.8818 21.7573 51.6498 21.224C52.4391 20.6693 53.0258 19.9333 53.4098 19.016L56.5778 20.52C56.2364 21.4373 55.6818 22.2693 54.9138 23.016C54.1671 23.7413 53.2818 24.3173 52.2578 24.744C51.2338 25.1707 50.1244 25.384 48.9298 25.384ZM68.24 25.384C66.512 25.384 64.976 24.9893 63.632 24.2C62.3093 23.3893 61.2747 22.3013 60.528 20.936C59.7813 19.5493 59.408 18.0027 59.408 16.296C59.408 14.5467 59.7813 13 60.528 11.656C61.296 10.312 62.32 9.256 63.6 8.488C64.88 7.69867 66.3307 7.304 67.952 7.304C69.2533 7.304 70.416 7.528 71.44 7.976C72.464 8.424 73.328 9.04267 74.032 9.832C74.736 10.6 75.2693 11.4853 75.632 12.488C76.016 13.4907 76.208 14.5573 76.208 15.688C76.208 15.9653 76.1973 16.2533 76.176 16.552C76.1547 16.8507 76.112 17.128 76.048 17.384H62.256V14.504H74L72.272 15.816C72.4853 14.7707 72.4107 13.8427 72.048 13.032C71.7067 12.2 71.1733 11.5493 70.448 11.08C69.744 10.5893 68.912 10.344 67.952 10.344C66.992 10.344 66.1387 10.5893 65.392 11.08C64.6453 11.5493 64.0693 12.232 63.664 13.128C63.2587 14.0027 63.0987 15.0693 63.184 16.328C63.0773 17.5013 63.2373 18.5253 63.664 19.4C64.112 20.2747 64.7307 20.9573 65.52 21.448C66.3307 21.9387 67.248 22.184 68.272 22.184C69.3173 22.184 70.2027 21.9493 70.928 21.48C71.6747 21.0107 72.2613 20.4027 72.688 19.656L75.632 21.096C75.2907 21.9067 74.7573 22.6427 74.032 23.304C73.328 23.944 72.4747 24.456 71.472 24.84C70.4907 25.2027 69.4133 25.384 68.24 25.384ZM88.985 25.384C87.641 25.384 86.4143 25.1067 85.305 24.552C84.217 23.9973 83.3743 23.1973 82.777 22.152L83.193 21.48V25H79.737V0.775999H83.353V11.272L82.777 10.44C83.417 9.45867 84.2703 8.69067 85.337 8.136C86.4037 7.58133 87.6197 7.304 88.985 7.304C90.6277 7.304 92.0997 7.69867 93.401 8.488C94.7237 9.27733 95.7583 10.3547 96.505 11.72C97.273 13.0853 97.657 14.6213 97.657 16.328C97.657 18.0347 97.273 19.5707 96.505 20.936C95.7583 22.3013 94.7343 23.3893 93.433 24.2C92.1317 24.9893 90.649 25.384 88.985 25.384ZM88.633 22.024C89.657 22.024 90.5637 21.7787 91.353 21.288C92.1423 20.7973 92.761 20.1253 93.209 19.272C93.6783 18.3973 93.913 17.416 93.913 16.328C93.913 15.24 93.6783 14.2693 93.209 13.416C92.761 12.5627 92.1423 11.8907 91.353 11.4C90.5637 10.9093 89.657 10.664 88.633 10.664C87.6303 10.664 86.7237 10.9093 85.913 11.4C85.1237 11.8907 84.4943 12.5627 84.025 13.416C83.577 14.2693 83.353 15.24 83.353 16.328C83.353 17.416 83.577 18.3973 84.025 19.272C84.4943 20.1253 85.1237 20.7973 85.913 21.288C86.7237 21.7787 87.6303 22.024 88.633 22.024ZM106.359 25.384C105.185 25.384 104.151 25.1813 103.255 24.776C102.38 24.3493 101.697 23.7733 101.207 23.048C100.716 22.3013 100.471 21.4267 100.471 20.424C100.471 19.4853 100.673 18.6427 101.079 17.896C101.505 17.1493 102.156 16.52 103.031 16.008C103.905 15.496 105.004 15.1333 106.327 14.92L112.343 13.928V16.776L107.031 17.704C106.071 17.8747 105.367 18.184 104.919 18.632C104.471 19.0587 104.247 19.6133 104.247 20.296C104.247 20.9573 104.492 21.5013 104.983 21.928C105.495 22.3333 106.145 22.536 106.935 22.536C107.916 22.536 108.769 22.3227 109.495 21.896C110.241 21.4693 110.817 20.904 111.223 20.2C111.628 19.4747 111.831 18.6747 111.831 17.8V13.352C111.831 12.4987 111.511 11.8053 110.871 11.272C110.252 10.7173 109.42 10.44 108.375 10.44C107.415 10.44 106.572 10.696 105.847 11.208C105.143 11.6987 104.62 12.3387 104.279 13.128L101.271 11.624C101.591 10.7707 102.113 10.024 102.839 9.384C103.564 8.72267 104.407 8.21067 105.367 7.848C106.348 7.48533 107.383 7.304 108.47 7.304C109.836 7.304 111.041 7.56 112.087 8.072C113.153 8.584 113.975 9.29867 114.551 10.216C115.148 11.112 115.447 12.1573 115.447 13.352V25H111.991V21.864L112.727 21.96C112.321 22.664 111.799 23.272 111.159 23.784C110.54 24.296 109.825 24.6907 109.015 24.968C108.225 25.2453 107.34 25.384 106.359 25.384ZM133.62 25.384C131.956 25.384 130.431 24.9893 129.044 24.2C127.679 23.4107 126.591 22.3333 125.78 20.968C124.97 19.6027 124.564 18.056 124.564 16.328C124.564 14.5787 124.97 13.032 125.78 11.688C126.591 10.3227 127.679 9.256 129.044 8.488C130.41 7.69867 131.935 7.304 133.62 7.304C135.327 7.304 136.852 7.69867 138.196 8.488C139.562 9.256 140.639 10.3227 141.428 11.688C142.239 13.032 142.644 14.5787 142.644 16.328C142.644 18.0773 142.239 19.6347 141.428 21C140.618 22.3653 139.53 23.4427 138.164 24.232C136.799 25 135.284 25.384 133.62 25.384ZM133.62 22.024C134.644 22.024 135.551 21.7787 136.34 21.288C137.13 20.7973 137.748 20.1253 138.196 19.272C138.666 18.3973 138.9 17.416 138.9 16.328C138.9 15.24 138.666 14.2693 138.196 13.416C137.748 12.5627 137.13 11.8907 136.34 11.4C135.551 10.9093 134.644 10.664 133.62 10.664C132.618 10.664 131.711 10.9093 130.9 11.4C130.111 11.8907 129.482 12.5627 129.012 13.416C128.564 14.2693 128.34 15.24 128.34 16.328C128.34 17.416 128.564 18.3973 129.012 19.272C129.482 20.1253 130.111 20.7973 130.9 21.288C131.711 21.7787 132.618 22.024 133.62 22.024ZM152.575 25.384C150.804 25.384 149.247 24.9467 147.903 24.072C146.58 23.1973 145.652 22.024 145.118 20.552L147.903 19.24C148.372 20.2213 149.012 21 149.823 21.576C150.655 22.152 151.572 22.44 152.575 22.44C153.428 22.44 154.121 22.248 154.655 21.864C155.188 21.48 155.455 20.9573 155.455 20.296C155.455 19.8693 155.337 19.528 155.103 19.272C154.868 18.9947 154.569 18.7707 154.207 18.6C153.865 18.4293 153.513 18.3013 153.151 18.216L150.431 17.448C148.937 17.0213 147.817 16.3813 147.071 15.528C146.345 14.6533 145.983 13.64 145.983 12.488C145.983 11.4427 146.249 10.536 146.783 9.768C147.316 8.97867 148.052 8.37067 148.991 7.944C149.929 7.51733 150.985 7.304 152.159 7.304C153.737 7.304 155.145 7.69867 156.383 8.488C157.62 9.256 158.495 10.3333 159.007 11.72L156.223 13.032C155.881 12.2 155.337 11.5387 154.591 11.048C153.865 10.5573 153.044 10.312 152.127 10.312C151.337 10.312 150.708 10.504 150.239 10.888C149.769 11.2507 149.535 11.7307 149.535 12.328C149.535 12.7333 149.641 13.0747 149.855 13.352C150.068 13.608 150.345 13.8213 150.687 13.992C151.028 14.1413 151.38 14.2693 151.743 14.376L154.559 15.208C155.988 15.6133 157.087 16.2533 157.855 17.128C158.623 17.9813 159.007 19.0053 159.007 20.2C159.007 21.224 158.729 22.1307 158.175 22.92C157.641 23.688 156.895 24.296 155.935 24.744C154.975 25.1707 153.855 25.384 152.575 25.384ZM168.143 25V7.688H171.599V11.08L171.183 10.632C171.61 9.544 172.293 8.72267 173.231 8.168C174.17 7.592 175.258 7.304 176.495 7.304C177.775 7.304 178.906 7.58133 179.887 8.136C180.869 8.69067 181.637 9.45867 182.191 10.44C182.746 11.4213 183.023 12.552 183.023 13.832V25H179.439V14.792C179.439 13.9173 179.279 13.1813 178.959 12.584C178.639 11.9653 178.181 11.496 177.583 11.176C177.007 10.8347 176.346 10.664 175.599 10.664C174.853 10.664 174.181 10.8347 173.583 11.176C173.007 11.496 172.559 11.9653 172.239 12.584C171.919 13.2027 171.759 13.9387 171.759 14.792V25H168.143ZM195.245 25.384C193.581 25.384 192.056 24.9893 190.669 24.2C189.304 23.4107 188.216 22.3333 187.405 20.968C186.595 19.6027 186.189 18.056 186.189 16.328C186.189 14.5787 186.595 13.032 187.405 11.688C188.216 10.3227 189.304 9.256 190.669 8.488C192.035 7.69867 193.56 7.304 195.245 7.304C196.952 7.304 198.477 7.69867 199.821 8.488C201.187 9.256 202.264 10.3227 203.053 11.688C203.864 13.032 204.269 14.5787 204.269 16.328C204.269 18.0773 203.864 19.6347 203.053 21C202.243 22.3653 201.155 23.4427 199.789 24.232C198.424 25 196.909 25.384 195.245 25.384ZM195.245 22.024C196.269 22.024 197.176 21.7787 197.965 21.288C198.755 20.7973 199.373 20.1253 199.821 19.272C200.291 18.3973 200.525 17.416 200.525 16.328C200.525 15.24 200.291 14.2693 199.821 13.416C199.373 12.5627 198.755 11.8907 197.965 11.4C197.176 10.9093 196.269 10.664 195.245 10.664C194.243 10.664 193.336 10.9093 192.525 11.4C191.736 11.8907 191.107 12.5627 190.637 13.416C190.189 14.2693 189.965 15.24 189.965 16.328C189.965 17.416 190.189 18.3973 190.637 19.272C191.107 20.1253 191.736 20.7973 192.525 21.288C193.336 21.7787 194.243 22.024 195.245 22.024ZM214.2 25.384C212.429 25.384 210.872 24.9467 209.528 24.072C208.205 23.1973 207.277 22.024 206.743 20.552L209.528 19.24C209.997 20.2213 210.637 21 211.448 21.576C212.28 22.152 213.197 22.44 214.2 22.44C215.053 22.44 215.746 22.248 216.28 21.864C216.813 21.48 217.08 20.9573 217.08 20.296C217.08 19.8693 216.962 19.528 216.728 19.272C216.493 18.9947 216.194 18.7707 215.832 18.6C215.49 18.4293 215.138 18.3013 214.776 18.216L212.056 17.448C210.562 17.0213 209.442 16.3813 208.696 15.528C207.97 14.6533 207.608 13.64 207.608 12.488C207.608 11.4427 207.874 10.536 208.408 9.768C208.941 8.97867 209.677 8.37067 210.616 7.944C211.554 7.51733 212.61 7.304 213.784 7.304C215.362 7.304 216.77 7.69867 218.008 8.488C219.245 9.256 220.12 10.3333 220.632 11.72L217.848 13.032C217.506 12.2 216.962 11.5387 216.216 11.048C215.49 10.5573 214.669 10.312 213.752 10.312C212.962 10.312 212.333 10.504 211.864 10.888C211.394 11.2507 211.16 11.7307 211.16 12.328C211.16 12.7333 211.266 13.0747 211.48 13.352C211.693 13.608 211.97 13.8213 212.312 13.992C212.653 14.1413 213.005 14.2693 213.368 14.376L216.184 15.208C217.613 15.6133 218.712 16.2533 219.48 17.128C220.248 17.9813 220.632 19.0053 220.632 20.2C220.632 21.224 220.354 22.1307 219.8 22.92C219.266 23.688 218.52 24.296 217.56 24.744C216.6 25.1707 215.48 25.384 214.2 25.384ZM230.575 25.384C228.804 25.384 227.247 24.9467 225.903 24.072C224.58 23.1973 223.652 22.024 223.118 20.552L225.903 19.24C226.372 20.2213 227.012 21 227.823 21.576C228.655 22.152 229.572 22.44 230.575 22.44C231.428 22.44 232.121 22.248 232.655 21.864C233.188 21.48 233.455 20.9573 233.455 20.296C233.455 19.8693 233.337 19.528 233.103 19.272C232.868 18.9947 232.569 18.7707 232.207 18.6C231.865 18.4293 231.513 18.3013 231.151 18.216L228.431 17.448C226.937 17.0213 225.817 16.3813 225.071 15.528C224.345 14.6533 223.983 13.64 223.983 12.488C223.983 11.4427 224.249 10.536 224.783 9.768C225.316 8.97867 226.052 8.37067 226.991 7.944C227.929 7.51733 228.985 7.304 230.159 7.304C231.737 7.304 233.145 7.69867 234.383 8.488C235.62 9.256 236.495 10.3333 237.007 11.72L234.223 13.032C233.881 12.2 233.337 11.5387 232.591 11.048C231.865 10.5573 231.044 10.312 230.127 10.312C229.337 10.312 228.708 10.504 228.239 10.888C227.769 11.2507 227.535 11.7307 227.535 12.328C227.535 12.7333 227.641 13.0747 227.855 13.352C228.068 13.608 228.345 13.8213 228.687 13.992C229.028 14.1413 229.38 14.2693 229.743 14.376L232.559 15.208C233.988 15.6133 235.087 16.2533 235.855 17.128C236.623 17.9813 237.007 19.0053 237.007 20.2C237.007 21.224 236.729 22.1307 236.175 22.92C235.641 23.688 234.895 24.296 233.935 24.744C232.975 25.1707 231.855 25.384 230.575 25.384ZM248.902 25.384C247.238 25.384 245.712 24.9893 244.326 24.2C242.96 23.4107 241.872 22.3333 241.062 20.968C240.251 19.6027 239.846 18.056 239.846 16.328C239.846 14.5787 240.251 13.032 241.062 11.688C241.872 10.3227 242.96 9.256 244.326 8.488C245.691 7.69867 247.216 7.304 248.902 7.304C250.608 7.304 252.134 7.69867 253.478 8.488C254.843 9.256 255.92 10.3227 256.71 11.688C257.52 13.032 257.926 14.5787 257.926 16.328C257.926 18.0773 257.52 19.6347 256.71 21C255.899 22.3653 254.811 23.4427 253.446 24.232C252.08 25 250.566 25.384 248.902 25.384ZM248.902 22.024C249.926 22.024 250.832 21.7787 251.622 21.288C252.411 20.7973 253.03 20.1253 253.478 19.272C253.947 18.3973 254.182 17.416 254.182 16.328C254.182 15.24 253.947 14.2693 253.478 13.416C253.03 12.5627 252.411 11.8907 251.622 11.4C250.832 10.9093 249.926 10.664 248.902 10.664C247.899 10.664 246.992 10.9093 246.182 11.4C245.392 11.8907 244.763 12.5627 244.294 13.416C243.846 14.2693 243.622 15.24 243.622 16.328C243.622 17.416 243.846 18.3973 244.294 19.272C244.763 20.1253 245.392 20.7973 246.182 21.288C246.992 21.7787 247.899 22.024 248.902 22.024ZM267.856 25.384C266.085 25.384 264.528 24.9467 263.184 24.072C261.861 23.1973 260.933 22.024 260.4 20.552L263.184 19.24C263.653 20.2213 264.293 21 265.104 21.576C265.936 22.152 266.853 22.44 267.856 22.44C268.709 22.44 269.402 22.248 269.936 21.864C270.469 21.48 270.736 20.9573 270.736 20.296C270.736 19.8693 270.618 19.528 270.384 19.272C270.149 18.9947 269.85 18.7707 269.488 18.6C269.146 18.4293 268.794 18.3013 268.432 18.216L265.712 17.448C264.218 17.0213 263.098 16.3813 262.352 15.528C261.626 14.6533 261.264 13.64 261.264 12.488C261.264 11.4427 261.53 10.536 262.064 9.768C262.597 8.97867 263.333 8.37067 264.272 7.944C265.21 7.51733 266.266 7.304 267.44 7.304C269.018 7.304 270.426 7.69867 271.664 8.488C272.901 9.256 273.776 10.3333 274.288 11.72L271.504 13.032C271.162 12.2 270.618 11.5387 269.872 11.048C269.146 10.5573 268.325 10.312 267.408 10.312C266.618 10.312 265.989 10.504 265.52 10.888C265.05 11.2507 264.816 11.7307 264.816 12.328C264.816 12.7333 264.922 13.0747 265.136 13.352C265.349 13.608 265.626 13.8213 265.968 13.992C266.309 14.1413 266.661 14.2693 267.024 14.376L269.84 15.208C271.269 15.6133 272.368 16.2533 273.136 17.128C273.904 17.9813 274.288 19.0053 274.288 20.2C274.288 21.224 274.01 22.1307 273.456 22.92C272.922 23.688 272.176 24.296 271.216 24.744C270.256 25.1707 269.136 25.384 267.856 25.384ZM6.296 65.384C5.12267 65.384 4.088 65.1813 3.192 64.776C2.31733 64.3493 1.63467 63.7733 1.144 63.048C0.653333 62.3013 0.408 61.4267 0.408 60.424C0.408 59.4853 0.610667 58.6427 1.016 57.896C1.44267 57.1493 2.09333 56.52 2.968 56.008C3.84267 55.496 4.94133 55.1333 6.264 54.92L12.28 53.928V56.776L6.968 57.704C6.008 57.8747 5.304 58.184 4.856 58.632C4.408 59.0587 4.184 59.6133 4.184 60.296C4.184 60.9573 4.42933 61.5013 4.92 61.928C5.432 62.3333 6.08267 62.536 6.872 62.536C7.85333 62.536 8.70667 62.3227 9.432 61.896C10.1787 61.4693 10.7547 60.904 11.16 60.2C11.5653 59.4747 11.768 58.6747 11.768 57.8V53.352C11.768 52.4987 11.448 51.8053 10.808 51.272C10.1893 50.7173 9.35733 50.44 8.312 50.44C7.352 50.44 6.50933 50.696 5.784 51.208C5.08 51.6987 4.55733 52.3387 4.216 53.128L1.208 51.624C1.528 50.7707 2.05067 50.024 2.776 49.384C3.50133 48.7227 4.344 48.2107 5.304 47.848C6.28533 47.4853 7.32 47.304 8.408 47.304C9.77333 47.304 10.9787 47.56 12.024 48.072C13.0907 48.584 13.912 49.2987 14.488 50.216C15.0853 51.112 15.384 52.1573 15.384 53.352V65H11.928V61.864L12.664 61.96C12.2587 62.664 11.736 63.272 11.096 63.784C10.4773 64.296 9.76267 64.6907 8.952 64.968C8.16267 65.2453 7.27733 65.384 6.296 65.384ZM19.612 65V47.688H23.068V51.176L22.748 50.664C23.132 49.5333 23.7507 48.7227 24.604 48.232C25.4573 47.72 26.4813 47.464 27.676 47.464H28.732V50.76H27.228C26.0333 50.76 25.0627 51.1333 24.316 51.88C23.5907 52.6053 23.228 53.6507 23.228 55.016V65H19.612ZM39.0063 65.192C37.1929 65.192 35.7849 64.68 34.7823 63.656C33.7796 62.632 33.2783 61.192 33.2783 59.336V50.952H30.2383V47.688H30.7183C31.5289 47.688 32.1583 47.4533 32.6063 46.984C33.0543 46.5147 33.2783 45.8747 33.2783 45.064V43.72H36.8943V47.688H40.8303V50.952H36.8943V59.176C36.8943 59.7733 36.9903 60.2853 37.1823 60.712C37.3743 61.1173 37.6836 61.4373 38.1103 61.672C38.5369 61.8853 39.0916 61.992 39.7743 61.992C39.9449 61.992 40.1369 61.9813 40.3503 61.96C40.5636 61.9387 40.7663 61.9173 40.9583 61.896V65C40.6596 65.0427 40.3289 65.0853 39.9663 65.128C39.6036 65.1707 39.2836 65.192 39.0063 65.192ZM44.487 65V47.688H48.103V65H44.487ZM44.487 45.32V41.16H48.103V45.32H44.487ZM60.6828 72.04C59.4241 72.04 58.2614 71.8373 57.1948 71.432C56.1281 71.0267 55.2108 70.4613 54.4427 69.736C53.6748 69.032 53.0988 68.2 52.7148 67.24L56.0428 65.864C56.3414 66.6747 56.8854 67.3467 57.6748 67.88C58.4854 68.4133 59.4774 68.68 60.6508 68.68C61.5681 68.68 62.3894 68.4987 63.1148 68.136C63.8401 67.7947 64.4161 67.2827 64.8428 66.6C65.2694 65.9387 65.4828 65.1387 65.4828 64.2V60.296L66.1228 61.032C65.5254 62.1413 64.6934 62.984 63.6268 63.56C62.5814 64.136 61.3974 64.424 60.0748 64.424C58.4748 64.424 57.0348 64.0507 55.7548 63.304C54.4748 62.5573 53.4614 61.5333 52.7148 60.232C51.9894 58.9307 51.6268 57.4693 51.6268 55.848C51.6268 54.2053 51.9894 52.744 52.7148 51.464C53.4614 50.184 54.4641 49.1707 55.7228 48.424C56.9814 47.6773 58.4214 47.304 60.0428 47.304C61.3654 47.304 62.5388 47.592 63.5628 48.168C64.6081 48.7227 65.4614 49.5333 66.1228 50.6L65.6428 51.496V47.688H69.0668V64.2C69.0668 65.6933 68.7041 67.0267 67.9788 68.2C67.2748 69.3947 66.2934 70.3333 65.0348 71.016C63.7761 71.6987 62.3254 72.04 60.6828 72.04ZM60.4908 61.064C61.4508 61.064 62.3041 60.84 63.0508 60.392C63.7974 59.9227 64.3841 59.304 64.8108 58.536C65.2588 57.7467 65.4828 56.8613 65.4828 55.88C65.4828 54.8987 65.2588 54.0133 64.8108 53.224C64.3628 52.4347 63.7654 51.816 63.0188 51.368C62.2721 50.8987 61.4294 50.664 60.4908 50.664C59.5094 50.664 58.6348 50.8987 57.8668 51.368C57.0988 51.816 56.4908 52.4347 56.0428 53.224C55.6161 53.992 55.4028 54.8773 55.4028 55.88C55.4028 56.84 55.6161 57.7147 56.0428 58.504C56.4908 59.2933 57.0988 59.9227 57.8668 60.392C58.6348 60.84 59.5094 61.064 60.4908 61.064ZM81.6515 65.384C79.9875 65.384 78.4622 64.9893 77.0755 64.2C75.7102 63.4107 74.6222 62.3333 73.8115 60.968C73.0008 59.6027 72.5955 58.056 72.5955 56.328C72.5955 54.5787 73.0008 53.032 73.8115 51.688C74.6222 50.3227 75.7102 49.256 77.0755 48.488C78.4408 47.6987 79.9662 47.304 81.6515 47.304C83.3582 47.304 84.8835 47.6987 86.2275 48.488C87.5928 49.256 88.6702 50.3227 89.4595 51.688C90.2702 53.032 90.6755 54.5787 90.6755 56.328C90.6755 58.0773 90.2702 59.6347 89.4595 61C88.6488 62.3653 87.5608 63.4427 86.1955 64.232C84.8302 65 83.3155 65.384 81.6515 65.384ZM81.6515 62.024C82.6755 62.024 83.5822 61.7787 84.3715 61.288C85.1608 60.7973 85.7795 60.1253 86.2275 59.272C86.6968 58.3973 86.9315 57.416 86.9315 56.328C86.9315 55.24 86.6968 54.2693 86.2275 53.416C85.7795 52.5627 85.1608 51.8907 84.3715 51.4C83.5822 50.9093 82.6755 50.664 81.6515 50.664C80.6488 50.664 79.7422 50.9093 78.9315 51.4C78.1422 51.8907 77.5128 52.5627 77.0435 53.416C76.5955 54.2693 76.3715 55.24 76.3715 56.328C76.3715 57.416 76.5955 58.3973 77.0435 59.272C77.5128 60.1253 78.1422 60.7973 78.9315 61.288C79.7422 61.7787 80.6488 62.024 81.6515 62.024ZM107.8 65.384C106.136 65.384 104.642 64.9893 103.32 64.2C102.018 63.3893 100.984 62.3013 100.216 60.936C99.4688 59.5707 99.0955 58.0347 99.0955 56.328C99.0955 54.6213 99.4795 53.0853 100.248 51.72C101.016 50.3547 102.05 49.2773 103.352 48.488C104.653 47.6987 106.125 47.304 107.768 47.304C109.154 47.304 110.381 47.5813 111.448 48.136C112.514 48.6907 113.357 49.4587 113.976 50.44L113.432 51.272V40.776H117.016V65H113.592V61.48L114.008 62.152C113.41 63.1973 112.557 63.9973 111.448 64.552C110.338 65.1067 109.122 65.384 107.8 65.384ZM108.152 62.024C109.154 62.024 110.05 61.7787 110.84 61.288C111.65 60.7973 112.28 60.1253 112.728 59.272C113.197 58.3973 113.432 57.416 113.432 56.328C113.432 55.24 113.197 54.2693 112.728 53.416C112.28 52.5627 111.65 51.8907 110.84 51.4C110.05 50.9093 109.154 50.664 108.152 50.664C107.149 50.664 106.242 50.9093 105.432 51.4C104.621 51.8907 103.992 52.5627 103.544 53.416C103.096 54.2693 102.872 55.24 102.872 56.328C102.872 57.416 103.096 58.3973 103.544 59.272C103.992 60.1253 104.61 60.7973 105.4 61.288C106.21 61.7787 107.128 62.024 108.152 62.024ZM129.365 65.384C127.637 65.384 126.101 64.9893 124.757 64.2C123.434 63.3893 122.4 62.3013 121.653 60.936C120.906 59.5493 120.533 58.0027 120.533 56.296C120.533 54.5467 120.906 53 121.653 51.656C122.421 50.312 123.445 49.256 124.725 48.488C126.005 47.6987 127.456 47.304 129.077 47.304C130.378 47.304 131.541 47.528 132.565 47.976C133.589 48.424 134.453 49.0427 135.157 49.832C135.861 50.6 136.394 51.4853 136.757 52.488C137.141 53.4907 137.333 54.5573 137.333 55.688C137.333 55.9653 137.322 56.2533 137.301 56.552C137.28 56.8507 137.237 57.128 137.173 57.384H123.381V54.504H135.125L133.397 55.816C133.61 54.7707 133.536 53.8427 133.173 53.032C132.832 52.2 132.298 51.5493 131.573 51.08C130.869 50.5893 130.037 50.344 129.077 50.344C128.117 50.344 127.264 50.5893 126.517 51.08C125.77 51.5493 125.194 52.232 124.789 53.128C124.384 54.0027 124.224 55.0693 124.309 56.328C124.202 57.5013 124.362 58.5253 124.789 59.4C125.237 60.2747 125.856 60.9573 126.645 61.448C127.456 61.9387 128.373 62.184 129.397 62.184C130.442 62.184 131.328 61.9493 132.053 61.48C132.8 61.0107 133.386 60.4027 133.813 59.656L136.757 61.096C136.416 61.9067 135.882 62.6427 135.157 63.304C134.453 63.944 133.6 64.456 132.597 64.84C131.616 65.2027 130.538 65.384 129.365 65.384ZM146.456 65V47.688H150.072V65H146.456ZM146.456 45.32V41.16H150.072V45.32H146.456ZM154.299 65V47.688H157.756V51.08L157.34 50.632C157.766 49.544 158.449 48.7227 159.388 48.168C160.326 47.592 161.414 47.304 162.652 47.304C163.932 47.304 165.062 47.5813 166.044 48.136C167.025 48.6907 167.793 49.4587 168.347 50.44C168.902 51.4213 169.18 52.552 169.18 53.832V65H165.596V54.792C165.596 53.9173 165.436 53.1813 165.116 52.584C164.796 51.9653 164.337 51.496 163.74 51.176C163.164 50.8347 162.502 50.664 161.756 50.664C161.009 50.664 160.337 50.8347 159.74 51.176C159.164 51.496 158.716 51.9653 158.396 52.584C158.076 53.2027 157.916 53.9387 157.916 54.792V65H154.299ZM180.538 65.192C178.724 65.192 177.316 64.68 176.314 63.656C175.311 62.632 174.81 61.192 174.81 59.336V50.952H171.77V47.688H172.25C173.06 47.688 173.69 47.4533 174.138 46.984C174.586 46.5147 174.81 45.8747 174.81 45.064V43.72H178.426V47.688H182.362V50.952H178.426V59.176C178.426 59.7733 178.522 60.2853 178.714 60.712C178.906 61.1173 179.215 61.4373 179.642 61.672C180.068 61.8853 180.623 61.992 181.306 61.992C181.476 61.992 181.668 61.9813 181.882 61.96C182.095 61.9387 182.298 61.9173 182.49 61.896V65C182.191 65.0427 181.86 65.0853 181.498 65.128C181.135 65.1707 180.815 65.192 180.538 65.192ZM193.834 65.384C192.106 65.384 190.57 64.9893 189.226 64.2C187.903 63.3893 186.868 62.3013 186.122 60.936C185.375 59.5493 185.002 58.0027 185.002 56.296C185.002 54.5467 185.375 53 186.122 51.656C186.89 50.312 187.914 49.256 189.194 48.488C190.474 47.6987 191.924 47.304 193.546 47.304C194.847 47.304 196.01 47.528 197.034 47.976C198.058 48.424 198.922 49.0427 199.626 49.832C200.33 50.6 200.863 51.4853 201.226 52.488C201.61 53.4907 201.802 54.5573 201.802 55.688C201.802 55.9653 201.791 56.2533 201.77 56.552C201.748 56.8507 201.706 57.128 201.642 57.384H187.85V54.504H199.594L197.866 55.816C198.079 54.7707 198.004 53.8427 197.642 53.032C197.3 52.2 196.767 51.5493 196.042 51.08C195.338 50.5893 194.506 50.344 193.546 50.344C192.586 50.344 191.732 50.5893 190.986 51.08C190.239 51.5493 189.663 52.232 189.258 53.128C188.852 54.0027 188.692 55.0693 188.778 56.328C188.671 57.5013 188.831 58.5253 189.258 59.4C189.706 60.2747 190.324 60.9573 191.114 61.448C191.924 61.9387 192.842 62.184 193.866 62.184C194.911 62.184 195.796 61.9493 196.522 61.48C197.268 61.0107 197.855 60.4027 198.282 59.656L201.226 61.096C200.884 61.9067 200.351 62.6427 199.626 63.304C198.922 63.944 198.068 64.456 197.066 64.84C196.084 65.2027 195.007 65.384 193.834 65.384ZM205.331 65V47.688H208.787V51.176L208.467 50.664C208.851 49.5333 209.469 48.7227 210.323 48.232C211.176 47.72 212.2 47.464 213.395 47.464H214.451V50.76H212.947C211.752 50.76 210.781 51.1333 210.035 51.88C209.309 52.6053 208.947 53.6507 208.947 55.016V65H205.331ZM225.053 65.384C223.325 65.384 221.789 64.9893 220.445 64.2C219.122 63.3893 218.087 62.3013 217.341 60.936C216.594 59.5493 216.221 58.0027 216.221 56.296C216.221 54.5467 216.594 53 217.341 51.656C218.109 50.312 219.133 49.256 220.413 48.488C221.693 47.6987 223.143 47.304 224.765 47.304C226.066 47.304 227.229 47.528 228.253 47.976C229.277 48.424 230.141 49.0427 230.845 49.832C231.549 50.6 232.082 51.4853 232.444 52.488C232.829 53.4907 233.021 54.5573 233.021 55.688C233.021 55.9653 233.01 56.2533 232.989 56.552C232.967 56.8507 232.925 57.128 232.861 57.384H219.069V54.504H230.812L229.085 55.816C229.298 54.7707 229.223 53.8427 228.861 53.032C228.519 52.2 227.986 51.5493 227.261 51.08C226.557 50.5893 225.725 50.344 224.765 50.344C223.805 50.344 222.951 50.5893 222.205 51.08C221.458 51.5493 220.882 52.232 220.477 53.128C220.071 54.0027 219.911 55.0693 219.997 56.328C219.89 57.5013 220.05 58.5253 220.477 59.4C220.925 60.2747 221.543 60.9573 222.333 61.448C223.143 61.9387 224.061 62.184 225.085 62.184C226.13 62.184 227.015 61.9493 227.741 61.48C228.487 61.0107 229.074 60.4027 229.501 59.656L232.444 61.096C232.103 61.9067 231.57 62.6427 230.845 63.304C230.141 63.944 229.287 64.456 228.285 64.84C227.303 65.2027 226.226 65.384 225.053 65.384ZM242.95 65.384C241.179 65.384 239.622 64.9467 238.278 64.072C236.955 63.1973 236.027 62.024 235.493 60.552L238.278 59.24C238.747 60.2213 239.387 61 240.198 61.576C241.03 62.152 241.947 62.44 242.95 62.44C243.803 62.44 244.496 62.248 245.03 61.864C245.563 61.48 245.83 60.9573 245.83 60.296C245.83 59.8693 245.712 59.528 245.478 59.272C245.243 58.9947 244.944 58.7707 244.582 58.6C244.24 58.4293 243.888 58.3013 243.526 58.216L240.806 57.448C239.312 57.0213 238.192 56.3813 237.446 55.528C236.72 54.6533 236.358 53.64 236.358 52.488C236.358 51.4427 236.624 50.536 237.158 49.768C237.691 48.9787 238.427 48.3707 239.366 47.944C240.304 47.5173 241.36 47.304 242.534 47.304C244.112 47.304 245.52 47.6987 246.758 48.488C247.995 49.256 248.87 50.3333 249.382 51.72L246.598 53.032C246.256 52.2 245.712 51.5387 244.966 51.048C244.24 50.5573 243.419 50.312 242.502 50.312C241.712 50.312 241.083 50.504 240.614 50.888C240.144 51.2507 239.91 51.7307 239.91 52.328C239.91 52.7333 240.016 53.0747 240.23 53.352C240.443 53.608 240.72 53.8213 241.062 53.992C241.403 54.1413 241.755 54.2693 242.118 54.376L244.934 55.208C246.363 55.6133 247.462 56.2533 248.23 57.128C248.998 57.9813 249.382 59.0053 249.382 60.2C249.382 61.224 249.104 62.1307 248.55 62.92C248.016 63.688 247.27 64.296 246.31 64.744C245.35 65.1707 244.23 65.384 242.95 65.384ZM259.325 65.384C257.554 65.384 255.997 64.9467 254.653 64.072C253.33 63.1973 252.402 62.024 251.868 60.552L254.653 59.24C255.122 60.2213 255.762 61 256.573 61.576C257.405 62.152 258.322 62.44 259.325 62.44C260.178 62.44 260.871 62.248 261.405 61.864C261.938 61.48 262.205 60.9573 262.205 60.296C262.205 59.8693 262.087 59.528 261.853 59.272C261.618 58.9947 261.319 58.7707 260.957 58.6C260.615 58.4293 260.263 58.3013 259.901 58.216L257.181 57.448C255.687 57.0213 254.567 56.3813 253.821 55.528C253.095 54.6533 252.733 53.64 252.733 52.488C252.733 51.4427 252.999 50.536 253.533 49.768C254.066 48.9787 254.802 48.3707 255.741 47.944C256.679 47.5173 257.735 47.304 258.909 47.304C260.487 47.304 261.895 47.6987 263.133 48.488C264.37 49.256 265.245 50.3333 265.757 51.72L262.973 53.032C262.631 52.2 262.087 51.5387 261.341 51.048C260.615 50.5573 259.794 50.312 258.877 50.312C258.087 50.312 257.458 50.504 256.989 50.888C256.519 51.2507 256.285 51.7307 256.285 52.328C256.285 52.7333 256.391 53.0747 256.605 53.352C256.818 53.608 257.095 53.8213 257.437 53.992C257.778 54.1413 258.13 54.2693 258.493 54.376L261.309 55.208C262.738 55.6133 263.837 56.2533 264.605 57.128C265.373 57.9813 265.757 59.0053 265.757 60.2C265.757 61.224 265.479 62.1307 264.925 62.92C264.391 63.688 263.645 64.296 262.685 64.744C261.725 65.1707 260.605 65.384 259.325 65.384ZM277.428 65.384C275.7 65.384 274.164 64.9893 272.82 64.2C271.497 63.3893 270.462 62.3013 269.716 60.936C268.969 59.5493 268.596 58.0027 268.596 56.296C268.596 54.5467 268.969 53 269.716 51.656C270.484 50.312 271.508 49.256 272.788 48.488C274.068 47.6987 275.518 47.304 277.14 47.304C278.441 47.304 279.604 47.528 280.628 47.976C281.652 48.424 282.516 49.0427 283.22 49.832C283.924 50.6 284.457 51.4853 284.819 52.488C285.204 53.4907 285.396 54.5573 285.396 55.688C285.396 55.9653 285.385 56.2533 285.364 56.552C285.342 56.8507 285.3 57.128 285.236 57.384H271.444V54.504H283.188L281.46 55.816C281.673 54.7707 281.598 53.8427 281.236 53.032C280.894 52.2 280.361 51.5493 279.636 51.08C278.932 50.5893 278.1 50.344 277.14 50.344C276.18 50.344 275.326 50.5893 274.58 51.08C273.833 51.5493 273.257 52.232 272.852 53.128C272.446 54.0027 272.286 55.0693 272.372 56.328C272.265 57.5013 272.425 58.5253 272.852 59.4C273.3 60.2747 273.918 60.9573 274.708 61.448C275.518 61.9387 276.436 62.184 277.46 62.184C278.505 62.184 279.39 61.9493 280.116 61.48C280.862 61.0107 281.449 60.4027 281.876 59.656L284.819 61.096C284.478 61.9067 283.945 62.6427 283.22 63.304C282.516 63.944 281.662 64.456 280.66 64.84C279.678 65.2027 278.601 65.384 277.428 65.384ZM1.112 105V87.688H4.568V91.08L4.152 90.632C4.57867 89.544 5.26133 88.7227 6.2 88.168C7.13867 87.592 8.22667 87.304 9.464 87.304C10.744 87.304 11.8747 87.5813 12.856 88.136C13.8373 88.6907 14.6053 89.4587 15.16 90.44C15.7147 91.4213 15.992 92.552 15.992 93.832V105H12.408V94.792C12.408 93.9173 12.248 93.1813 11.928 92.584C11.608 91.9653 11.1493 91.496 10.552 91.176C9.976 90.8347 9.31467 90.664 8.568 90.664C7.82133 90.664 7.14933 90.8347 6.552 91.176C5.976 91.496 5.528 91.9653 5.208 92.584C4.888 93.2027 4.728 93.9387 4.728 94.792V105H1.112ZM25.046 105.384C23.8727 105.384 22.838 105.181 21.942 104.776C21.0673 104.349 20.3847 103.773 19.894 103.048C19.4033 102.301 19.158 101.427 19.158 100.424C19.158 99.4853 19.3607 98.6427 19.766 97.896C20.1927 97.1493 20.8433 96.52 21.718 96.008C22.5927 95.496 23.6913 95.1333 25.014 94.92L31.03 93.928V96.776L25.718 97.704C24.758 97.8747 24.054 98.184 23.606 98.632C23.158 99.0587 22.934 99.6133 22.934 100.296C22.934 100.957 23.1793 101.501 23.67 101.928C24.182 102.333 24.8327 102.536 25.622 102.536C26.6033 102.536 27.4567 102.323 28.182 101.896C28.9287 101.469 29.5047 100.904 29.91 100.2C30.3153 99.4747 30.518 98.6747 30.518 97.8V93.352C30.518 92.4987 30.198 91.8053 29.558 91.272C28.9393 90.7173 28.1073 90.44 27.062 90.44C26.102 90.44 25.2593 90.696 24.534 91.208C23.83 91.6987 23.3073 92.3387 22.966 93.128L19.958 91.624C20.278 90.7707 20.8007 90.024 21.526 89.384C22.2513 88.7227 23.094 88.2107 24.054 87.848C25.0353 87.4853 26.07 87.304 27.158 87.304C28.5233 87.304 29.7287 87.56 30.774 88.072C31.8407 88.584 32.662 89.2987 33.238 90.216C33.8353 91.112 34.134 92.1573 34.134 93.352V105H30.678V101.864L31.414 101.96C31.0087 102.664 30.486 103.272 29.846 103.784C29.2273 104.296 28.5127 104.691 27.702 104.968C26.9127 105.245 26.0273 105.384 25.046 105.384ZM50.3558 105.384C48.5851 105.384 47.0278 104.947 45.6838 104.072C44.3611 103.197 43.4331 102.024 42.8997 100.552L45.6838 99.24C46.1531 100.221 46.7931 101 47.6038 101.576C48.4358 102.152 49.3531 102.44 50.3558 102.44C51.2091 102.44 51.9024 102.248 52.4358 101.864C52.9691 101.48 53.2358 100.957 53.2358 100.296C53.2358 99.8693 53.1184 99.528 52.8838 99.272C52.6491 98.9947 52.3504 98.7707 51.9878 98.6C51.6464 98.4293 51.2944 98.3013 50.9318 98.216L48.2118 97.448C46.7184 97.0213 45.5984 96.3813 44.8518 95.528C44.1264 94.6533 43.7638 93.64 43.7638 92.488C43.7638 91.4427 44.0304 90.536 44.5638 89.768C45.0971 88.9787 45.8331 88.3707 46.7718 87.944C47.7104 87.5173 48.7664 87.304 49.9398 87.304C51.5184 87.304 52.9264 87.6987 54.1638 88.488C55.4011 89.256 56.2758 90.3333 56.7878 91.72L54.0038 93.032C53.6624 92.2 53.1184 91.5387 52.3718 91.048C51.6464 90.5573 50.8251 90.312 49.9078 90.312C49.1184 90.312 48.4891 90.504 48.0198 90.888C47.5504 91.2507 47.3158 91.7307 47.3158 92.328C47.3158 92.7333 47.4224 93.0747 47.6358 93.352C47.8491 93.608 48.1264 93.8213 48.4678 93.992C48.8091 94.1413 49.1611 94.2693 49.5238 94.376L52.3398 95.208C53.7691 95.6133 54.8678 96.2533 55.6358 97.128C56.4038 97.9813 56.7878 99.0053 56.7878 100.2C56.7878 101.224 56.5104 102.131 55.9558 102.92C55.4224 103.688 54.6758 104.296 53.7158 104.744C52.7558 105.171 51.6358 105.384 50.3558 105.384ZM66.5068 105.384C65.2054 105.384 64.0641 105.096 63.0828 104.52C62.1014 103.923 61.3334 103.101 60.7788 102.056C60.2454 100.989 59.9788 99.7627 59.9788 98.376V87.688H63.5948V98.056C63.5948 98.8453 63.7548 99.5387 64.0748 100.136C64.3948 100.733 64.8428 101.203 65.4188 101.544C65.9948 101.864 66.6561 102.024 67.4028 102.024C68.1708 102.024 68.8428 101.853 69.4188 101.512C69.9948 101.171 70.4428 100.691 70.7628 100.072C71.1041 99.4533 71.2748 98.728 71.2748 97.896V87.688H74.8588V105H71.4348V101.608L71.8188 102.056C71.4134 103.123 70.7414 103.944 69.8028 104.52C68.8641 105.096 67.7654 105.384 66.5068 105.384ZM84.2648 105.384C83.0914 105.384 82.0568 105.181 81.1608 104.776C80.2861 104.349 79.6034 103.773 79.1128 103.048C78.6221 102.301 78.3768 101.427 78.3768 100.424C78.3768 99.4853 78.5794 98.6427 78.9848 97.896C79.4114 97.1493 80.0621 96.52 80.9368 96.008C81.8114 95.496 82.9101 95.1333 84.2328 94.92L90.2488 93.928V96.776L84.9368 97.704C83.9768 97.8747 83.2728 98.184 82.8248 98.632C82.3768 99.0587 82.1528 99.6133 82.1528 100.296C82.1528 100.957 82.3981 101.501 82.8888 101.928C83.4008 102.333 84.0514 102.536 84.8408 102.536C85.8221 102.536 86.6754 102.323 87.4008 101.896C88.1474 101.469 88.7234 100.904 89.1288 100.2C89.5341 99.4747 89.7368 98.6747 89.7368 97.8V93.352C89.7368 92.4987 89.4168 91.8053 88.7768 91.272C88.1581 90.7173 87.3261 90.44 86.2808 90.44C85.3208 90.44 84.4781 90.696 83.7528 91.208C83.0488 91.6987 82.5261 92.3387 82.1848 93.128L79.1768 91.624C79.4968 90.7707 80.0194 90.024 80.7448 89.384C81.4701 88.7227 82.3128 88.2107 83.2728 87.848C84.2541 87.4853 85.2888 87.304 86.3767 87.304C87.7421 87.304 88.9474 87.56 89.9928 88.072C91.0594 88.584 91.8808 89.2987 92.4568 90.216C93.0541 91.112 93.3528 92.1573 93.3528 93.352V105H89.8968V101.864L90.6328 101.96C90.2274 102.664 89.7048 103.272 89.0648 103.784C88.4461 104.296 87.7314 104.691 86.9208 104.968C86.1314 105.245 85.2461 105.384 84.2648 105.384ZM111.399 105.384C109.671 105.384 108.135 104.989 106.791 104.2C105.468 103.389 104.412 102.301 103.623 100.936C102.855 99.5707 102.471 98.024 102.471 96.296C102.471 94.5893 102.855 93.0533 103.623 91.688C104.391 90.3227 105.447 89.256 106.791 88.488C108.135 87.6987 109.671 87.304 111.399 87.304C112.572 87.304 113.671 87.5173 114.695 87.944C115.719 88.3493 116.604 88.9147 117.351 89.64C118.119 90.3653 118.684 91.208 119.047 92.168L115.879 93.64C115.516 92.744 114.929 92.0293 114.119 91.496C113.329 90.9413 112.423 90.664 111.399 90.664C110.417 90.664 109.532 90.9093 108.743 91.4C107.975 91.8693 107.367 92.5413 106.919 93.416C106.471 94.2693 106.247 95.24 106.247 96.328C106.247 97.416 106.471 98.3973 106.919 99.272C107.367 100.125 107.975 100.797 108.743 101.288C109.532 101.779 110.417 102.024 111.399 102.024C112.444 102.024 113.351 101.757 114.119 101.224C114.908 100.669 115.495 99.9333 115.879 99.016L119.047 100.52C118.705 101.437 118.151 102.269 117.383 103.016C116.636 103.741 115.751 104.317 114.727 104.744C113.703 105.171 112.593 105.384 111.399 105.384ZM127.609 105.384C126.435 105.384 125.401 105.181 124.505 104.776C123.63 104.349 122.947 103.773 122.457 103.048C121.966 102.301 121.721 101.427 121.721 100.424C121.721 99.4853 121.923 98.6427 122.329 97.896C122.755 97.1493 123.406 96.52 124.281 96.008C125.155 95.496 126.254 95.1333 127.577 94.92L133.593 93.928V96.776L128.281 97.704C127.321 97.8747 126.617 98.184 126.169 98.632C125.721 99.0587 125.497 99.6133 125.497 100.296C125.497 100.957 125.742 101.501 126.233 101.928C126.745 102.333 127.395 102.536 128.185 102.536C129.166 102.536 130.019 102.323 130.745 101.896C131.491 101.469 132.067 100.904 132.473 100.2C132.878 99.4747 133.081 98.6747 133.081 97.8V93.352C133.081 92.4987 132.761 91.8053 132.121 91.272C131.502 90.7173 130.67 90.44 129.625 90.44C128.665 90.44 127.822 90.696 127.097 91.208C126.393 91.6987 125.87 92.3387 125.529 93.128L122.521 91.624C122.841 90.7707 123.363 90.024 124.089 89.384C124.814 88.7227 125.657 88.2107 126.617 87.848C127.598 87.4853 128.633 87.304 129.72 87.304C131.086 87.304 132.291 87.56 133.337 88.072C134.403 88.584 135.225 89.2987 135.801 90.216C136.398 91.112 136.697 92.1573 136.697 93.352V105H133.241V101.864L133.977 101.96C133.571 102.664 133.049 103.272 132.409 103.784C131.79 104.296 131.075 104.691 130.265 104.968C129.475 105.245 128.59 105.384 127.609 105.384ZM140.924 105V87.688H144.541V105H140.924ZM140.924 85.32V81.16H144.541V85.32H140.924ZM147.04 105L153.088 96.328L147.04 87.688H151.296L156.256 94.92H154.208L159.168 87.688H163.424L157.344 96.328L163.392 105H159.136L154.24 97.736H156.224L151.296 105H147.04ZM170.765 105.384C169.591 105.384 168.557 105.181 167.661 104.776C166.786 104.349 166.103 103.773 165.613 103.048C165.122 102.301 164.877 101.427 164.877 100.424C164.877 99.4853 165.079 98.6427 165.485 97.896C165.911 97.1493 166.562 96.52 167.437 96.008C168.311 95.496 169.41 95.1333 170.733 94.92L176.749 93.928V96.776L171.437 97.704C170.477 97.8747 169.773 98.184 169.325 98.632C168.877 99.0587 168.653 99.6133 168.653 100.296C168.653 100.957 168.898 101.501 169.389 101.928C169.901 102.333 170.551 102.536 171.341 102.536C172.322 102.536 173.175 102.323 173.901 101.896C174.647 101.469 175.223 100.904 175.629 100.2C176.034 99.4747 176.237 98.6747 176.237 97.8V93.352C176.237 92.4987 175.917 91.8053 175.277 91.272C174.658 90.7173 173.826 90.44 172.781 90.44C171.821 90.44 170.978 90.696 170.253 91.208C169.549 91.6987 169.026 92.3387 168.685 93.128L165.677 91.624C165.997 90.7707 166.519 90.024 167.245 89.384C167.97 88.7227 168.813 88.2107 169.773 87.848C170.754 87.4853 171.789 87.304 172.877 87.304C174.242 87.304 175.447 87.56 176.493 88.072C177.559 88.584 178.381 89.2987 178.957 90.216C179.554 91.112 179.853 92.1573 179.853 93.352V105H176.397V101.864L177.133 101.96C176.727 102.664 176.205 103.272 175.565 103.784C174.946 104.296 174.231 104.691 173.421 104.968C172.631 105.245 171.746 105.384 170.765 105.384ZM197.675 105.384C196.011 105.384 194.517 104.989 193.195 104.2C191.893 103.389 190.859 102.301 190.091 100.936C189.344 99.5707 188.971 98.0347 188.971 96.328C188.971 94.6213 189.355 93.0853 190.123 91.72C190.891 90.3547 191.925 89.2773 193.227 88.488C194.528 87.6987 196 87.304 197.643 87.304C199.029 87.304 200.256 87.5813 201.323 88.136C202.389 88.6907 203.232 89.4587 203.851 90.44L203.307 91.272V80.776H206.891V105H203.467V101.48L203.883 102.152C203.285 103.197 202.432 103.997 201.323 104.552C200.213 105.107 198.997 105.384 197.675 105.384ZM198.027 102.024C199.029 102.024 199.925 101.779 200.715 101.288C201.525 100.797 202.155 100.125 202.603 99.272C203.072 98.3973 203.307 97.416 203.307 96.328C203.307 95.24 203.072 94.2693 202.603 93.416C202.155 92.5627 201.525 91.8907 200.715 91.4C199.925 90.9093 199.029 90.664 198.027 90.664C197.024 90.664 196.117 90.9093 195.307 91.4C194.496 91.8907 193.867 92.5627 193.419 93.416C192.971 94.2693 192.747 95.24 192.747 96.328C192.747 97.416 192.971 98.3973 193.419 99.272C193.867 100.125 194.485 100.797 195.275 101.288C196.085 101.779 197.003 102.024 198.027 102.024ZM219.24 105.384C217.512 105.384 215.976 104.989 214.632 104.2C213.309 103.389 212.275 102.301 211.528 100.936C210.781 99.5493 210.408 98.0027 210.408 96.296C210.408 94.5467 210.781 93 211.528 91.656C212.296 90.312 213.32 89.256 214.6 88.488C215.88 87.6987 217.331 87.304 218.952 87.304C220.253 87.304 221.416 87.528 222.44 87.976C223.464 88.424 224.328 89.0427 225.032 89.832C225.736 90.6 226.269 91.4853 226.632 92.488C227.016 93.4907 227.208 94.5573 227.208 95.688C227.208 95.9653 227.197 96.2533 227.176 96.552C227.155 96.8507 227.112 97.128 227.048 97.384H213.256V94.504H225L223.272 95.816C223.485 94.7707 223.411 93.8427 223.048 93.032C222.707 92.2 222.173 91.5493 221.448 91.08C220.744 90.5893 219.912 90.344 218.952 90.344C217.992 90.344 217.139 90.5893 216.392 91.08C215.645 91.5493 215.069 92.232 214.664 93.128C214.259 94.0027 214.099 95.0693 214.184 96.328C214.077 97.5013 214.237 98.5253 214.664 99.4C215.112 100.275 215.731 100.957 216.52 101.448C217.331 101.939 218.248 102.184 219.272 102.184C220.317 102.184 221.203 101.949 221.928 101.48C222.675 101.011 223.261 100.403 223.688 99.656L226.632 101.096C226.291 101.907 225.757 102.643 225.032 103.304C224.328 103.944 223.475 104.456 222.472 104.84C221.491 105.203 220.413 105.384 219.24 105.384ZM9.24 145.384C7.512 145.384 5.976 144.989 4.632 144.2C3.30933 143.389 2.27467 142.301 1.528 140.936C0.781333 139.549 0.408 138.003 0.408 136.296C0.408 134.547 0.781333 133 1.528 131.656C2.296 130.312 3.32 129.256 4.6 128.488C5.88 127.699 7.33067 127.304 8.952 127.304C10.2533 127.304 11.416 127.528 12.44 127.976C13.464 128.424 14.328 129.043 15.032 129.832C15.736 130.6 16.2693 131.485 16.632 132.488C17.016 133.491 17.208 134.557 17.208 135.688C17.208 135.965 17.1973 136.253 17.176 136.552C17.1547 136.851 17.112 137.128 17.048 137.384H3.256V134.504H15L13.272 135.816C13.4853 134.771 13.4107 133.843 13.048 133.032C12.7067 132.2 12.1733 131.549 11.448 131.08C10.744 130.589 9.912 130.344 8.952 130.344C7.992 130.344 7.13867 130.589 6.392 131.08C5.64533 131.549 5.06933 132.232 4.664 133.128C4.25867 134.003 4.09867 135.069 4.184 136.328C4.07733 137.501 4.23733 138.525 4.664 139.4C5.112 140.275 5.73067 140.957 6.52 141.448C7.33067 141.939 8.248 142.184 9.272 142.184C10.3173 142.184 11.2027 141.949 11.928 141.48C12.6747 141.011 13.2613 140.403 13.688 139.656L16.632 141.096C16.2907 141.907 15.7573 142.643 15.032 143.304C14.328 143.944 13.4747 144.456 12.472 144.84C11.4907 145.203 10.4133 145.384 9.24 145.384ZM20.737 145V127.688H24.193V131.08L23.777 130.632C24.2037 129.544 24.8863 128.723 25.825 128.168C26.7637 127.592 27.8517 127.304 29.089 127.304C30.369 127.304 31.4997 127.581 32.481 128.136C33.4623 128.691 34.2303 129.459 34.785 130.44C35.3397 131.421 35.617 132.552 35.617 133.832V145H32.033V134.792C32.033 133.917 31.873 133.181 31.553 132.584C31.233 131.965 30.7743 131.496 30.177 131.176C29.601 130.835 28.9397 130.664 28.193 130.664C27.4463 130.664 26.7743 130.835 26.177 131.176C25.601 131.496 25.153 131.965 24.833 132.584C24.513 133.203 24.353 133.939 24.353 134.792V145H20.737ZM46.975 145.192C45.1617 145.192 43.7537 144.68 42.751 143.656C41.7483 142.632 41.247 141.192 41.247 139.336V130.952H38.207V127.688H38.687C39.4977 127.688 40.127 127.453 40.575 126.984C41.023 126.515 41.247 125.875 41.247 125.064V123.72H44.863V127.688H48.799V130.952H44.863V139.176C44.863 139.773 44.959 140.285 45.151 140.712C45.343 141.117 45.6523 141.437 46.079 141.672C46.5057 141.885 47.0603 141.992 47.743 141.992C47.9137 141.992 48.1057 141.981 48.319 141.96C48.5323 141.939 48.735 141.917 48.927 141.896V145C48.6283 145.043 48.2977 145.085 47.935 145.128C47.5723 145.171 47.2523 145.192 46.975 145.192ZM52.4557 145V127.688H55.9118V131.176L55.5918 130.664C55.9758 129.533 56.5944 128.723 57.4478 128.232C58.3011 127.72 59.3251 127.464 60.5198 127.464H61.5758V130.76H60.0718C58.8771 130.76 57.9064 131.133 57.1598 131.88C56.4344 132.605 56.0718 133.651 56.0718 135.016V145H52.4557ZM69.2335 145.384C68.0602 145.384 67.0255 145.181 66.1295 144.776C65.2548 144.349 64.5722 143.773 64.0815 143.048C63.5908 142.301 63.3455 141.427 63.3455 140.424C63.3455 139.485 63.5482 138.643 63.9535 137.896C64.3802 137.149 65.0308 136.52 65.9055 136.008C66.7802 135.496 67.8788 135.133 69.2015 134.92L75.2175 133.928V136.776L69.9055 137.704C68.9455 137.875 68.2415 138.184 67.7935 138.632C67.3455 139.059 67.1215 139.613 67.1215 140.296C67.1215 140.957 67.3668 141.501 67.8575 141.928C68.3695 142.333 69.0202 142.536 69.8095 142.536C70.7908 142.536 71.6442 142.323 72.3695 141.896C73.1162 141.469 73.6922 140.904 74.0975 140.2C74.5028 139.475 74.7055 138.675 74.7055 137.8V133.352C74.7055 132.499 74.3855 131.805 73.7455 131.272C73.1268 130.717 72.2948 130.44 71.2495 130.44C70.2895 130.44 69.4468 130.696 68.7215 131.208C68.0175 131.699 67.4948 132.339 67.1535 133.128L64.1455 131.624C64.4655 130.771 64.9882 130.024 65.7135 129.384C66.4388 128.723 67.2815 128.211 68.2415 127.848C69.2228 127.485 70.2575 127.304 71.3455 127.304C72.7108 127.304 73.9162 127.56 74.9615 128.072C76.0282 128.584 76.8495 129.299 77.4255 130.216C78.0228 131.112 78.3215 132.157 78.3215 133.352V145H74.8655V141.864L75.6015 141.96C75.1962 142.664 74.6735 143.272 74.0335 143.784C73.4148 144.296 72.7002 144.691 71.8895 144.968C71.1002 145.245 70.2148 145.384 69.2335 145.384ZM90.5495 145.384C88.8855 145.384 87.3922 144.989 86.0695 144.2C84.7682 143.389 83.7335 142.301 82.9655 140.936C82.2188 139.571 81.8455 138.035 81.8455 136.328C81.8455 134.621 82.2295 133.085 82.9975 131.72C83.7655 130.355 84.8002 129.277 86.1015 128.488C87.4028 127.699 88.8748 127.304 90.5175 127.304C91.9042 127.304 93.1308 127.581 94.1975 128.136C95.2642 128.691 96.1068 129.459 96.7255 130.44L96.1815 131.272V120.776H99.7655V145H96.3415V141.48L96.7575 142.152C96.1602 143.197 95.3068 143.997 94.1975 144.552C93.0882 145.107 91.8722 145.384 90.5495 145.384ZM90.9015 142.024C91.9042 142.024 92.8002 141.779 93.5895 141.288C94.4002 140.797 95.0295 140.125 95.4775 139.272C95.9468 138.397 96.1815 137.416 96.1815 136.328C96.1815 135.24 95.9468 134.269 95.4775 133.416C95.0295 132.563 94.4002 131.891 93.5895 131.4C92.8002 130.909 91.9042 130.664 90.9015 130.664C89.8988 130.664 88.9922 130.909 88.1815 131.4C87.3708 131.891 86.7415 132.563 86.2935 133.416C85.8455 134.269 85.6215 135.24 85.6215 136.328C85.6215 137.416 85.8455 138.397 86.2935 139.272C86.7415 140.125 87.3602 140.797 88.1495 141.288C88.9602 141.779 89.8775 142.024 90.9015 142.024ZM109.171 145.384C107.998 145.384 106.963 145.181 106.067 144.776C105.192 144.349 104.51 143.773 104.019 143.048C103.528 142.301 103.283 141.427 103.283 140.424C103.283 139.485 103.486 138.643 103.891 137.896C104.318 137.149 104.968 136.52 105.843 136.008C106.718 135.496 107.816 135.133 109.139 134.92L115.155 133.928V136.776L109.843 137.704C108.883 137.875 108.179 138.184 107.731 138.632C107.283 139.059 107.059 139.613 107.059 140.296C107.059 140.957 107.304 141.501 107.795 141.928C108.307 142.333 108.958 142.536 109.747 142.536C110.728 142.536 111.582 142.323 112.307 141.896C113.054 141.469 113.63 140.904 114.035 140.2C114.44 139.475 114.643 138.675 114.643 137.8V133.352C114.643 132.499 114.323 131.805 113.683 131.272C113.064 130.717 112.232 130.44 111.187 130.44C110.227 130.44 109.384 130.696 108.659 131.208C107.955 131.699 107.432 132.339 107.091 133.128L104.083 131.624C104.403 130.771 104.926 130.024 105.651 129.384C106.376 128.723 107.219 128.211 108.179 127.848C109.16 127.485 110.195 127.304 111.283 127.304C112.648 127.304 113.854 127.56 114.899 128.072C115.966 128.584 116.787 129.299 117.363 130.216C117.96 131.112 118.259 132.157 118.259 133.352V145H114.803V141.864L115.539 141.96C115.134 142.664 114.611 143.272 113.971 143.784C113.352 144.296 112.638 144.691 111.827 144.968C111.038 145.245 110.152 145.384 109.171 145.384ZM124.087 145V140.84H127.767V145H124.087Z" fill="white"/>
</svg>
