<svg width="480" height="644" viewBox="0 0 480 644" fill="none" xmlns="http://www.w3.org/2000/svg">
<rect width="480" height="644" rx="19" fill="#090909"/>
<rect x="41" y="297" width="391" height="76" rx="38" stroke="white" stroke-width="2"/>
<circle cx="64" cy="550" r="24" fill="white"/>
<ellipse cx="125.5" cy="550" rx="24.5" ry="24" fill="white"/>
<circle cx="186" cy="550" r="24" fill="white"/>
<path d="M42.464 91V67.16H51.136C52.736 67.16 54.144 67.4587 55.36 68.056C56.576 68.632 57.5253 69.4853 58.208 70.616C58.912 71.7253 59.264 73.0587 59.264 74.616C59.264 76.2587 58.848 77.6667 58.016 78.84C57.2053 80.0133 56.1067 80.8667 54.72 81.4L60.224 91H55.936L50.08 80.6L52.544 82.04H46.24V91H42.464ZM46.24 78.68H51.2C52.0747 78.68 52.832 78.5093 53.472 78.168C54.112 77.8267 54.6027 77.3573 54.944 76.76C55.3067 76.1413 55.488 75.416 55.488 74.584C55.488 73.752 55.3067 73.0373 54.944 72.44C54.6027 71.8213 54.112 71.352 53.472 71.032C52.832 70.6907 52.0747 70.52 51.2 70.52H46.24V78.68ZM70.2088 91.384C68.4808 91.384 66.9448 90.9893 65.6008 90.2C64.2781 89.3893 63.2434 88.3013 62.4968 86.936C61.7501 85.5493 61.3768 84.0027 61.3768 82.296C61.3768 80.5467 61.7501 79 62.4968 77.656C63.2648 76.312 64.2888 75.256 65.5688 74.488C66.8488 73.6987 68.2994 73.304 69.9208 73.304C71.2221 73.304 72.3848 73.528 73.4088 73.976C74.4328 74.424 75.2968 75.0427 76.0008 75.832C76.7048 76.6 77.2381 77.4853 77.6007 78.488C77.9848 79.4907 78.1768 80.5573 78.1768 81.688C78.1768 81.9653 78.1661 82.2533 78.1448 82.552C78.1234 82.8507 78.0808 83.128 78.0168 83.384H64.2248V80.504H75.9688L74.2408 81.816C74.4541 80.7707 74.3794 79.8427 74.0168 79.032C73.6754 78.2 73.1421 77.5493 72.4168 77.08C71.7128 76.5893 70.8808 76.344 69.9208 76.344C68.9608 76.344 68.1074 76.5893 67.3608 77.08C66.6141 77.5493 66.0381 78.232 65.6328 79.128C65.2274 80.0027 65.0674 81.0693 65.1528 82.328C65.0461 83.5013 65.2061 84.5253 65.6328 85.4C66.0808 86.2747 66.6994 86.9573 67.4888 87.448C68.2994 87.9387 69.2168 88.184 70.2408 88.184C71.2861 88.184 72.1714 87.9493 72.8968 87.48C73.6434 87.0107 74.2301 86.4027 74.6568 85.656L77.6007 87.096C77.2594 87.9067 76.7261 88.6427 76.0008 89.304C75.2968 89.944 74.4434 90.456 73.4408 90.84C72.4594 91.2027 71.3821 91.384 70.2088 91.384ZM89.9298 91.384C88.2018 91.384 86.6658 90.9893 85.3218 90.2C83.9991 89.3893 82.9431 88.3013 82.1538 86.936C81.3858 85.5707 81.0018 84.024 81.0018 82.296C81.0018 80.5893 81.3858 79.0533 82.1538 77.688C82.9218 76.3227 83.9778 75.256 85.3218 74.488C86.6658 73.6987 88.2018 73.304 89.9298 73.304C91.1031 73.304 92.2018 73.5173 93.2258 73.944C94.2498 74.3493 95.1351 74.9147 95.8818 75.64C96.6498 76.3653 97.2151 77.208 97.5778 78.168L94.4098 79.64C94.0471 78.744 93.4604 78.0293 92.6498 77.496C91.8604 76.9413 90.9538 76.664 89.9298 76.664C88.9484 76.664 88.0631 76.9093 87.2738 77.4C86.5058 77.8693 85.8978 78.5413 85.4498 79.416C85.0018 80.2693 84.7778 81.24 84.7778 82.328C84.7778 83.416 85.0018 84.3973 85.4498 85.272C85.8978 86.1253 86.5058 86.7973 87.2738 87.288C88.0631 87.7787 88.9484 88.024 89.9298 88.024C90.9751 88.024 91.8818 87.7573 92.6498 87.224C93.4391 86.6693 94.0258 85.9333 94.4098 85.016L97.5778 86.52C97.2364 87.4373 96.6818 88.2693 95.9138 89.016C95.1671 89.7413 94.2818 90.3173 93.2578 90.744C92.2338 91.1707 91.1244 91.384 89.9298 91.384ZM109.24 91.384C107.512 91.384 105.976 90.9893 104.632 90.2C103.309 89.3893 102.275 88.3013 101.528 86.936C100.781 85.5493 100.408 84.0027 100.408 82.296C100.408 80.5467 100.781 79 101.528 77.656C102.296 76.312 103.32 75.256 104.6 74.488C105.88 73.6987 107.331 73.304 108.952 73.304C110.253 73.304 111.416 73.528 112.44 73.976C113.464 74.424 114.328 75.0427 115.032 75.832C115.736 76.6 116.269 77.4853 116.632 78.488C117.016 79.4907 117.208 80.5573 117.208 81.688C117.208 81.9653 117.197 82.2533 117.176 82.552C117.155 82.8507 117.112 83.128 117.048 83.384H103.256V80.504H115L113.272 81.816C113.485 80.7707 113.411 79.8427 113.048 79.032C112.707 78.2 112.173 77.5493 111.448 77.08C110.744 76.5893 109.912 76.344 108.952 76.344C107.992 76.344 107.139 76.5893 106.392 77.08C105.645 77.5493 105.069 78.232 104.664 79.128C104.259 80.0027 104.099 81.0693 104.184 82.328C104.077 83.5013 104.237 84.5253 104.664 85.4C105.112 86.2747 105.731 86.9573 106.52 87.448C107.331 87.9387 108.248 88.184 109.272 88.184C110.317 88.184 111.203 87.9493 111.928 87.48C112.675 87.0107 113.261 86.4027 113.688 85.656L116.632 87.096C116.291 87.9067 115.757 88.6427 115.032 89.304C114.328 89.944 113.475 90.456 112.472 90.84C111.491 91.2027 110.413 91.384 109.24 91.384ZM129.985 91.384C128.641 91.384 127.414 91.1067 126.305 90.552C125.217 89.9973 124.374 89.1973 123.777 88.152L124.193 87.48V91H120.737V66.776H124.353V77.272L123.777 76.44C124.417 75.4587 125.27 74.6907 126.337 74.136C127.404 73.5813 128.62 73.304 129.985 73.304C131.628 73.304 133.1 73.6987 134.401 74.488C135.724 75.2773 136.758 76.3547 137.505 77.72C138.273 79.0853 138.657 80.6213 138.657 82.328C138.657 84.0347 138.273 85.5707 137.505 86.936C136.758 88.3013 135.734 89.3893 134.433 90.2C133.132 90.9893 131.649 91.384 129.985 91.384ZM129.633 88.024C130.657 88.024 131.564 87.7787 132.353 87.288C133.142 86.7973 133.761 86.1253 134.209 85.272C134.678 84.3973 134.913 83.416 134.913 82.328C134.913 81.24 134.678 80.2693 134.209 79.416C133.761 78.5627 133.142 77.8907 132.353 77.4C131.564 76.9093 130.657 76.664 129.633 76.664C128.63 76.664 127.724 76.9093 126.913 77.4C126.124 77.8907 125.494 78.5627 125.025 79.416C124.577 80.2693 124.353 81.24 124.353 82.328C124.353 83.416 124.577 84.3973 125.025 85.272C125.494 86.1253 126.124 86.7973 126.913 87.288C127.724 87.7787 128.63 88.024 129.633 88.024ZM147.359 91.384C146.185 91.384 145.151 91.1813 144.255 90.776C143.38 90.3493 142.697 89.7733 142.207 89.048C141.716 88.3013 141.471 87.4267 141.471 86.424C141.471 85.4853 141.673 84.6427 142.079 83.896C142.505 83.1493 143.156 82.52 144.031 82.008C144.905 81.496 146.004 81.1333 147.327 80.92L153.343 79.928V82.776L148.031 83.704C147.071 83.8747 146.367 84.184 145.919 84.632C145.471 85.0587 145.247 85.6133 145.247 86.296C145.247 86.9573 145.492 87.5013 145.983 87.928C146.495 88.3333 147.145 88.536 147.935 88.536C148.916 88.536 149.769 88.3227 150.495 87.896C151.241 87.4693 151.817 86.904 152.223 86.2C152.628 85.4747 152.831 84.6747 152.831 83.8V79.352C152.831 78.4987 152.511 77.8053 151.871 77.272C151.252 76.7173 150.42 76.44 149.375 76.44C148.415 76.44 147.572 76.696 146.847 77.208C146.143 77.6987 145.62 78.3387 145.279 79.128L142.271 77.624C142.591 76.7707 143.113 76.024 143.839 75.384C144.564 74.7227 145.407 74.2107 146.367 73.848C147.348 73.4853 148.383 73.304 149.47 73.304C150.836 73.304 152.041 73.56 153.087 74.072C154.153 74.584 154.975 75.2987 155.551 76.216C156.148 77.112 156.447 78.1573 156.447 79.352V91H152.991V87.864L153.727 87.96C153.321 88.664 152.799 89.272 152.159 89.784C151.54 90.296 150.825 90.6907 150.015 90.968C149.225 91.2453 148.34 91.384 147.359 91.384ZM174.62 91.384C172.956 91.384 171.431 90.9893 170.044 90.2C168.679 89.4107 167.591 88.3333 166.78 86.968C165.97 85.6027 165.564 84.056 165.564 82.328C165.564 80.5787 165.97 79.032 166.78 77.688C167.591 76.3227 168.679 75.256 170.044 74.488C171.41 73.6987 172.935 73.304 174.62 73.304C176.327 73.304 177.852 73.6987 179.196 74.488C180.562 75.256 181.639 76.3227 182.428 77.688C183.239 79.032 183.644 80.5787 183.644 82.328C183.644 84.0773 183.239 85.6347 182.428 87C181.618 88.3653 180.53 89.4427 179.164 90.232C177.799 91 176.284 91.384 174.62 91.384ZM174.62 88.024C175.644 88.024 176.551 87.7787 177.34 87.288C178.13 86.7973 178.748 86.1253 179.196 85.272C179.666 84.3973 179.9 83.416 179.9 82.328C179.9 81.24 179.666 80.2693 179.196 79.416C178.748 78.5627 178.13 77.8907 177.34 77.4C176.551 76.9093 175.644 76.664 174.62 76.664C173.618 76.664 172.711 76.9093 171.9 77.4C171.111 77.8907 170.482 78.5627 170.012 79.416C169.564 80.2693 169.34 81.24 169.34 82.328C169.34 83.416 169.564 84.3973 170.012 85.272C170.482 86.1253 171.111 86.7973 171.9 87.288C172.711 87.7787 173.618 88.024 174.62 88.024ZM193.575 91.384C191.804 91.384 190.247 90.9467 188.903 90.072C187.58 89.1973 186.652 88.024 186.118 86.552L188.903 85.24C189.372 86.2213 190.012 87 190.823 87.576C191.655 88.152 192.572 88.44 193.575 88.44C194.428 88.44 195.121 88.248 195.655 87.864C196.188 87.48 196.455 86.9573 196.455 86.296C196.455 85.8693 196.337 85.528 196.103 85.272C195.868 84.9947 195.569 84.7707 195.207 84.6C194.865 84.4293 194.513 84.3013 194.151 84.216L191.431 83.448C189.937 83.0213 188.817 82.3813 188.071 81.528C187.345 80.6533 186.983 79.64 186.983 78.488C186.983 77.4427 187.249 76.536 187.783 75.768C188.316 74.9787 189.052 74.3707 189.991 73.944C190.929 73.5173 191.985 73.304 193.159 73.304C194.737 73.304 196.145 73.6987 197.383 74.488C198.62 75.256 199.495 76.3333 200.007 77.72L197.223 79.032C196.881 78.2 196.337 77.5387 195.591 77.048C194.865 76.5573 194.044 76.312 193.127 76.312C192.337 76.312 191.708 76.504 191.239 76.888C190.769 77.2507 190.535 77.7307 190.535 78.328C190.535 78.7333 190.641 79.0747 190.855 79.352C191.068 79.608 191.345 79.8213 191.687 79.992C192.028 80.1413 192.38 80.2693 192.743 80.376L195.559 81.208C196.988 81.6133 198.087 82.2533 198.855 83.128C199.623 83.9813 200.007 85.0053 200.007 86.2C200.007 87.224 199.729 88.1307 199.175 88.92C198.641 89.688 197.895 90.296 196.935 90.744C195.975 91.1707 194.855 91.384 193.575 91.384ZM209.143 91V73.688H212.599V77.08L212.183 76.632C212.61 75.544 213.293 74.7227 214.231 74.168C215.17 73.592 216.258 73.304 217.495 73.304C218.775 73.304 219.906 73.5813 220.887 74.136C221.869 74.6907 222.637 75.4587 223.191 76.44C223.746 77.4213 224.023 78.552 224.023 79.832V91H220.439V80.792C220.439 79.9173 220.279 79.1813 219.959 78.584C219.639 77.9653 219.181 77.496 218.583 77.176C218.007 76.8347 217.346 76.664 216.599 76.664C215.853 76.664 215.181 76.8347 214.583 77.176C214.007 77.496 213.559 77.9653 213.239 78.584C212.919 79.2027 212.759 79.9387 212.759 80.792V91H209.143ZM236.245 91.384C234.581 91.384 233.056 90.9893 231.669 90.2C230.304 89.4107 229.216 88.3333 228.405 86.968C227.595 85.6027 227.189 84.056 227.189 82.328C227.189 80.5787 227.595 79.032 228.405 77.688C229.216 76.3227 230.304 75.256 231.669 74.488C233.035 73.6987 234.56 73.304 236.245 73.304C237.952 73.304 239.477 73.6987 240.821 74.488C242.187 75.256 243.264 76.3227 244.053 77.688C244.864 79.032 245.269 80.5787 245.269 82.328C245.269 84.0773 244.864 85.6347 244.053 87C243.243 88.3653 242.155 89.4427 240.789 90.232C239.424 91 237.909 91.384 236.245 91.384ZM236.245 88.024C237.269 88.024 238.176 87.7787 238.965 87.288C239.755 86.7973 240.373 86.1253 240.821 85.272C241.291 84.3973 241.525 83.416 241.525 82.328C241.525 81.24 241.291 80.2693 240.821 79.416C240.373 78.5627 239.755 77.8907 238.965 77.4C238.176 76.9093 237.269 76.664 236.245 76.664C235.243 76.664 234.336 76.9093 233.525 77.4C232.736 77.8907 232.107 78.5627 231.637 79.416C231.189 80.2693 230.965 81.24 230.965 82.328C230.965 83.416 231.189 84.3973 231.637 85.272C232.107 86.1253 232.736 86.7973 233.525 87.288C234.336 87.7787 235.243 88.024 236.245 88.024ZM255.2 91.384C253.429 91.384 251.872 90.9467 250.528 90.072C249.205 89.1973 248.277 88.024 247.743 86.552L250.528 85.24C250.997 86.2213 251.637 87 252.448 87.576C253.28 88.152 254.197 88.44 255.2 88.44C256.053 88.44 256.746 88.248 257.28 87.864C257.813 87.48 258.08 86.9573 258.08 86.296C258.08 85.8693 257.962 85.528 257.728 85.272C257.493 84.9947 257.194 84.7707 256.832 84.6C256.49 84.4293 256.138 84.3013 255.776 84.216L253.056 83.448C251.562 83.0213 250.442 82.3813 249.696 81.528C248.97 80.6533 248.608 79.64 248.608 78.488C248.608 77.4427 248.874 76.536 249.408 75.768C249.941 74.9787 250.677 74.3707 251.616 73.944C252.554 73.5173 253.61 73.304 254.784 73.304C256.362 73.304 257.77 73.6987 259.008 74.488C260.245 75.256 261.12 76.3333 261.632 77.72L258.848 79.032C258.506 78.2 257.962 77.5387 257.216 77.048C256.49 76.5573 255.669 76.312 254.752 76.312C253.962 76.312 253.333 76.504 252.864 76.888C252.394 77.2507 252.16 77.7307 252.16 78.328C252.16 78.7333 252.266 79.0747 252.48 79.352C252.693 79.608 252.97 79.8213 253.312 79.992C253.653 80.1413 254.005 80.2693 254.368 80.376L257.184 81.208C258.613 81.6133 259.712 82.2533 260.48 83.128C261.248 83.9813 261.632 85.0053 261.632 86.2C261.632 87.224 261.354 88.1307 260.8 88.92C260.266 89.688 259.52 90.296 258.56 90.744C257.6 91.1707 256.48 91.384 255.2 91.384ZM271.575 91.384C269.804 91.384 268.247 90.9467 266.903 90.072C265.58 89.1973 264.652 88.024 264.118 86.552L266.903 85.24C267.372 86.2213 268.012 87 268.823 87.576C269.655 88.152 270.572 88.44 271.575 88.44C272.428 88.44 273.121 88.248 273.655 87.864C274.188 87.48 274.455 86.9573 274.455 86.296C274.455 85.8693 274.337 85.528 274.103 85.272C273.868 84.9947 273.569 84.7707 273.207 84.6C272.865 84.4293 272.513 84.3013 272.151 84.216L269.431 83.448C267.937 83.0213 266.817 82.3813 266.071 81.528C265.345 80.6533 264.983 79.64 264.983 78.488C264.983 77.4427 265.249 76.536 265.783 75.768C266.316 74.9787 267.052 74.3707 267.991 73.944C268.929 73.5173 269.985 73.304 271.159 73.304C272.737 73.304 274.145 73.6987 275.383 74.488C276.62 75.256 277.495 76.3333 278.007 77.72L275.223 79.032C274.881 78.2 274.337 77.5387 273.591 77.048C272.865 76.5573 272.044 76.312 271.127 76.312C270.337 76.312 269.708 76.504 269.239 76.888C268.769 77.2507 268.535 77.7307 268.535 78.328C268.535 78.7333 268.641 79.0747 268.855 79.352C269.068 79.608 269.345 79.8213 269.687 79.992C270.028 80.1413 270.38 80.2693 270.743 80.376L273.559 81.208C274.988 81.6133 276.087 82.2533 276.855 83.128C277.623 83.9813 278.007 85.0053 278.007 86.2C278.007 87.224 277.729 88.1307 277.175 88.92C276.641 89.688 275.895 90.296 274.935 90.744C273.975 91.1707 272.855 91.384 271.575 91.384ZM289.902 91.384C288.238 91.384 286.712 90.9893 285.326 90.2C283.96 89.4107 282.872 88.3333 282.062 86.968C281.251 85.6027 280.846 84.056 280.846 82.328C280.846 80.5787 281.251 79.032 282.062 77.688C282.872 76.3227 283.96 75.256 285.326 74.488C286.691 73.6987 288.216 73.304 289.902 73.304C291.608 73.304 293.134 73.6987 294.478 74.488C295.843 75.256 296.92 76.3227 297.71 77.688C298.52 79.032 298.926 80.5787 298.926 82.328C298.926 84.0773 298.52 85.6347 297.71 87C296.899 88.3653 295.811 89.4427 294.446 90.232C293.08 91 291.566 91.384 289.902 91.384ZM289.902 88.024C290.926 88.024 291.832 87.7787 292.622 87.288C293.411 86.7973 294.03 86.1253 294.478 85.272C294.947 84.3973 295.182 83.416 295.182 82.328C295.182 81.24 294.947 80.2693 294.478 79.416C294.03 78.5627 293.411 77.8907 292.622 77.4C291.832 76.9093 290.926 76.664 289.902 76.664C288.899 76.664 287.992 76.9093 287.182 77.4C286.392 77.8907 285.763 78.5627 285.294 79.416C284.846 80.2693 284.622 81.24 284.622 82.328C284.622 83.416 284.846 84.3973 285.294 85.272C285.763 86.1253 286.392 86.7973 287.182 87.288C287.992 87.7787 288.899 88.024 289.902 88.024ZM308.856 91.384C307.085 91.384 305.528 90.9467 304.184 90.072C302.861 89.1973 301.933 88.024 301.4 86.552L304.184 85.24C304.653 86.2213 305.293 87 306.104 87.576C306.936 88.152 307.853 88.44 308.856 88.44C309.709 88.44 310.402 88.248 310.936 87.864C311.469 87.48 311.736 86.9573 311.736 86.296C311.736 85.8693 311.618 85.528 311.384 85.272C311.149 84.9947 310.85 84.7707 310.488 84.6C310.146 84.4293 309.794 84.3013 309.432 84.216L306.712 83.448C305.218 83.0213 304.098 82.3813 303.352 81.528C302.626 80.6533 302.264 79.64 302.264 78.488C302.264 77.4427 302.53 76.536 303.064 75.768C303.597 74.9787 304.333 74.3707 305.272 73.944C306.21 73.5173 307.266 73.304 308.44 73.304C310.018 73.304 311.426 73.6987 312.664 74.488C313.901 75.256 314.776 76.3333 315.288 77.72L312.504 79.032C312.162 78.2 311.618 77.5387 310.872 77.048C310.146 76.5573 309.325 76.312 308.408 76.312C307.618 76.312 306.989 76.504 306.52 76.888C306.05 77.2507 305.816 77.7307 305.816 78.328C305.816 78.7333 305.922 79.0747 306.136 79.352C306.349 79.608 306.626 79.8213 306.968 79.992C307.309 80.1413 307.661 80.2693 308.024 80.376L310.84 81.208C312.269 81.6133 313.368 82.2533 314.136 83.128C314.904 83.9813 315.288 85.0053 315.288 86.2C315.288 87.224 315.01 88.1307 314.456 88.92C313.922 89.688 313.176 90.296 312.216 90.744C311.256 91.1707 310.136 91.384 308.856 91.384ZM47.296 131.384C46.1227 131.384 45.088 131.181 44.192 130.776C43.3173 130.349 42.6347 129.773 42.144 129.048C41.6533 128.301 41.408 127.427 41.408 126.424C41.408 125.485 41.6107 124.643 42.016 123.896C42.4427 123.149 43.0933 122.52 43.968 122.008C44.8427 121.496 45.9413 121.133 47.264 120.92L53.28 119.928V122.776L47.968 123.704C47.008 123.875 46.304 124.184 45.856 124.632C45.408 125.059 45.184 125.613 45.184 126.296C45.184 126.957 45.4293 127.501 45.92 127.928C46.432 128.333 47.0827 128.536 47.872 128.536C48.8533 128.536 49.7067 128.323 50.432 127.896C51.1787 127.469 51.7547 126.904 52.16 126.2C52.5653 125.475 52.768 124.675 52.768 123.8V119.352C52.768 118.499 52.448 117.805 51.808 117.272C51.1893 116.717 50.3573 116.44 49.312 116.44C48.352 116.44 47.5093 116.696 46.784 117.208C46.08 117.699 45.5573 118.339 45.216 119.128L42.208 117.624C42.528 116.771 43.0507 116.024 43.776 115.384C44.5013 114.723 45.344 114.211 46.304 113.848C47.2853 113.485 48.32 113.304 49.408 113.304C50.7733 113.304 51.9787 113.56 53.024 114.072C54.0907 114.584 54.912 115.299 55.488 116.216C56.0853 117.112 56.384 118.157 56.384 119.352V131H52.928V127.864L53.664 127.96C53.2587 128.664 52.736 129.272 52.096 129.784C51.4773 130.296 50.7627 130.691 49.952 130.968C49.1627 131.245 48.2773 131.384 47.296 131.384ZM60.612 131V113.688H64.068V117.176L63.748 116.664C64.132 115.533 64.7507 114.723 65.604 114.232C66.4573 113.72 67.4813 113.464 68.676 113.464H69.732V116.76H68.228C67.0333 116.76 66.0627 117.133 65.316 117.88C64.5907 118.605 64.228 119.651 64.228 121.016V131H60.612ZM80.0063 131.192C78.1929 131.192 76.7849 130.68 75.7823 129.656C74.7796 128.632 74.2783 127.192 74.2783 125.336V116.952H71.2383V113.688H71.7183C72.5289 113.688 73.1583 113.453 73.6063 112.984C74.0543 112.515 74.2783 111.875 74.2783 111.064V109.72H77.8943V113.688H81.8303V116.952H77.8943V125.176C77.8943 125.773 77.9903 126.285 78.1823 126.712C78.3743 127.117 78.6836 127.437 79.1103 127.672C79.5369 127.885 80.0916 127.992 80.7743 127.992C80.9449 127.992 81.1369 127.981 81.3503 127.96C81.5636 127.939 81.7663 127.917 81.9583 127.896V131C81.6596 131.043 81.3289 131.085 80.9663 131.128C80.6036 131.171 80.2836 131.192 80.0063 131.192ZM85.487 131V113.688H89.103V131H85.487ZM85.487 111.32V107.16H89.103V111.32H85.487ZM101.683 138.04C100.424 138.04 99.2614 137.837 98.1948 137.432C97.1281 137.027 96.2108 136.461 95.4427 135.736C94.6748 135.032 94.0988 134.2 93.7148 133.24L97.0428 131.864C97.3414 132.675 97.8854 133.347 98.6748 133.88C99.4854 134.413 100.477 134.68 101.651 134.68C102.568 134.68 103.389 134.499 104.115 134.136C104.84 133.795 105.416 133.283 105.843 132.6C106.269 131.939 106.483 131.139 106.483 130.2V126.296L107.123 127.032C106.525 128.141 105.693 128.984 104.627 129.56C103.581 130.136 102.397 130.424 101.075 130.424C99.4748 130.424 98.0348 130.051 96.7548 129.304C95.4748 128.557 94.4614 127.533 93.7148 126.232C92.9894 124.931 92.6268 123.469 92.6268 121.848C92.6268 120.205 92.9894 118.744 93.7148 117.464C94.4614 116.184 95.4641 115.171 96.7228 114.424C97.9814 113.677 99.4214 113.304 101.043 113.304C102.365 113.304 103.539 113.592 104.563 114.168C105.608 114.723 106.461 115.533 107.123 116.6L106.643 117.496V113.688H110.067V130.2C110.067 131.693 109.704 133.027 108.979 134.2C108.275 135.395 107.293 136.333 106.035 137.016C104.776 137.699 103.325 138.04 101.683 138.04ZM101.491 127.064C102.451 127.064 103.304 126.84 104.051 126.392C104.797 125.923 105.384 125.304 105.811 124.536C106.259 123.747 106.483 122.861 106.483 121.88C106.483 120.899 106.259 120.013 105.811 119.224C105.363 118.435 104.765 117.816 104.019 117.368C103.272 116.899 102.429 116.664 101.491 116.664C100.509 116.664 99.6348 116.899 98.8668 117.368C98.0988 117.816 97.4908 118.435 97.0428 119.224C96.6161 119.992 96.4028 120.877 96.4028 121.88C96.4028 122.84 96.6161 123.715 97.0428 124.504C97.4908 125.293 98.0988 125.923 98.8668 126.392C99.6348 126.84 100.509 127.064 101.491 127.064ZM122.652 131.384C120.988 131.384 119.462 130.989 118.076 130.2C116.71 129.411 115.622 128.333 114.812 126.968C114.001 125.603 113.596 124.056 113.596 122.328C113.596 120.579 114.001 119.032 114.812 117.688C115.622 116.323 116.71 115.256 118.076 114.488C119.441 113.699 120.966 113.304 122.652 113.304C124.358 113.304 125.884 113.699 127.228 114.488C128.593 115.256 129.67 116.323 130.46 117.688C131.27 119.032 131.676 120.579 131.676 122.328C131.676 124.077 131.27 125.635 130.46 127C129.649 128.365 128.561 129.443 127.196 130.232C125.83 131 124.316 131.384 122.652 131.384ZM122.652 128.024C123.676 128.024 124.582 127.779 125.372 127.288C126.161 126.797 126.78 126.125 127.228 125.272C127.697 124.397 127.932 123.416 127.932 122.328C127.932 121.24 127.697 120.269 127.228 119.416C126.78 118.563 126.161 117.891 125.372 117.4C124.582 116.909 123.676 116.664 122.652 116.664C121.649 116.664 120.742 116.909 119.932 117.4C119.142 117.891 118.513 118.563 118.044 119.416C117.596 120.269 117.372 121.24 117.372 122.328C117.372 123.416 117.596 124.397 118.044 125.272C118.513 126.125 119.142 126.797 119.932 127.288C120.742 127.779 121.649 128.024 122.652 128.024ZM148.8 131.384C147.136 131.384 145.642 130.989 144.32 130.2C143.018 129.389 141.984 128.301 141.216 126.936C140.469 125.571 140.096 124.035 140.096 122.328C140.096 120.621 140.48 119.085 141.248 117.72C142.016 116.355 143.05 115.277 144.352 114.488C145.653 113.699 147.125 113.304 148.768 113.304C150.154 113.304 151.381 113.581 152.448 114.136C153.514 114.691 154.357 115.459 154.976 116.44L154.432 117.272V106.776H158.016V131H154.592V127.48L155.008 128.152C154.41 129.197 153.557 129.997 152.448 130.552C151.338 131.107 150.122 131.384 148.8 131.384ZM149.152 128.024C150.154 128.024 151.05 127.779 151.84 127.288C152.65 126.797 153.28 126.125 153.728 125.272C154.197 124.397 154.432 123.416 154.432 122.328C154.432 121.24 154.197 120.269 153.728 119.416C153.28 118.563 152.65 117.891 151.84 117.4C151.05 116.909 150.154 116.664 149.152 116.664C148.149 116.664 147.242 116.909 146.432 117.4C145.621 117.891 144.992 118.563 144.544 119.416C144.096 120.269 143.872 121.24 143.872 122.328C143.872 123.416 144.096 124.397 144.544 125.272C144.992 126.125 145.61 126.797 146.4 127.288C147.21 127.779 148.128 128.024 149.152 128.024ZM170.365 131.384C168.637 131.384 167.101 130.989 165.757 130.2C164.434 129.389 163.4 128.301 162.653 126.936C161.906 125.549 161.533 124.003 161.533 122.296C161.533 120.547 161.906 119 162.653 117.656C163.421 116.312 164.445 115.256 165.725 114.488C167.005 113.699 168.456 113.304 170.077 113.304C171.378 113.304 172.541 113.528 173.565 113.976C174.589 114.424 175.453 115.043 176.157 115.832C176.861 116.6 177.394 117.485 177.757 118.488C178.141 119.491 178.333 120.557 178.333 121.688C178.333 121.965 178.322 122.253 178.301 122.552C178.28 122.851 178.237 123.128 178.173 123.384H164.381V120.504H176.125L174.397 121.816C174.61 120.771 174.536 119.843 174.173 119.032C173.832 118.2 173.298 117.549 172.573 117.08C171.869 116.589 171.037 116.344 170.077 116.344C169.117 116.344 168.264 116.589 167.517 117.08C166.77 117.549 166.194 118.232 165.789 119.128C165.384 120.003 165.224 121.069 165.309 122.328C165.202 123.501 165.362 124.525 165.789 125.4C166.237 126.275 166.856 126.957 167.645 127.448C168.456 127.939 169.373 128.184 170.397 128.184C171.442 128.184 172.328 127.949 173.053 127.48C173.8 127.011 174.386 126.403 174.813 125.656L177.757 127.096C177.416 127.907 176.882 128.643 176.157 129.304C175.453 129.944 174.6 130.456 173.597 130.84C172.616 131.203 171.538 131.384 170.365 131.384ZM187.456 131V113.688H191.072V131H187.456ZM187.456 111.32V107.16H191.072V111.32H187.456ZM195.299 131V113.688H198.756V117.08L198.34 116.632C198.766 115.544 199.449 114.723 200.388 114.168C201.326 113.592 202.414 113.304 203.652 113.304C204.932 113.304 206.062 113.581 207.044 114.136C208.025 114.691 208.793 115.459 209.347 116.44C209.902 117.421 210.18 118.552 210.18 119.832V131H206.596V120.792C206.596 119.917 206.436 119.181 206.116 118.584C205.796 117.965 205.337 117.496 204.74 117.176C204.164 116.835 203.502 116.664 202.756 116.664C202.009 116.664 201.337 116.835 200.74 117.176C200.164 117.496 199.716 117.965 199.396 118.584C199.076 119.203 198.916 119.939 198.916 120.792V131H195.299ZM221.538 131.192C219.724 131.192 218.316 130.68 217.314 129.656C216.311 128.632 215.81 127.192 215.81 125.336V116.952H212.77V113.688H213.25C214.06 113.688 214.69 113.453 215.138 112.984C215.586 112.515 215.81 111.875 215.81 111.064V109.72H219.426V113.688H223.362V116.952H219.426V125.176C219.426 125.773 219.522 126.285 219.714 126.712C219.906 127.117 220.215 127.437 220.642 127.672C221.068 127.885 221.623 127.992 222.306 127.992C222.476 127.992 222.668 127.981 222.882 127.96C223.095 127.939 223.298 127.917 223.49 127.896V131C223.191 131.043 222.86 131.085 222.498 131.128C222.135 131.171 221.815 131.192 221.538 131.192ZM234.834 131.384C233.106 131.384 231.57 130.989 230.226 130.2C228.903 129.389 227.868 128.301 227.122 126.936C226.375 125.549 226.002 124.003 226.002 122.296C226.002 120.547 226.375 119 227.122 117.656C227.89 116.312 228.914 115.256 230.194 114.488C231.474 113.699 232.924 113.304 234.546 113.304C235.847 113.304 237.01 113.528 238.034 113.976C239.058 114.424 239.922 115.043 240.626 115.832C241.33 116.6 241.863 117.485 242.226 118.488C242.61 119.491 242.802 120.557 242.802 121.688C242.802 121.965 242.791 122.253 242.77 122.552C242.748 122.851 242.706 123.128 242.642 123.384H228.85V120.504H240.594L238.866 121.816C239.079 120.771 239.004 119.843 238.642 119.032C238.3 118.2 237.767 117.549 237.042 117.08C236.338 116.589 235.506 116.344 234.546 116.344C233.586 116.344 232.732 116.589 231.986 117.08C231.239 117.549 230.663 118.232 230.258 119.128C229.852 120.003 229.692 121.069 229.778 122.328C229.671 123.501 229.831 124.525 230.258 125.4C230.706 126.275 231.324 126.957 232.114 127.448C232.924 127.939 233.842 128.184 234.866 128.184C235.911 128.184 236.796 127.949 237.522 127.48C238.268 127.011 238.855 126.403 239.282 125.656L242.226 127.096C241.884 127.907 241.351 128.643 240.626 129.304C239.922 129.944 239.068 130.456 238.066 130.84C237.084 131.203 236.007 131.384 234.834 131.384ZM246.331 131V113.688H249.787V117.176L249.467 116.664C249.851 115.533 250.469 114.723 251.323 114.232C252.176 113.72 253.2 113.464 254.395 113.464H255.451V116.76H253.947C252.752 116.76 251.781 117.133 251.035 117.88C250.309 118.605 249.947 119.651 249.947 121.016V131H246.331ZM266.053 131.384C264.325 131.384 262.789 130.989 261.445 130.2C260.122 129.389 259.087 128.301 258.341 126.936C257.594 125.549 257.221 124.003 257.221 122.296C257.221 120.547 257.594 119 258.341 117.656C259.109 116.312 260.133 115.256 261.413 114.488C262.693 113.699 264.143 113.304 265.765 113.304C267.066 113.304 268.229 113.528 269.253 113.976C270.277 114.424 271.141 115.043 271.845 115.832C272.549 116.6 273.082 117.485 273.444 118.488C273.829 119.491 274.021 120.557 274.021 121.688C274.021 121.965 274.01 122.253 273.989 122.552C273.967 122.851 273.925 123.128 273.861 123.384H260.069V120.504H271.812L270.085 121.816C270.298 120.771 270.223 119.843 269.861 119.032C269.519 118.2 268.986 117.549 268.261 117.08C267.557 116.589 266.725 116.344 265.765 116.344C264.805 116.344 263.951 116.589 263.205 117.08C262.458 117.549 261.882 118.232 261.477 119.128C261.071 120.003 260.911 121.069 260.997 122.328C260.89 123.501 261.05 124.525 261.477 125.4C261.925 126.275 262.543 126.957 263.333 127.448C264.143 127.939 265.061 128.184 266.085 128.184C267.13 128.184 268.015 127.949 268.741 127.48C269.487 127.011 270.074 126.403 270.501 125.656L273.444 127.096C273.103 127.907 272.57 128.643 271.845 129.304C271.141 129.944 270.287 130.456 269.285 130.84C268.303 131.203 267.226 131.384 266.053 131.384ZM283.95 131.384C282.179 131.384 280.622 130.947 279.278 130.072C277.955 129.197 277.027 128.024 276.493 126.552L279.278 125.24C279.747 126.221 280.387 127 281.198 127.576C282.03 128.152 282.947 128.44 283.95 128.44C284.803 128.44 285.496 128.248 286.03 127.864C286.563 127.48 286.83 126.957 286.83 126.296C286.83 125.869 286.712 125.528 286.478 125.272C286.243 124.995 285.944 124.771 285.582 124.6C285.24 124.429 284.888 124.301 284.526 124.216L281.806 123.448C280.312 123.021 279.192 122.381 278.446 121.528C277.72 120.653 277.358 119.64 277.358 118.488C277.358 117.443 277.624 116.536 278.158 115.768C278.691 114.979 279.427 114.371 280.366 113.944C281.304 113.517 282.36 113.304 283.534 113.304C285.112 113.304 286.52 113.699 287.758 114.488C288.995 115.256 289.87 116.333 290.382 117.72L287.598 119.032C287.256 118.2 286.712 117.539 285.966 117.048C285.24 116.557 284.419 116.312 283.502 116.312C282.712 116.312 282.083 116.504 281.614 116.888C281.144 117.251 280.91 117.731 280.91 118.328C280.91 118.733 281.016 119.075 281.23 119.352C281.443 119.608 281.72 119.821 282.062 119.992C282.403 120.141 282.755 120.269 283.118 120.376L285.934 121.208C287.363 121.613 288.462 122.253 289.23 123.128C289.998 123.981 290.382 125.005 290.382 126.2C290.382 127.224 290.104 128.131 289.55 128.92C289.016 129.688 288.27 130.296 287.31 130.744C286.35 131.171 285.23 131.384 283.95 131.384ZM300.325 131.384C298.554 131.384 296.997 130.947 295.653 130.072C294.33 129.197 293.402 128.024 292.868 126.552L295.653 125.24C296.122 126.221 296.762 127 297.573 127.576C298.405 128.152 299.322 128.44 300.325 128.44C301.178 128.44 301.871 128.248 302.405 127.864C302.938 127.48 303.205 126.957 303.205 126.296C303.205 125.869 303.087 125.528 302.853 125.272C302.618 124.995 302.319 124.771 301.957 124.6C301.615 124.429 301.263 124.301 300.901 124.216L298.181 123.448C296.687 123.021 295.567 122.381 294.821 121.528C294.095 120.653 293.733 119.64 293.733 118.488C293.733 117.443 293.999 116.536 294.533 115.768C295.066 114.979 295.802 114.371 296.741 113.944C297.679 113.517 298.735 113.304 299.909 113.304C301.487 113.304 302.895 113.699 304.133 114.488C305.37 115.256 306.245 116.333 306.757 117.72L303.973 119.032C303.631 118.2 303.087 117.539 302.341 117.048C301.615 116.557 300.794 116.312 299.877 116.312C299.087 116.312 298.458 116.504 297.989 116.888C297.519 117.251 297.285 117.731 297.285 118.328C297.285 118.733 297.391 119.075 297.605 119.352C297.818 119.608 298.095 119.821 298.437 119.992C298.778 120.141 299.13 120.269 299.493 120.376L302.309 121.208C303.738 121.613 304.837 122.253 305.605 123.128C306.373 123.981 306.757 125.005 306.757 126.2C306.757 127.224 306.479 128.131 305.925 128.92C305.391 129.688 304.645 130.296 303.685 130.744C302.725 131.171 301.605 131.384 300.325 131.384ZM318.428 131.384C316.7 131.384 315.164 130.989 313.82 130.2C312.497 129.389 311.462 128.301 310.716 126.936C309.969 125.549 309.596 124.003 309.596 122.296C309.596 120.547 309.969 119 310.716 117.656C311.484 116.312 312.508 115.256 313.788 114.488C315.068 113.699 316.518 113.304 318.14 113.304C319.441 113.304 320.604 113.528 321.628 113.976C322.652 114.424 323.516 115.043 324.22 115.832C324.924 116.6 325.457 117.485 325.819 118.488C326.204 119.491 326.396 120.557 326.396 121.688C326.396 121.965 326.385 122.253 326.364 122.552C326.342 122.851 326.3 123.128 326.236 123.384H312.444V120.504H324.188L322.46 121.816C322.673 120.771 322.598 119.843 322.236 119.032C321.894 118.2 321.361 117.549 320.636 117.08C319.932 116.589 319.1 116.344 318.14 116.344C317.18 116.344 316.326 116.589 315.58 117.08C314.833 117.549 314.257 118.232 313.852 119.128C313.446 120.003 313.286 121.069 313.372 122.328C313.265 123.501 313.425 124.525 313.852 125.4C314.3 126.275 314.918 126.957 315.708 127.448C316.518 127.939 317.436 128.184 318.46 128.184C319.505 128.184 320.39 127.949 321.116 127.48C321.862 127.011 322.449 126.403 322.876 125.656L325.819 127.096C325.478 127.907 324.945 128.643 324.22 129.304C323.516 129.944 322.662 130.456 321.66 130.84C320.678 131.203 319.601 131.384 318.428 131.384ZM42.112 171V153.688H45.568V157.08L45.152 156.632C45.5787 155.544 46.2613 154.723 47.2 154.168C48.1387 153.592 49.2267 153.304 50.464 153.304C51.744 153.304 52.8747 153.581 53.856 154.136C54.8373 154.691 55.6053 155.459 56.16 156.44C56.7147 157.421 56.992 158.552 56.992 159.832V171H53.408V160.792C53.408 159.917 53.248 159.181 52.928 158.584C52.608 157.965 52.1493 157.496 51.552 157.176C50.976 156.835 50.3147 156.664 49.568 156.664C48.8213 156.664 48.1493 156.835 47.552 157.176C46.976 157.496 46.528 157.965 46.208 158.584C45.888 159.203 45.728 159.939 45.728 160.792V171H42.112ZM66.046 171.384C64.8727 171.384 63.838 171.181 62.942 170.776C62.0673 170.349 61.3847 169.773 60.894 169.048C60.4033 168.301 60.158 167.427 60.158 166.424C60.158 165.485 60.3607 164.643 60.766 163.896C61.1927 163.149 61.8433 162.52 62.718 162.008C63.5927 161.496 64.6913 161.133 66.014 160.92L72.03 159.928V162.776L66.718 163.704C65.758 163.875 65.054 164.184 64.606 164.632C64.158 165.059 63.934 165.613 63.934 166.296C63.934 166.957 64.1793 167.501 64.67 167.928C65.182 168.333 65.8327 168.536 66.622 168.536C67.6033 168.536 68.4567 168.323 69.182 167.896C69.9287 167.469 70.5047 166.904 70.91 166.2C71.3153 165.475 71.518 164.675 71.518 163.8V159.352C71.518 158.499 71.198 157.805 70.558 157.272C69.9393 156.717 69.1073 156.44 68.062 156.44C67.102 156.44 66.2593 156.696 65.534 157.208C64.83 157.699 64.3073 158.339 63.966 159.128L60.958 157.624C61.278 156.771 61.8007 156.024 62.526 155.384C63.2513 154.723 64.094 154.211 65.054 153.848C66.0353 153.485 67.07 153.304 68.158 153.304C69.5233 153.304 70.7287 153.56 71.774 154.072C72.8407 154.584 73.662 155.299 74.238 156.216C74.8353 157.112 75.134 158.157 75.134 159.352V171H71.678V167.864L72.414 167.96C72.0087 168.664 71.486 169.272 70.846 169.784C70.2273 170.296 69.5127 170.691 68.702 170.968C67.9127 171.245 67.0273 171.384 66.046 171.384ZM91.3558 171.384C89.5851 171.384 88.0278 170.947 86.6838 170.072C85.3611 169.197 84.4331 168.024 83.8997 166.552L86.6838 165.24C87.1531 166.221 87.7931 167 88.6038 167.576C89.4358 168.152 90.3531 168.44 91.3558 168.44C92.2091 168.44 92.9024 168.248 93.4358 167.864C93.9691 167.48 94.2358 166.957 94.2358 166.296C94.2358 165.869 94.1184 165.528 93.8838 165.272C93.6491 164.995 93.3504 164.771 92.9878 164.6C92.6464 164.429 92.2944 164.301 91.9318 164.216L89.2118 163.448C87.7184 163.021 86.5984 162.381 85.8518 161.528C85.1264 160.653 84.7638 159.64 84.7638 158.488C84.7638 157.443 85.0304 156.536 85.5638 155.768C86.0971 154.979 86.8331 154.371 87.7718 153.944C88.7104 153.517 89.7664 153.304 90.9398 153.304C92.5184 153.304 93.9264 153.699 95.1638 154.488C96.4011 155.256 97.2758 156.333 97.7878 157.72L95.0038 159.032C94.6624 158.2 94.1184 157.539 93.3718 157.048C92.6464 156.557 91.8251 156.312 90.9078 156.312C90.1184 156.312 89.4891 156.504 89.0198 156.888C88.5504 157.251 88.3158 157.731 88.3158 158.328C88.3158 158.733 88.4224 159.075 88.6358 159.352C88.8491 159.608 89.1264 159.821 89.4678 159.992C89.8091 160.141 90.1611 160.269 90.5238 160.376L93.3398 161.208C94.7691 161.613 95.8678 162.253 96.6358 163.128C97.4038 163.981 97.7878 165.005 97.7878 166.2C97.7878 167.224 97.5104 168.131 96.9558 168.92C96.4224 169.688 95.6758 170.296 94.7158 170.744C93.7558 171.171 92.6358 171.384 91.3558 171.384ZM107.507 171.384C106.205 171.384 105.064 171.096 104.083 170.52C103.101 169.923 102.333 169.101 101.779 168.056C101.245 166.989 100.979 165.763 100.979 164.376V153.688H104.595V164.056C104.595 164.845 104.755 165.539 105.075 166.136C105.395 166.733 105.843 167.203 106.419 167.544C106.995 167.864 107.656 168.024 108.403 168.024C109.171 168.024 109.843 167.853 110.419 167.512C110.995 167.171 111.443 166.691 111.763 166.072C112.104 165.453 112.275 164.728 112.275 163.896V153.688H115.859V171H112.435V167.608L112.819 168.056C112.413 169.123 111.741 169.944 110.803 170.52C109.864 171.096 108.765 171.384 107.507 171.384ZM125.265 171.384C124.091 171.384 123.057 171.181 122.161 170.776C121.286 170.349 120.603 169.773 120.113 169.048C119.622 168.301 119.377 167.427 119.377 166.424C119.377 165.485 119.579 164.643 119.985 163.896C120.411 163.149 121.062 162.52 121.937 162.008C122.811 161.496 123.91 161.133 125.233 160.92L131.249 159.928V162.776L125.937 163.704C124.977 163.875 124.273 164.184 123.825 164.632C123.377 165.059 123.153 165.613 123.153 166.296C123.153 166.957 123.398 167.501 123.889 167.928C124.401 168.333 125.051 168.536 125.841 168.536C126.822 168.536 127.675 168.323 128.401 167.896C129.147 167.469 129.723 166.904 130.129 166.2C130.534 165.475 130.737 164.675 130.737 163.8V159.352C130.737 158.499 130.417 157.805 129.777 157.272C129.158 156.717 128.326 156.44 127.281 156.44C126.321 156.44 125.478 156.696 124.753 157.208C124.049 157.699 123.526 158.339 123.185 159.128L120.177 157.624C120.497 156.771 121.019 156.024 121.745 155.384C122.47 154.723 123.313 154.211 124.273 153.848C125.254 153.485 126.289 153.304 127.377 153.304C128.742 153.304 129.947 153.56 130.993 154.072C132.059 154.584 132.881 155.299 133.457 156.216C134.054 157.112 134.353 158.157 134.353 159.352V171H130.897V167.864L131.633 167.96C131.227 168.664 130.705 169.272 130.065 169.784C129.446 170.296 128.731 170.691 127.921 170.968C127.131 171.245 126.246 171.384 125.265 171.384ZM152.399 171.384C150.671 171.384 149.135 170.989 147.791 170.2C146.468 169.389 145.412 168.301 144.623 166.936C143.855 165.571 143.471 164.024 143.471 162.296C143.471 160.589 143.855 159.053 144.623 157.688C145.391 156.323 146.447 155.256 147.791 154.488C149.135 153.699 150.671 153.304 152.399 153.304C153.572 153.304 154.671 153.517 155.695 153.944C156.719 154.349 157.604 154.915 158.351 155.64C159.119 156.365 159.684 157.208 160.047 158.168L156.879 159.64C156.516 158.744 155.929 158.029 155.119 157.496C154.329 156.941 153.423 156.664 152.399 156.664C151.417 156.664 150.532 156.909 149.743 157.4C148.975 157.869 148.367 158.541 147.919 159.416C147.471 160.269 147.247 161.24 147.247 162.328C147.247 163.416 147.471 164.397 147.919 165.272C148.367 166.125 148.975 166.797 149.743 167.288C150.532 167.779 151.417 168.024 152.399 168.024C153.444 168.024 154.351 167.757 155.119 167.224C155.908 166.669 156.495 165.933 156.879 165.016L160.047 166.52C159.705 167.437 159.151 168.269 158.383 169.016C157.636 169.741 156.751 170.317 155.727 170.744C154.703 171.171 153.593 171.384 152.399 171.384ZM168.609 171.384C167.435 171.384 166.401 171.181 165.505 170.776C164.63 170.349 163.947 169.773 163.457 169.048C162.966 168.301 162.721 167.427 162.721 166.424C162.721 165.485 162.923 164.643 163.329 163.896C163.755 163.149 164.406 162.52 165.281 162.008C166.155 161.496 167.254 161.133 168.577 160.92L174.593 159.928V162.776L169.281 163.704C168.321 163.875 167.617 164.184 167.169 164.632C166.721 165.059 166.497 165.613 166.497 166.296C166.497 166.957 166.742 167.501 167.233 167.928C167.745 168.333 168.395 168.536 169.185 168.536C170.166 168.536 171.019 168.323 171.745 167.896C172.491 167.469 173.067 166.904 173.473 166.2C173.878 165.475 174.081 164.675 174.081 163.8V159.352C174.081 158.499 173.761 157.805 173.121 157.272C172.502 156.717 171.67 156.44 170.625 156.44C169.665 156.44 168.822 156.696 168.097 157.208C167.393 157.699 166.87 158.339 166.529 159.128L163.521 157.624C163.841 156.771 164.363 156.024 165.089 155.384C165.814 154.723 166.657 154.211 167.617 153.848C168.598 153.485 169.633 153.304 170.72 153.304C172.086 153.304 173.291 153.56 174.337 154.072C175.403 154.584 176.225 155.299 176.801 156.216C177.398 157.112 177.697 158.157 177.697 159.352V171H174.241V167.864L174.977 167.96C174.571 168.664 174.049 169.272 173.409 169.784C172.79 170.296 172.075 170.691 171.265 170.968C170.475 171.245 169.59 171.384 168.609 171.384ZM181.924 171V153.688H185.541V171H181.924ZM181.924 151.32V147.16H185.541V151.32H181.924ZM188.04 171L194.088 162.328L188.04 153.688H192.296L197.256 160.92H195.208L200.168 153.688H204.424L198.344 162.328L204.392 171H200.136L195.24 163.736H197.224L192.296 171H188.04ZM211.765 171.384C210.591 171.384 209.557 171.181 208.661 170.776C207.786 170.349 207.103 169.773 206.613 169.048C206.122 168.301 205.877 167.427 205.877 166.424C205.877 165.485 206.079 164.643 206.485 163.896C206.911 163.149 207.562 162.52 208.437 162.008C209.311 161.496 210.41 161.133 211.733 160.92L217.749 159.928V162.776L212.437 163.704C211.477 163.875 210.773 164.184 210.325 164.632C209.877 165.059 209.653 165.613 209.653 166.296C209.653 166.957 209.898 167.501 210.389 167.928C210.901 168.333 211.551 168.536 212.341 168.536C213.322 168.536 214.175 168.323 214.901 167.896C215.647 167.469 216.223 166.904 216.629 166.2C217.034 165.475 217.237 164.675 217.237 163.8V159.352C217.237 158.499 216.917 157.805 216.277 157.272C215.658 156.717 214.826 156.44 213.781 156.44C212.821 156.44 211.978 156.696 211.253 157.208C210.549 157.699 210.026 158.339 209.685 159.128L206.677 157.624C206.997 156.771 207.519 156.024 208.245 155.384C208.97 154.723 209.813 154.211 210.773 153.848C211.754 153.485 212.789 153.304 213.877 153.304C215.242 153.304 216.447 153.56 217.493 154.072C218.559 154.584 219.381 155.299 219.957 156.216C220.554 157.112 220.853 158.157 220.853 159.352V171H217.397V167.864L218.133 167.96C217.727 168.664 217.205 169.272 216.565 169.784C215.946 170.296 215.231 170.691 214.421 170.968C213.631 171.245 212.746 171.384 211.765 171.384ZM238.675 171.384C237.011 171.384 235.517 170.989 234.195 170.2C232.893 169.389 231.859 168.301 231.091 166.936C230.344 165.571 229.971 164.035 229.971 162.328C229.971 160.621 230.355 159.085 231.123 157.72C231.891 156.355 232.925 155.277 234.227 154.488C235.528 153.699 237 153.304 238.643 153.304C240.029 153.304 241.256 153.581 242.323 154.136C243.389 154.691 244.232 155.459 244.851 156.44L244.307 157.272V146.776H247.891V171H244.467V167.48L244.883 168.152C244.285 169.197 243.432 169.997 242.323 170.552C241.213 171.107 239.997 171.384 238.675 171.384ZM239.027 168.024C240.029 168.024 240.925 167.779 241.715 167.288C242.525 166.797 243.155 166.125 243.603 165.272C244.072 164.397 244.307 163.416 244.307 162.328C244.307 161.24 244.072 160.269 243.603 159.416C243.155 158.563 242.525 157.891 241.715 157.4C240.925 156.909 240.029 156.664 239.027 156.664C238.024 156.664 237.117 156.909 236.307 157.4C235.496 157.891 234.867 158.563 234.419 159.416C233.971 160.269 233.747 161.24 233.747 162.328C233.747 163.416 233.971 164.397 234.419 165.272C234.867 166.125 235.485 166.797 236.275 167.288C237.085 167.779 238.003 168.024 239.027 168.024ZM260.24 171.384C258.512 171.384 256.976 170.989 255.632 170.2C254.309 169.389 253.275 168.301 252.528 166.936C251.781 165.549 251.408 164.003 251.408 162.296C251.408 160.547 251.781 159 252.528 157.656C253.296 156.312 254.32 155.256 255.6 154.488C256.88 153.699 258.331 153.304 259.952 153.304C261.253 153.304 262.416 153.528 263.44 153.976C264.464 154.424 265.328 155.043 266.032 155.832C266.736 156.6 267.269 157.485 267.632 158.488C268.016 159.491 268.208 160.557 268.208 161.688C268.208 161.965 268.197 162.253 268.176 162.552C268.155 162.851 268.112 163.128 268.048 163.384H254.256V160.504H266L264.272 161.816C264.485 160.771 264.411 159.843 264.048 159.032C263.707 158.2 263.173 157.549 262.448 157.08C261.744 156.589 260.912 156.344 259.952 156.344C258.992 156.344 258.139 156.589 257.392 157.08C256.645 157.549 256.069 158.232 255.664 159.128C255.259 160.003 255.099 161.069 255.184 162.328C255.077 163.501 255.237 164.525 255.664 165.4C256.112 166.275 256.731 166.957 257.52 167.448C258.331 167.939 259.248 168.184 260.272 168.184C261.317 168.184 262.203 167.949 262.928 167.48C263.675 167.011 264.261 166.403 264.688 165.656L267.632 167.096C267.291 167.907 266.757 168.643 266.032 169.304C265.328 169.944 264.475 170.456 263.472 170.84C262.491 171.203 261.413 171.384 260.24 171.384ZM50.24 211.384C48.512 211.384 46.976 210.989 45.632 210.2C44.3093 209.389 43.2747 208.301 42.528 206.936C41.7813 205.549 41.408 204.003 41.408 202.296C41.408 200.547 41.7813 199 42.528 197.656C43.296 196.312 44.32 195.256 45.6 194.488C46.88 193.699 48.3307 193.304 49.952 193.304C51.2533 193.304 52.416 193.528 53.44 193.976C54.464 194.424 55.328 195.043 56.032 195.832C56.736 196.6 57.2693 197.485 57.632 198.488C58.016 199.491 58.208 200.557 58.208 201.688C58.208 201.965 58.1973 202.253 58.176 202.552C58.1547 202.851 58.112 203.128 58.048 203.384H44.256V200.504H56L54.272 201.816C54.4853 200.771 54.4107 199.843 54.048 199.032C53.7067 198.2 53.1733 197.549 52.448 197.08C51.744 196.589 50.912 196.344 49.952 196.344C48.992 196.344 48.1387 196.589 47.392 197.08C46.6453 197.549 46.0693 198.232 45.664 199.128C45.2587 200.003 45.0987 201.069 45.184 202.328C45.0773 203.501 45.2373 204.525 45.664 205.4C46.112 206.275 46.7307 206.957 47.52 207.448C48.3307 207.939 49.248 208.184 50.272 208.184C51.3173 208.184 52.2027 207.949 52.928 207.48C53.6747 207.011 54.2613 206.403 54.688 205.656L57.632 207.096C57.2907 207.907 56.7573 208.643 56.032 209.304C55.328 209.944 54.4747 210.456 53.472 210.84C52.4907 211.203 51.4133 211.384 50.24 211.384ZM61.737 211V193.688H65.193V197.08L64.777 196.632C65.2037 195.544 65.8863 194.723 66.825 194.168C67.7637 193.592 68.8517 193.304 70.089 193.304C71.369 193.304 72.4997 193.581 73.481 194.136C74.4623 194.691 75.2303 195.459 75.785 196.44C76.3397 197.421 76.617 198.552 76.617 199.832V211H73.033V200.792C73.033 199.917 72.873 199.181 72.553 198.584C72.233 197.965 71.7743 197.496 71.177 197.176C70.601 196.835 69.9397 196.664 69.193 196.664C68.4463 196.664 67.7743 196.835 67.177 197.176C66.601 197.496 66.153 197.965 65.833 198.584C65.513 199.203 65.353 199.939 65.353 200.792V211H61.737ZM87.975 211.192C86.1617 211.192 84.7537 210.68 83.751 209.656C82.7483 208.632 82.247 207.192 82.247 205.336V196.952H79.207V193.688H79.687C80.4977 193.688 81.127 193.453 81.575 192.984C82.023 192.515 82.247 191.875 82.247 191.064V189.72H85.863V193.688H89.799V196.952H85.863V205.176C85.863 205.773 85.959 206.285 86.151 206.712C86.343 207.117 86.6523 207.437 87.079 207.672C87.5057 207.885 88.0603 207.992 88.743 207.992C88.9137 207.992 89.1057 207.981 89.319 207.96C89.5323 207.939 89.735 207.917 89.927 207.896V211C89.6283 211.043 89.2977 211.085 88.935 211.128C88.5723 211.171 88.2523 211.192 87.975 211.192ZM93.4557 211V193.688H96.9118V197.176L96.5918 196.664C96.9758 195.533 97.5944 194.723 98.4478 194.232C99.3011 193.72 100.325 193.464 101.52 193.464H102.576V196.76H101.072C99.8771 196.76 98.9064 197.133 98.1598 197.88C97.4344 198.605 97.0718 199.651 97.0718 201.016V211H93.4557ZM110.234 211.384C109.06 211.384 108.026 211.181 107.13 210.776C106.255 210.349 105.572 209.773 105.082 209.048C104.591 208.301 104.346 207.427 104.346 206.424C104.346 205.485 104.548 204.643 104.954 203.896C105.38 203.149 106.031 202.52 106.906 202.008C107.78 201.496 108.879 201.133 110.202 200.92L116.218 199.928V202.776L110.906 203.704C109.946 203.875 109.242 204.184 108.794 204.632C108.346 205.059 108.122 205.613 108.122 206.296C108.122 206.957 108.367 207.501 108.858 207.928C109.37 208.333 110.02 208.536 110.81 208.536C111.791 208.536 112.644 208.323 113.37 207.896C114.116 207.469 114.692 206.904 115.098 206.2C115.503 205.475 115.706 204.675 115.706 203.8V199.352C115.706 198.499 115.386 197.805 114.746 197.272C114.127 196.717 113.295 196.44 112.25 196.44C111.29 196.44 110.447 196.696 109.722 197.208C109.018 197.699 108.495 198.339 108.154 199.128L105.146 197.624C105.466 196.771 105.988 196.024 106.714 195.384C107.439 194.723 108.282 194.211 109.242 193.848C110.223 193.485 111.258 193.304 112.345 193.304C113.711 193.304 114.916 193.56 115.962 194.072C117.028 194.584 117.85 195.299 118.426 196.216C119.023 197.112 119.322 198.157 119.322 199.352V211H115.866V207.864L116.602 207.96C116.196 208.664 115.674 209.272 115.034 209.784C114.415 210.296 113.7 210.691 112.89 210.968C112.1 211.245 111.215 211.384 110.234 211.384ZM131.55 211.384C129.886 211.384 128.392 210.989 127.07 210.2C125.768 209.389 124.734 208.301 123.966 206.936C123.219 205.571 122.846 204.035 122.846 202.328C122.846 200.621 123.23 199.085 123.998 197.72C124.766 196.355 125.8 195.277 127.102 194.488C128.403 193.699 129.875 193.304 131.518 193.304C132.904 193.304 134.131 193.581 135.198 194.136C136.264 194.691 137.107 195.459 137.726 196.44L137.182 197.272V186.776H140.766V211H137.342V207.48L137.758 208.152C137.16 209.197 136.307 209.997 135.198 210.552C134.088 211.107 132.872 211.384 131.55 211.384ZM131.902 208.024C132.904 208.024 133.8 207.779 134.59 207.288C135.4 206.797 136.03 206.125 136.478 205.272C136.947 204.397 137.182 203.416 137.182 202.328C137.182 201.24 136.947 200.269 136.478 199.416C136.03 198.563 135.4 197.891 134.59 197.4C133.8 196.909 132.904 196.664 131.902 196.664C130.899 196.664 129.992 196.909 129.182 197.4C128.371 197.891 127.742 198.563 127.294 199.416C126.846 200.269 126.622 201.24 126.622 202.328C126.622 203.416 126.846 204.397 127.294 205.272C127.742 206.125 128.36 206.797 129.15 207.288C129.96 207.779 130.878 208.024 131.902 208.024ZM150.171 211.384C148.998 211.384 147.963 211.181 147.067 210.776C146.192 210.349 145.51 209.773 145.019 209.048C144.528 208.301 144.283 207.427 144.283 206.424C144.283 205.485 144.486 204.643 144.891 203.896C145.318 203.149 145.968 202.52 146.843 202.008C147.718 201.496 148.816 201.133 150.139 200.92L156.155 199.928V202.776L150.843 203.704C149.883 203.875 149.179 204.184 148.731 204.632C148.283 205.059 148.059 205.613 148.059 206.296C148.059 206.957 148.304 207.501 148.795 207.928C149.307 208.333 149.958 208.536 150.747 208.536C151.728 208.536 152.582 208.323 153.307 207.896C154.054 207.469 154.63 206.904 155.035 206.2C155.44 205.475 155.643 204.675 155.643 203.8V199.352C155.643 198.499 155.323 197.805 154.683 197.272C154.064 196.717 153.232 196.44 152.187 196.44C151.227 196.44 150.384 196.696 149.659 197.208C148.955 197.699 148.432 198.339 148.091 199.128L145.083 197.624C145.403 196.771 145.926 196.024 146.651 195.384C147.376 194.723 148.219 194.211 149.179 193.848C150.16 193.485 151.195 193.304 152.283 193.304C153.648 193.304 154.854 193.56 155.899 194.072C156.966 194.584 157.787 195.299 158.363 196.216C158.96 197.112 159.259 198.157 159.259 199.352V211H155.803V207.864L156.539 207.96C156.134 208.664 155.611 209.272 154.971 209.784C154.352 210.296 153.638 210.691 152.827 210.968C152.038 211.245 151.152 211.384 150.171 211.384ZM165.087 211V206.84H168.767V211H165.087Z" fill="white"/>
<path d="M45.085 461.18C44.375 461.18 43.725 461.05 43.135 460.79C42.545 460.52 42.045 460.155 41.635 459.695C41.225 459.235 40.93 458.72 40.75 458.15L42.025 457.625C42.295 458.345 42.695 458.9 43.225 459.29C43.765 459.67 44.395 459.86 45.115 459.86C45.555 459.86 45.94 459.79 46.27 459.65C46.6 459.51 46.855 459.315 47.035 459.065C47.225 458.805 47.32 458.505 47.32 458.165C47.32 457.695 47.185 457.325 46.915 457.055C46.655 456.775 46.27 456.565 45.76 456.425L43.705 455.795C42.895 455.545 42.275 455.15 41.845 454.61C41.415 454.07 41.2 453.45 41.2 452.75C41.2 452.14 41.345 451.605 41.635 451.145C41.935 450.675 42.345 450.31 42.865 450.05C43.395 449.78 43.995 449.645 44.665 449.645C45.335 449.645 45.94 449.765 46.48 450.005C47.03 450.245 47.495 450.57 47.875 450.98C48.255 451.38 48.535 451.84 48.715 452.36L47.455 452.885C47.215 452.255 46.855 451.78 46.375 451.46C45.895 451.13 45.33 450.965 44.68 450.965C44.28 450.965 43.925 451.035 43.615 451.175C43.315 451.305 43.08 451.5 42.91 451.76C42.75 452.01 42.67 452.31 42.67 452.66C42.67 453.07 42.8 453.435 43.06 453.755C43.32 454.075 43.715 454.32 44.245 454.49L46.12 455.045C47 455.315 47.665 455.7 48.115 456.2C48.565 456.7 48.79 457.32 48.79 458.06C48.79 458.67 48.63 459.21 48.31 459.68C48 460.15 47.565 460.52 47.005 460.79C46.455 461.05 45.815 461.18 45.085 461.18ZM50.7773 461V452.915H52.1723V461H50.7773ZM50.7773 451.625V449.825H52.1723V451.625H50.7773ZM58.1918 464.3C57.6218 464.3 57.0918 464.21 56.6018 464.03C56.1218 463.85 55.7068 463.6 55.3568 463.28C55.0168 462.97 54.7568 462.605 54.5768 462.185L55.8818 461.585C56.0218 461.965 56.2868 462.285 56.6768 462.545C57.0768 462.815 57.5768 462.95 58.1768 462.95C58.6368 462.95 59.0518 462.86 59.4218 462.68C59.8018 462.51 60.1018 462.25 60.3218 461.9C60.5418 461.56 60.6518 461.145 60.6518 460.655V458.84L60.9068 459.11C60.6268 459.66 60.2218 460.08 59.6918 460.37C59.1718 460.66 58.5968 460.805 57.9668 460.805C57.2068 460.805 56.5268 460.63 55.9268 460.28C55.3268 459.92 54.8568 459.435 54.5168 458.825C54.1768 458.205 54.0068 457.52 54.0068 456.77C54.0068 456.01 54.1768 455.325 54.5168 454.715C54.8568 454.105 55.3218 453.625 55.9118 453.275C56.5118 452.915 57.1918 452.735 57.9518 452.735C58.5818 452.735 59.1518 452.88 59.6618 453.17C60.1818 453.45 60.5968 453.84 60.9068 454.34L60.6968 454.715V452.915H62.0618V460.655C62.0618 461.355 61.8968 461.98 61.5668 462.53C61.2368 463.08 60.7768 463.51 60.1868 463.82C59.6068 464.14 58.9418 464.3 58.1918 464.3ZM58.0868 459.455C58.5668 459.455 58.9968 459.335 59.3768 459.095C59.7668 458.855 60.0768 458.535 60.3068 458.135C60.5368 457.725 60.6518 457.27 60.6518 456.77C60.6518 456.28 60.5368 455.83 60.3068 455.42C60.0768 455.01 59.7668 454.685 59.3768 454.445C58.9968 454.205 58.5668 454.085 58.0868 454.085C57.5968 454.085 57.1518 454.205 56.7518 454.445C56.3518 454.685 56.0368 455.01 55.8068 455.42C55.5868 455.82 55.4768 456.27 55.4768 456.77C55.4768 457.27 55.5868 457.725 55.8068 458.135C56.0368 458.535 56.3468 458.855 56.7368 459.095C57.1368 459.335 57.5868 459.455 58.0868 459.455ZM66.5945 461.18C66.0645 461.18 65.5945 461.085 65.1845 460.895C64.7845 460.695 64.4695 460.425 64.2395 460.085C64.0095 459.735 63.8945 459.335 63.8945 458.885C63.8945 458.455 63.9845 458.07 64.1645 457.73C64.3545 457.38 64.6445 457.085 65.0345 456.845C65.4345 456.605 65.9345 456.435 66.5345 456.335L69.5345 455.84V457.01L66.8495 457.46C66.3295 457.55 65.9495 457.715 65.7095 457.955C65.4795 458.195 65.3645 458.49 65.3645 458.84C65.3645 459.17 65.4945 459.445 65.7545 459.665C66.0245 459.885 66.3595 459.995 66.7595 459.995C67.2695 459.995 67.7095 459.89 68.0795 459.68C68.4595 459.46 68.7545 459.165 68.9645 458.795C69.1845 458.425 69.2945 458.015 69.2945 457.565V455.51C69.2945 455.07 69.1295 454.715 68.7995 454.445C68.4795 454.165 68.0545 454.025 67.5245 454.025C67.0645 454.025 66.6545 454.145 66.2945 454.385C65.9445 454.615 65.6845 454.925 65.5145 455.315L64.2995 454.685C64.4495 454.315 64.6895 453.985 65.0195 453.695C65.3495 453.395 65.7345 453.16 66.1745 452.99C66.6145 452.82 67.0745 452.735 67.5545 452.735C68.1745 452.735 68.7195 452.855 69.1895 453.095C69.6595 453.325 70.0245 453.65 70.2845 454.07C70.5545 454.48 70.6895 454.96 70.6895 455.51V461H69.3245V459.47L69.5795 459.56C69.4095 459.88 69.1795 460.16 68.8895 460.4C68.5995 460.64 68.2595 460.83 67.8695 460.97C67.4795 461.11 67.0545 461.18 66.5945 461.18ZM72.9575 457.595V456.32H78.5825V457.595H72.9575ZM80.8359 461V452.915H82.2009V454.49L81.9759 454.355C82.1759 453.845 82.4959 453.45 82.9359 453.17C83.3859 452.88 83.9109 452.735 84.5109 452.735C85.0909 452.735 85.6059 452.865 86.0559 453.125C86.5159 453.385 86.8759 453.745 87.1359 454.205C87.4059 454.665 87.5409 455.185 87.5409 455.765V461H86.1309V456.215C86.1309 455.765 86.0509 455.385 85.8909 455.075C85.7309 454.765 85.5009 454.525 85.2009 454.355C84.9109 454.175 84.5759 454.085 84.1959 454.085C83.8159 454.085 83.4759 454.175 83.1759 454.355C82.8859 454.525 82.6559 454.77 82.4859 455.09C82.3159 455.4 82.2309 455.775 82.2309 456.215V461H80.8359ZM93.377 461.18C92.597 461.18 91.892 461 91.262 460.64C90.632 460.27 90.132 459.765 89.762 459.125C89.392 458.485 89.207 457.76 89.207 456.95C89.207 456.14 89.387 455.42 89.747 454.79C90.117 454.16 90.617 453.66 91.247 453.29C91.877 452.92 92.587 452.735 93.377 452.735C94.157 452.735 94.862 452.92 95.492 453.29C96.122 453.65 96.617 454.145 96.977 454.775C97.347 455.405 97.532 456.13 97.532 456.95C97.532 457.77 97.342 458.5 96.962 459.14C96.582 459.77 96.077 460.27 95.447 460.64C94.827 461 94.137 461.18 93.377 461.18ZM93.377 459.83C93.877 459.83 94.327 459.705 94.727 459.455C95.137 459.205 95.457 458.86 95.687 458.42C95.927 457.98 96.047 457.49 96.047 456.95C96.047 456.4 95.927 455.915 95.687 455.495C95.457 455.065 95.137 454.725 94.727 454.475C94.327 454.215 93.877 454.085 93.377 454.085C92.867 454.085 92.407 454.215 91.997 454.475C91.597 454.725 91.277 455.065 91.037 455.495C90.797 455.915 90.677 456.4 90.677 456.95C90.677 457.49 90.797 457.98 91.037 458.42C91.277 458.86 91.597 459.205 91.997 459.455C92.407 459.705 92.867 459.83 93.377 459.83ZM102.246 461.18C101.436 461.18 100.731 460.98 100.131 460.58C99.5315 460.18 99.1065 459.64 98.8565 458.96L99.9665 458.42C100.196 458.9 100.511 459.28 100.911 459.56C101.311 459.84 101.756 459.98 102.246 459.98C102.686 459.98 103.051 459.875 103.341 459.665C103.631 459.455 103.776 459.18 103.776 458.84C103.776 458.6 103.706 458.41 103.566 458.27C103.436 458.12 103.276 458.005 103.086 457.925C102.896 457.835 102.721 457.77 102.561 457.73L101.346 457.385C100.616 457.175 100.081 456.875 99.7415 456.485C99.4115 456.095 99.2465 455.64 99.2465 455.12C99.2465 454.64 99.3665 454.225 99.6065 453.875C99.8565 453.515 100.191 453.235 100.611 453.035C101.041 452.835 101.521 452.735 102.051 452.735C102.761 452.735 103.396 452.915 103.956 453.275C104.526 453.635 104.931 454.14 105.171 454.79L104.031 455.315C103.851 454.895 103.581 454.565 103.221 454.325C102.861 454.075 102.456 453.95 102.006 453.95C101.596 453.95 101.271 454.055 101.031 454.265C100.791 454.465 100.671 454.72 100.671 455.03C100.671 455.26 100.731 455.45 100.851 455.6C100.971 455.74 101.116 455.85 101.286 455.93C101.456 456 101.621 456.06 101.781 456.11L103.101 456.5C103.761 456.69 104.271 456.985 104.631 457.385C105.001 457.785 105.186 458.265 105.186 458.825C105.186 459.275 105.061 459.68 104.811 460.04C104.561 460.4 104.216 460.68 103.776 460.88C103.336 461.08 102.826 461.18 102.246 461.18ZM113.325 461.18C112.545 461.18 111.85 460.995 111.24 460.625C110.63 460.255 110.15 459.75 109.8 459.11C109.45 458.46 109.275 457.735 109.275 456.935C109.275 456.125 109.445 455.405 109.785 454.775C110.135 454.145 110.605 453.65 111.195 453.29C111.795 452.92 112.465 452.735 113.205 452.735C113.805 452.735 114.335 452.845 114.795 453.065C115.265 453.275 115.66 453.565 115.98 453.935C116.31 454.295 116.56 454.71 116.73 455.18C116.91 455.64 117 456.12 117 456.62C117 456.73 116.99 456.855 116.97 456.995C116.96 457.125 116.945 457.25 116.925 457.37H110.295V456.17H116.115L115.455 456.71C115.545 456.19 115.495 455.725 115.305 455.315C115.115 454.905 114.835 454.58 114.465 454.34C114.095 454.1 113.675 453.98 113.205 453.98C112.735 453.98 112.305 454.1 111.915 454.34C111.525 454.58 111.22 454.925 111 455.375C110.79 455.815 110.705 456.34 110.745 456.95C110.705 457.54 110.795 458.06 111.015 458.51C111.245 458.95 111.565 459.295 111.975 459.545C112.395 459.785 112.85 459.905 113.34 459.905C113.88 459.905 114.335 459.78 114.705 459.53C115.075 459.28 115.375 458.96 115.605 458.57L116.775 459.17C116.615 459.54 116.365 459.88 116.025 460.19C115.695 460.49 115.3 460.73 114.84 460.91C114.39 461.09 113.885 461.18 113.325 461.18ZM118.819 461V452.915H120.184V454.565L119.989 454.31C120.189 453.8 120.509 453.41 120.949 453.14C121.389 452.87 121.884 452.735 122.434 452.735C123.064 452.735 123.629 452.91 124.129 453.26C124.639 453.61 124.989 454.07 125.179 454.64L124.789 454.655C124.999 454.025 125.354 453.55 125.854 453.23C126.354 452.9 126.909 452.735 127.519 452.735C128.079 452.735 128.584 452.865 129.034 453.125C129.494 453.385 129.859 453.745 130.129 454.205C130.399 454.665 130.534 455.185 130.534 455.765V461H129.124V456.215C129.124 455.765 129.044 455.385 128.884 455.075C128.724 454.765 128.504 454.525 128.224 454.355C127.954 454.175 127.634 454.085 127.264 454.085C126.904 454.085 126.579 454.175 126.289 454.355C126.009 454.525 125.784 454.77 125.614 455.09C125.454 455.4 125.374 455.775 125.374 456.215V461H123.964V456.215C123.964 455.765 123.884 455.385 123.724 455.075C123.564 454.765 123.344 454.525 123.064 454.355C122.794 454.175 122.474 454.085 122.104 454.085C121.744 454.085 121.419 454.175 121.129 454.355C120.849 454.525 120.624 454.77 120.454 455.09C120.294 455.4 120.214 455.775 120.214 456.215V461H118.819ZM41.08 480V471.915H42.445V473.49L42.22 473.355C42.42 472.845 42.74 472.45 43.18 472.17C43.63 471.88 44.155 471.735 44.755 471.735C45.335 471.735 45.85 471.865 46.3 472.125C46.76 472.385 47.12 472.745 47.38 473.205C47.65 473.665 47.785 474.185 47.785 474.765V480H46.375V475.215C46.375 474.765 46.295 474.385 46.135 474.075C45.975 473.765 45.745 473.525 45.445 473.355C45.155 473.175 44.82 473.085 44.44 473.085C44.06 473.085 43.72 473.175 43.42 473.355C43.13 473.525 42.9 473.77 42.73 474.09C42.56 474.4 42.475 474.775 42.475 475.215V480H41.08ZM53.6212 480.18C52.8412 480.18 52.1362 480 51.5062 479.64C50.8762 479.27 50.3762 478.765 50.0062 478.125C49.6362 477.485 49.4512 476.76 49.4512 475.95C49.4512 475.14 49.6312 474.42 49.9912 473.79C50.3612 473.16 50.8612 472.66 51.4912 472.29C52.1212 471.92 52.8312 471.735 53.6212 471.735C54.4012 471.735 55.1062 471.92 55.7362 472.29C56.3662 472.65 56.8612 473.145 57.2212 473.775C57.5912 474.405 57.7762 475.13 57.7762 475.95C57.7762 476.77 57.5862 477.5 57.2062 478.14C56.8262 478.77 56.3212 479.27 55.6912 479.64C55.0712 480 54.3812 480.18 53.6212 480.18ZM53.6212 478.83C54.1212 478.83 54.5712 478.705 54.9712 478.455C55.3812 478.205 55.7012 477.86 55.9312 477.42C56.1712 476.98 56.2912 476.49 56.2912 475.95C56.2912 475.4 56.1712 474.915 55.9312 474.495C55.7012 474.065 55.3812 473.725 54.9712 473.475C54.5712 473.215 54.1212 473.085 53.6212 473.085C53.1112 473.085 52.6512 473.215 52.2412 473.475C51.8412 473.725 51.5212 474.065 51.2812 474.495C51.0412 474.915 50.9212 475.4 50.9212 475.95C50.9212 476.49 51.0412 476.98 51.2812 477.42C51.5212 477.86 51.8412 478.205 52.2412 478.455C52.6512 478.705 53.1112 478.83 53.6212 478.83ZM62.4906 480.18C61.6806 480.18 60.9756 479.98 60.3756 479.58C59.7756 479.18 59.3506 478.64 59.1006 477.96L60.2106 477.42C60.4406 477.9 60.7556 478.28 61.1556 478.56C61.5556 478.84 62.0006 478.98 62.4906 478.98C62.9306 478.98 63.2956 478.875 63.5856 478.665C63.8756 478.455 64.0206 478.18 64.0206 477.84C64.0206 477.6 63.9506 477.41 63.8106 477.27C63.6806 477.12 63.5206 477.005 63.3306 476.925C63.1406 476.835 62.9656 476.77 62.8056 476.73L61.5906 476.385C60.8606 476.175 60.3256 475.875 59.9856 475.485C59.6556 475.095 59.4906 474.64 59.4906 474.12C59.4906 473.64 59.6106 473.225 59.8506 472.875C60.1006 472.515 60.4356 472.235 60.8556 472.035C61.2856 471.835 61.7656 471.735 62.2956 471.735C63.0056 471.735 63.6406 471.915 64.2006 472.275C64.7706 472.635 65.1756 473.14 65.4156 473.79L64.2756 474.315C64.0956 473.895 63.8256 473.565 63.4656 473.325C63.1056 473.075 62.7006 472.95 62.2506 472.95C61.8406 472.95 61.5156 473.055 61.2756 473.265C61.0356 473.465 60.9156 473.72 60.9156 474.03C60.9156 474.26 60.9756 474.45 61.0956 474.6C61.2156 474.74 61.3606 474.85 61.5306 474.93C61.7006 475 61.8656 475.06 62.0256 475.11L63.3456 475.5C64.0056 475.69 64.5156 475.985 64.8756 476.385C65.2456 476.785 65.4306 477.265 65.4306 477.825C65.4306 478.275 65.3056 478.68 65.0556 479.04C64.8056 479.4 64.4606 479.68 64.0206 479.88C63.5806 480.08 63.0706 480.18 62.4906 480.18ZM70.1518 480.18C69.3418 480.18 68.6368 479.98 68.0368 479.58C67.4368 479.18 67.0118 478.64 66.7618 477.96L67.8718 477.42C68.1018 477.9 68.4168 478.28 68.8168 478.56C69.2168 478.84 69.6618 478.98 70.1518 478.98C70.5918 478.98 70.9568 478.875 71.2468 478.665C71.5368 478.455 71.6818 478.18 71.6818 477.84C71.6818 477.6 71.6118 477.41 71.4718 477.27C71.3418 477.12 71.1818 477.005 70.9918 476.925C70.8018 476.835 70.6268 476.77 70.4668 476.73L69.2518 476.385C68.5218 476.175 67.9868 475.875 67.6468 475.485C67.3168 475.095 67.1518 474.64 67.1518 474.12C67.1518 473.64 67.2718 473.225 67.5118 472.875C67.7618 472.515 68.0968 472.235 68.5168 472.035C68.9468 471.835 69.4268 471.735 69.9568 471.735C70.6668 471.735 71.3018 471.915 71.8618 472.275C72.4318 472.635 72.8368 473.14 73.0768 473.79L71.9368 474.315C71.7568 473.895 71.4868 473.565 71.1268 473.325C70.7668 473.075 70.3618 472.95 69.9118 472.95C69.5018 472.95 69.1768 473.055 68.9368 473.265C68.6968 473.465 68.5768 473.72 68.5768 474.03C68.5768 474.26 68.6368 474.45 68.7568 474.6C68.8768 474.74 69.0218 474.85 69.1918 474.93C69.3618 475 69.5268 475.06 69.6868 475.11L71.0068 475.5C71.6668 475.69 72.1768 475.985 72.5368 476.385C72.9068 476.785 73.0918 477.265 73.0918 477.825C73.0918 478.275 72.9668 478.68 72.7168 479.04C72.4668 479.4 72.1218 479.68 71.6818 479.88C71.2418 480.08 70.7318 480.18 70.1518 480.18ZM77.2879 480.18C76.7579 480.18 76.2879 480.085 75.8779 479.895C75.4779 479.695 75.1629 479.425 74.9329 479.085C74.7029 478.735 74.5879 478.335 74.5879 477.885C74.5879 477.455 74.6779 477.07 74.8579 476.73C75.0479 476.38 75.3379 476.085 75.7279 475.845C76.1279 475.605 76.6279 475.435 77.2279 475.335L80.2279 474.84V476.01L77.5429 476.46C77.0229 476.55 76.6429 476.715 76.4029 476.955C76.1729 477.195 76.0579 477.49 76.0579 477.84C76.0579 478.17 76.1879 478.445 76.4479 478.665C76.7179 478.885 77.0529 478.995 77.4529 478.995C77.9629 478.995 78.4029 478.89 78.7729 478.68C79.1529 478.46 79.4479 478.165 79.6579 477.795C79.8779 477.425 79.9879 477.015 79.9879 476.565V474.51C79.9879 474.07 79.8229 473.715 79.4929 473.445C79.1729 473.165 78.7479 473.025 78.2179 473.025C77.7579 473.025 77.3479 473.145 76.9879 473.385C76.6379 473.615 76.3779 473.925 76.2079 474.315L74.9929 473.685C75.1429 473.315 75.3829 472.985 75.7129 472.695C76.0429 472.395 76.4279 472.16 76.8679 471.99C77.3079 471.82 77.7679 471.735 78.2479 471.735C78.8679 471.735 79.4129 471.855 79.8829 472.095C80.3529 472.325 80.7179 472.65 80.9779 473.07C81.2479 473.48 81.3829 473.96 81.3829 474.51V480H80.0179V478.47L80.2729 478.56C80.1029 478.88 79.8729 479.16 79.5829 479.4C79.2929 479.64 78.9529 479.83 78.5629 479.97C78.1729 480.11 77.7479 480.18 77.2879 480.18ZM86.4408 480.18C85.6308 480.18 84.9258 479.98 84.3258 479.58C83.7258 479.18 83.3008 478.64 83.0508 477.96L84.1608 477.42C84.3908 477.9 84.7058 478.28 85.1058 478.56C85.5058 478.84 85.9508 478.98 86.4408 478.98C86.8808 478.98 87.2458 478.875 87.5358 478.665C87.8258 478.455 87.9708 478.18 87.9708 477.84C87.9708 477.6 87.9008 477.41 87.7608 477.27C87.6308 477.12 87.4708 477.005 87.2808 476.925C87.0908 476.835 86.9158 476.77 86.7558 476.73L85.5408 476.385C84.8108 476.175 84.2758 475.875 83.9358 475.485C83.6058 475.095 83.4408 474.64 83.4408 474.12C83.4408 473.64 83.5608 473.225 83.8008 472.875C84.0508 472.515 84.3858 472.235 84.8058 472.035C85.2358 471.835 85.7158 471.735 86.2458 471.735C86.9558 471.735 87.5908 471.915 88.1508 472.275C88.7208 472.635 89.1258 473.14 89.3658 473.79L88.2258 474.315C88.0458 473.895 87.7758 473.565 87.4158 473.325C87.0558 473.075 86.6508 472.95 86.2008 472.95C85.7908 472.95 85.4658 473.055 85.2258 473.265C84.9858 473.465 84.8658 473.72 84.8658 474.03C84.8658 474.26 84.9258 474.45 85.0458 474.6C85.1658 474.74 85.3108 474.85 85.4808 474.93C85.6508 475 85.8158 475.06 85.9758 475.11L87.2958 475.5C87.9558 475.69 88.4658 475.985 88.8258 476.385C89.1958 476.785 89.3808 477.265 89.3808 477.825C89.3808 478.275 89.2558 478.68 89.0058 479.04C88.7558 479.4 88.4108 479.68 87.9708 479.88C87.5308 480.08 87.0208 480.18 86.4408 480.18ZM93.7997 480V471.915H95.1647V473.565L94.9697 473.31C95.1697 472.8 95.4897 472.41 95.9297 472.14C96.3697 471.87 96.8647 471.735 97.4147 471.735C98.0447 471.735 98.6097 471.91 99.1097 472.26C99.6197 472.61 99.9697 473.07 100.16 473.64L99.7697 473.655C99.9797 473.025 100.335 472.55 100.835 472.23C101.335 471.9 101.89 471.735 102.5 471.735C103.06 471.735 103.565 471.865 104.015 472.125C104.475 472.385 104.84 472.745 105.11 473.205C105.38 473.665 105.515 474.185 105.515 474.765V480H104.105V475.215C104.105 474.765 104.025 474.385 103.865 474.075C103.705 473.765 103.485 473.525 103.205 473.355C102.935 473.175 102.615 473.085 102.245 473.085C101.885 473.085 101.56 473.175 101.27 473.355C100.99 473.525 100.765 473.77 100.595 474.09C100.435 474.4 100.355 474.775 100.355 475.215V480H98.9447V475.215C98.9447 474.765 98.8647 474.385 98.7047 474.075C98.5447 473.765 98.3247 473.525 98.0447 473.355C97.7747 473.175 97.4547 473.085 97.0847 473.085C96.7247 473.085 96.3997 473.175 96.1097 473.355C95.8297 473.525 95.6047 473.77 95.4347 474.09C95.2747 474.4 95.1947 474.775 95.1947 475.215V480H93.7997ZM107.286 480V471.915H108.681V480H107.286ZM107.286 470.4L108.471 468.03H110.361L108.681 470.4H107.286ZM114.306 480.18C113.546 480.18 112.861 479.995 112.251 479.625C111.651 479.255 111.176 478.75 110.826 478.11C110.476 477.47 110.301 476.755 110.301 475.965C110.301 475.155 110.476 474.435 110.826 473.805C111.176 473.165 111.651 472.66 112.251 472.29C112.861 471.92 113.546 471.735 114.306 471.735C114.976 471.735 115.571 471.88 116.091 472.17C116.611 472.45 117.021 472.83 117.321 473.31L117.096 473.655V468.645H118.506V480H117.141V478.275L117.321 478.515C117.041 479.045 116.631 479.455 116.091 479.745C115.561 480.035 114.966 480.18 114.306 480.18ZM114.426 478.83C114.936 478.83 115.391 478.705 115.791 478.455C116.191 478.205 116.506 477.865 116.736 477.435C116.976 476.995 117.096 476.505 117.096 475.965C117.096 475.415 116.976 474.925 116.736 474.495C116.506 474.055 116.191 473.71 115.791 473.46C115.391 473.21 114.936 473.085 114.426 473.085C113.926 473.085 113.471 473.215 113.061 473.475C112.661 473.725 112.346 474.065 112.116 474.495C111.886 474.915 111.771 475.405 111.771 475.965C111.771 476.505 111.886 476.995 112.116 477.435C112.346 477.865 112.661 478.205 113.061 478.455C113.461 478.705 113.916 478.83 114.426 478.83ZM120.665 480V471.915H122.06V480H120.665ZM120.665 470.625V468.825H122.06V470.625H120.665ZM126.595 480.18C126.065 480.18 125.595 480.085 125.185 479.895C124.785 479.695 124.47 479.425 124.24 479.085C124.01 478.735 123.895 478.335 123.895 477.885C123.895 477.455 123.985 477.07 124.165 476.73C124.355 476.38 124.645 476.085 125.035 475.845C125.435 475.605 125.935 475.435 126.535 475.335L129.535 474.84V476.01L126.85 476.46C126.33 476.55 125.95 476.715 125.71 476.955C125.48 477.195 125.365 477.49 125.365 477.84C125.365 478.17 125.495 478.445 125.755 478.665C126.025 478.885 126.36 478.995 126.76 478.995C127.27 478.995 127.71 478.89 128.08 478.68C128.46 478.46 128.755 478.165 128.965 477.795C129.185 477.425 129.295 477.015 129.295 476.565V474.51C129.295 474.07 129.13 473.715 128.8 473.445C128.48 473.165 128.055 473.025 127.525 473.025C127.065 473.025 126.655 473.145 126.295 473.385C125.945 473.615 125.685 473.925 125.515 474.315L124.3 473.685C124.45 473.315 124.69 472.985 125.02 472.695C125.35 472.395 125.735 472.16 126.175 471.99C126.615 471.82 127.075 471.735 127.555 471.735C128.175 471.735 128.72 471.855 129.19 472.095C129.66 472.325 130.025 472.65 130.285 473.07C130.555 473.48 130.69 473.96 130.69 474.51V480H129.325V478.47L129.58 478.56C129.41 478.88 129.18 479.16 128.89 479.4C128.6 479.64 128.26 479.83 127.87 479.97C127.48 480.11 127.055 480.18 126.595 480.18ZM135.747 480.18C134.937 480.18 134.232 479.98 133.632 479.58C133.032 479.18 132.607 478.64 132.357 477.96L133.467 477.42C133.697 477.9 134.012 478.28 134.412 478.56C134.812 478.84 135.257 478.98 135.747 478.98C136.187 478.98 136.552 478.875 136.842 478.665C137.132 478.455 137.277 478.18 137.277 477.84C137.277 477.6 137.207 477.41 137.067 477.27C136.937 477.12 136.777 477.005 136.587 476.925C136.397 476.835 136.222 476.77 136.062 476.73L134.847 476.385C134.117 476.175 133.582 475.875 133.242 475.485C132.912 475.095 132.747 474.64 132.747 474.12C132.747 473.64 132.867 473.225 133.107 472.875C133.357 472.515 133.692 472.235 134.112 472.035C134.542 471.835 135.022 471.735 135.552 471.735C136.262 471.735 136.897 471.915 137.457 472.275C138.027 472.635 138.432 473.14 138.672 473.79L137.532 474.315C137.352 473.895 137.082 473.565 136.722 473.325C136.362 473.075 135.957 472.95 135.507 472.95C135.097 472.95 134.772 473.055 134.532 473.265C134.292 473.465 134.172 473.72 134.172 474.03C134.172 474.26 134.232 474.45 134.352 474.6C134.472 474.74 134.617 474.85 134.787 474.93C134.957 475 135.122 475.06 135.282 475.11L136.602 475.5C137.262 475.69 137.772 475.985 138.132 476.385C138.502 476.785 138.687 477.265 138.687 477.825C138.687 478.275 138.562 478.68 138.312 479.04C138.062 479.4 137.717 479.68 137.277 479.88C136.837 480.08 136.327 480.18 135.747 480.18ZM43.975 499.18C43.165 499.18 42.46 498.98 41.86 498.58C41.26 498.18 40.835 497.64 40.585 496.96L41.695 496.42C41.925 496.9 42.24 497.28 42.64 497.56C43.04 497.84 43.485 497.98 43.975 497.98C44.415 497.98 44.78 497.875 45.07 497.665C45.36 497.455 45.505 497.18 45.505 496.84C45.505 496.6 45.435 496.41 45.295 496.27C45.165 496.12 45.005 496.005 44.815 495.925C44.625 495.835 44.45 495.77 44.29 495.73L43.075 495.385C42.345 495.175 41.81 494.875 41.47 494.485C41.14 494.095 40.975 493.64 40.975 493.12C40.975 492.64 41.095 492.225 41.335 491.875C41.585 491.515 41.92 491.235 42.34 491.035C42.77 490.835 43.25 490.735 43.78 490.735C44.49 490.735 45.125 490.915 45.685 491.275C46.255 491.635 46.66 492.14 46.9 492.79L45.76 493.315C45.58 492.895 45.31 492.565 44.95 492.325C44.59 492.075 44.185 491.95 43.735 491.95C43.325 491.95 43 492.055 42.76 492.265C42.52 492.465 42.4 492.72 42.4 493.03C42.4 493.26 42.46 493.45 42.58 493.6C42.7 493.74 42.845 493.85 43.015 493.93C43.185 494 43.35 494.06 43.51 494.11L44.83 494.5C45.49 494.69 46 494.985 46.36 495.385C46.73 495.785 46.915 496.265 46.915 496.825C46.915 497.275 46.79 497.68 46.54 498.04C46.29 498.4 45.945 498.68 45.505 498.88C45.065 499.08 44.555 499.18 43.975 499.18ZM52.5811 499.18C51.8011 499.18 51.0961 499 50.4661 498.64C49.8361 498.27 49.3361 497.765 48.9661 497.125C48.5961 496.485 48.4111 495.76 48.4111 494.95C48.4111 494.14 48.5911 493.42 48.9511 492.79C49.3211 492.16 49.8211 491.66 50.4511 491.29C51.0811 490.92 51.7911 490.735 52.5811 490.735C53.3611 490.735 54.0661 490.92 54.6961 491.29C55.3261 491.65 55.8211 492.145 56.1811 492.775C56.5511 493.405 56.7361 494.13 56.7361 494.95C56.7361 495.77 56.5461 496.5 56.1661 497.14C55.7861 497.77 55.2811 498.27 54.6511 498.64C54.0311 499 53.3411 499.18 52.5811 499.18ZM52.5811 497.83C53.0811 497.83 53.5311 497.705 53.9311 497.455C54.3411 497.205 54.6611 496.86 54.8911 496.42C55.1311 495.98 55.2511 495.49 55.2511 494.95C55.2511 494.4 55.1311 493.915 54.8911 493.495C54.6611 493.065 54.3411 492.725 53.9311 492.475C53.5311 492.215 53.0811 492.085 52.5811 492.085C52.0711 492.085 51.6111 492.215 51.2011 492.475C50.8011 492.725 50.4811 493.065 50.2411 493.495C50.0011 493.915 49.8811 494.4 49.8811 494.95C49.8811 495.49 50.0011 495.98 50.2411 496.42C50.4811 496.86 50.8011 497.205 51.2011 497.455C51.6111 497.705 52.0711 497.83 52.5811 497.83ZM62.3056 499.18C61.5156 499.18 60.8106 498.995 60.1906 498.625C59.5806 498.255 59.1006 497.75 58.7506 497.11C58.4006 496.47 58.2256 495.75 58.2256 494.95C58.2256 494.14 58.4006 493.42 58.7506 492.79C59.1006 492.16 59.5806 491.66 60.1906 491.29C60.8106 490.92 61.5156 490.735 62.3056 490.735C62.8356 490.735 63.3306 490.83 63.7906 491.02C64.2506 491.21 64.6556 491.465 65.0056 491.785C65.3556 492.105 65.6106 492.48 65.7706 492.91L64.5256 493.51C64.3356 493.09 64.0456 492.75 63.6556 492.49C63.2656 492.22 62.8156 492.085 62.3056 492.085C61.8156 492.085 61.3706 492.21 60.9706 492.46C60.5806 492.71 60.2706 493.05 60.0406 493.48C59.8106 493.91 59.6956 494.405 59.6956 494.965C59.6956 495.505 59.8106 495.995 60.0406 496.435C60.2706 496.865 60.5806 497.205 60.9706 497.455C61.3706 497.705 61.8156 497.83 62.3056 497.83C62.8156 497.83 63.2656 497.7 63.6556 497.44C64.0456 497.17 64.3356 496.815 64.5256 496.375L65.7706 497.005C65.6106 497.425 65.3556 497.8 65.0056 498.13C64.6556 498.45 64.2506 498.705 63.7906 498.895C63.3306 499.085 62.8356 499.18 62.3056 499.18ZM67.5937 499V490.915H68.9887V499H67.5937ZM67.5937 489.625V487.825H68.9887V489.625H67.5937ZM73.5232 499.18C72.9932 499.18 72.5232 499.085 72.1132 498.895C71.7132 498.695 71.3982 498.425 71.1682 498.085C70.9382 497.735 70.8232 497.335 70.8232 496.885C70.8232 496.455 70.9132 496.07 71.0932 495.73C71.2832 495.38 71.5732 495.085 71.9632 494.845C72.3632 494.605 72.8632 494.435 73.4632 494.335L76.4632 493.84V495.01L73.7782 495.46C73.2582 495.55 72.8782 495.715 72.6382 495.955C72.4082 496.195 72.2932 496.49 72.2932 496.84C72.2932 497.17 72.4232 497.445 72.6832 497.665C72.9532 497.885 73.2882 497.995 73.6882 497.995C74.1982 497.995 74.6382 497.89 75.0082 497.68C75.3882 497.46 75.6832 497.165 75.8932 496.795C76.1132 496.425 76.2232 496.015 76.2232 495.565V493.51C76.2232 493.07 76.0582 492.715 75.7282 492.445C75.4082 492.165 74.9832 492.025 74.4532 492.025C73.9932 492.025 73.5832 492.145 73.2232 492.385C72.8732 492.615 72.6132 492.925 72.4432 493.315L71.2282 492.685C71.3782 492.315 71.6182 491.985 71.9482 491.695C72.2782 491.395 72.6632 491.16 73.1032 490.99C73.5432 490.82 74.0032 490.735 74.4832 490.735C75.1032 490.735 75.6482 490.855 76.1182 491.095C76.5882 491.325 76.9532 491.65 77.2132 492.07C77.4832 492.48 77.6182 492.96 77.6182 493.51V499H76.2532V497.47L76.5082 497.56C76.3382 497.88 76.1082 498.16 75.8182 498.4C75.5282 498.64 75.1882 498.83 74.7982 498.97C74.4082 499.11 73.9832 499.18 73.5232 499.18ZM79.7812 499V490.915H81.1762V499H79.7812ZM79.7812 489.625V487.825H81.1762V489.625H79.7812ZM86.2357 499.18C85.4257 499.18 84.7207 498.98 84.1207 498.58C83.5207 498.18 83.0957 497.64 82.8457 496.96L83.9557 496.42C84.1857 496.9 84.5007 497.28 84.9007 497.56C85.3007 497.84 85.7457 497.98 86.2357 497.98C86.6757 497.98 87.0407 497.875 87.3307 497.665C87.6207 497.455 87.7657 497.18 87.7657 496.84C87.7657 496.6 87.6957 496.41 87.5557 496.27C87.4257 496.12 87.2657 496.005 87.0757 495.925C86.8857 495.835 86.7107 495.77 86.5507 495.73L85.3357 495.385C84.6057 495.175 84.0707 494.875 83.7307 494.485C83.4007 494.095 83.2357 493.64 83.2357 493.12C83.2357 492.64 83.3557 492.225 83.5957 491.875C83.8457 491.515 84.1807 491.235 84.6007 491.035C85.0307 490.835 85.5107 490.735 86.0407 490.735C86.7507 490.735 87.3857 490.915 87.9457 491.275C88.5157 491.635 88.9207 492.14 89.1607 492.79L88.0207 493.315C87.8407 492.895 87.5707 492.565 87.2107 492.325C86.8507 492.075 86.4457 491.95 85.9957 491.95C85.5857 491.95 85.2607 492.055 85.0207 492.265C84.7807 492.465 84.6607 492.72 84.6607 493.03C84.6607 493.26 84.7207 493.45 84.8407 493.6C84.9607 493.74 85.1057 493.85 85.2757 493.93C85.4457 494 85.6107 494.06 85.7707 494.11L87.0907 494.5C87.7507 494.69 88.2607 494.985 88.6207 495.385C88.9907 495.785 89.1757 496.265 89.1757 496.825C89.1757 497.275 89.0507 497.68 88.8007 498.04C88.5507 498.4 88.2057 498.68 87.7657 498.88C87.3257 499.08 86.8157 499.18 86.2357 499.18Z" fill="white"/>
<path d="M130.01 342V328.59H138.74V330.21H131.774V334.458H138.38V336.078H131.774V340.38H138.74V342H130.01ZM144.202 342.216C143.23 342.216 142.384 341.976 141.664 341.496C140.944 341.016 140.434 340.368 140.134 339.552L141.466 338.904C141.742 339.48 142.12 339.936 142.6 340.272C143.08 340.608 143.614 340.776 144.202 340.776C144.73 340.776 145.168 340.65 145.516 340.398C145.864 340.146 146.038 339.816 146.038 339.408C146.038 339.12 145.954 338.892 145.786 338.724C145.63 338.544 145.438 338.406 145.21 338.31C144.982 338.202 144.772 338.124 144.58 338.076L143.122 337.662C142.246 337.41 141.604 337.05 141.196 336.582C140.8 336.114 140.602 335.568 140.602 334.944C140.602 334.368 140.746 333.87 141.034 333.45C141.334 333.018 141.736 332.682 142.24 332.442C142.756 332.202 143.332 332.082 143.968 332.082C144.82 332.082 145.582 332.298 146.254 332.73C146.938 333.162 147.424 333.768 147.712 334.548L146.344 335.178C146.128 334.674 145.804 334.278 145.372 333.99C144.94 333.69 144.454 333.54 143.914 333.54C143.422 333.54 143.032 333.666 142.744 333.918C142.456 334.158 142.312 334.464 142.312 334.836C142.312 335.112 142.384 335.34 142.528 335.52C142.672 335.688 142.846 335.82 143.05 335.916C143.254 336 143.452 336.072 143.644 336.132L145.228 336.6C146.02 336.828 146.632 337.182 147.064 337.662C147.508 338.142 147.73 338.718 147.73 339.39C147.73 339.93 147.58 340.416 147.28 340.848C146.98 341.28 146.566 341.616 146.038 341.856C145.51 342.096 144.898 342.216 144.202 342.216ZM154.421 342.216C153.473 342.216 152.627 341.994 151.883 341.55C151.151 341.106 150.575 340.5 150.155 339.732C149.735 338.964 149.525 338.1 149.525 337.14C149.525 336.168 149.735 335.304 150.155 334.548C150.575 333.792 151.151 333.192 151.883 332.748C152.627 332.304 153.473 332.082 154.421 332.082C155.057 332.082 155.651 332.196 156.203 332.424C156.755 332.652 157.241 332.958 157.661 333.342C158.081 333.726 158.387 334.176 158.579 334.692L157.085 335.412C156.857 334.908 156.509 334.5 156.041 334.188C155.573 333.864 155.033 333.702 154.421 333.702C153.833 333.702 153.299 333.852 152.819 334.152C152.351 334.452 151.979 334.86 151.703 335.376C151.427 335.892 151.289 336.486 151.289 337.158C151.289 337.806 151.427 338.394 151.703 338.922C151.979 339.438 152.351 339.846 152.819 340.146C153.299 340.446 153.833 340.596 154.421 340.596C155.033 340.596 155.573 340.44 156.041 340.128C156.509 339.804 156.857 339.378 157.085 338.85L158.579 339.606C158.387 340.11 158.081 340.56 157.661 340.956C157.241 341.34 156.755 341.646 156.203 341.874C155.651 342.102 155.057 342.216 154.421 342.216ZM160.767 342V332.298H162.405V334.08L162.225 333.828C162.453 333.276 162.801 332.868 163.269 332.604C163.737 332.328 164.307 332.19 164.979 332.19H165.573V333.774H164.727C164.043 333.774 163.491 333.99 163.071 334.422C162.651 334.842 162.441 335.442 162.441 336.222V342H160.767ZM171.524 342.216C170.588 342.216 169.754 341.994 169.022 341.55C168.29 341.106 167.714 340.5 167.294 339.732C166.874 338.952 166.664 338.082 166.664 337.122C166.664 336.15 166.868 335.286 167.276 334.53C167.696 333.774 168.26 333.18 168.968 332.748C169.688 332.304 170.492 332.082 171.38 332.082C172.1 332.082 172.736 332.214 173.288 332.478C173.852 332.73 174.326 333.078 174.71 333.522C175.106 333.954 175.406 334.452 175.61 335.016C175.826 335.568 175.934 336.144 175.934 336.744C175.934 336.876 175.922 337.026 175.898 337.194C175.886 337.35 175.868 337.5 175.844 337.644H167.888V336.204H174.872L174.08 336.852C174.188 336.228 174.128 335.67 173.9 335.178C173.672 334.686 173.336 334.296 172.892 334.008C172.448 333.72 171.944 333.576 171.38 333.576C170.816 333.576 170.3 333.72 169.832 334.008C169.364 334.296 168.998 334.71 168.734 335.25C168.482 335.778 168.38 336.408 168.428 337.14C168.38 337.848 168.488 338.472 168.752 339.012C169.028 339.54 169.412 339.954 169.904 340.254C170.408 340.542 170.954 340.686 171.542 340.686C172.19 340.686 172.736 340.536 173.18 340.236C173.624 339.936 173.984 339.552 174.26 339.084L175.664 339.804C175.472 340.248 175.172 340.656 174.764 341.028C174.368 341.388 173.894 341.676 173.342 341.892C172.802 342.108 172.196 342.216 171.524 342.216ZM180.641 342L176.843 332.298H178.715L181.757 340.506H181.109L184.169 332.298H186.041L182.225 342H180.641ZM190.031 342.216C189.395 342.216 188.831 342.102 188.339 341.874C187.859 341.634 187.481 341.31 187.205 340.902C186.929 340.482 186.791 340.002 186.791 339.462C186.791 338.946 186.899 338.484 187.115 338.076C187.343 337.656 187.691 337.302 188.159 337.014C188.639 336.726 189.239 336.522 189.959 336.402L193.559 335.808V337.212L190.337 337.752C189.713 337.86 189.257 338.058 188.969 338.346C188.693 338.634 188.555 338.988 188.555 339.408C188.555 339.804 188.711 340.134 189.023 340.398C189.347 340.662 189.749 340.794 190.229 340.794C190.841 340.794 191.369 340.668 191.813 340.416C192.269 340.152 192.623 339.798 192.875 339.354C193.139 338.91 193.271 338.418 193.271 337.878V335.412C193.271 334.884 193.073 334.458 192.677 334.134C192.293 333.798 191.783 333.63 191.147 333.63C190.595 333.63 190.103 333.774 189.671 334.062C189.251 334.338 188.939 334.71 188.735 335.178L187.277 334.422C187.457 333.978 187.745 333.582 188.141 333.234C188.537 332.874 188.999 332.592 189.527 332.388C190.055 332.184 190.607 332.082 191.183 332.082C191.927 332.082 192.581 332.226 193.145 332.514C193.709 332.79 194.147 333.18 194.459 333.684C194.783 334.176 194.945 334.752 194.945 335.412V342H193.307V340.164L193.613 340.272C193.409 340.656 193.133 340.992 192.785 341.28C192.437 341.568 192.029 341.796 191.561 341.964C191.093 342.132 190.583 342.216 190.031 342.216ZM203.495 342.216C202.859 342.216 202.295 342.102 201.803 341.874C201.323 341.634 200.945 341.31 200.669 340.902C200.393 340.482 200.255 340.002 200.255 339.462C200.255 338.946 200.363 338.484 200.579 338.076C200.807 337.656 201.155 337.302 201.623 337.014C202.103 336.726 202.703 336.522 203.423 336.402L207.023 335.808V337.212L203.801 337.752C203.177 337.86 202.721 338.058 202.433 338.346C202.157 338.634 202.019 338.988 202.019 339.408C202.019 339.804 202.175 340.134 202.487 340.398C202.811 340.662 203.213 340.794 203.693 340.794C204.305 340.794 204.833 340.668 205.277 340.416C205.733 340.152 206.087 339.798 206.339 339.354C206.603 338.91 206.735 338.418 206.735 337.878V335.412C206.735 334.884 206.537 334.458 206.141 334.134C205.757 333.798 205.247 333.63 204.611 333.63C204.059 333.63 203.567 333.774 203.135 334.062C202.715 334.338 202.403 334.71 202.199 335.178L200.741 334.422C200.921 333.978 201.209 333.582 201.605 333.234C202.001 332.874 202.463 332.592 202.991 332.388C203.519 332.184 204.071 332.082 204.647 332.082C205.391 332.082 206.045 332.226 206.609 332.514C207.173 332.79 207.611 333.18 207.923 333.684C208.247 334.176 208.409 334.752 208.409 335.412V342H206.771V340.164L207.077 340.272C206.873 340.656 206.597 340.992 206.249 341.28C205.901 341.568 205.493 341.796 205.025 341.964C204.557 342.132 204.047 342.216 203.495 342.216ZM218.763 345.6V339.93L219.033 340.218C218.697 340.854 218.205 341.346 217.557 341.694C216.921 342.042 216.207 342.216 215.415 342.216C214.503 342.216 213.681 341.994 212.949 341.55C212.229 341.106 211.659 340.5 211.239 339.732C210.819 338.964 210.609 338.106 210.609 337.158C210.609 336.186 210.819 335.322 211.239 334.566C211.659 333.798 212.229 333.192 212.949 332.748C213.681 332.304 214.503 332.082 215.415 332.082C216.219 332.082 216.933 332.256 217.557 332.604C218.181 332.94 218.673 333.396 219.033 333.972L218.817 334.386V332.298H220.455V345.6H218.763ZM215.559 340.596C216.171 340.596 216.717 340.446 217.197 340.146C217.677 339.846 218.055 339.438 218.331 338.922C218.619 338.394 218.763 337.806 218.763 337.158C218.763 336.498 218.619 335.91 218.331 335.394C218.055 334.866 217.677 334.452 217.197 334.152C216.717 333.852 216.171 333.702 215.559 333.702C214.959 333.702 214.413 333.858 213.921 334.17C213.441 334.47 213.063 334.878 212.787 335.394C212.511 335.898 212.373 336.486 212.373 337.158C212.373 337.806 212.511 338.394 212.787 338.922C213.063 339.438 213.441 339.846 213.921 340.146C214.401 340.446 214.947 340.596 215.559 340.596ZM226.484 342.216C225.788 342.216 225.158 342.054 224.594 341.73C224.042 341.406 223.61 340.956 223.298 340.38C222.998 339.792 222.848 339.12 222.848 338.364V332.298H224.522V338.184C224.522 338.664 224.618 339.084 224.81 339.444C225.014 339.804 225.29 340.086 225.638 340.29C225.998 340.494 226.406 340.596 226.862 340.596C227.318 340.596 227.72 340.494 228.068 340.29C228.428 340.086 228.704 339.792 228.896 339.408C229.1 339.024 229.202 338.568 229.202 338.04V332.298H230.894V342H229.256V340.11L229.526 340.272C229.298 340.884 228.908 341.364 228.356 341.712C227.816 342.048 227.192 342.216 226.484 342.216ZM233.487 342V332.298H235.161V342H233.487ZM233.487 330.75V328.59H235.161V330.75H233.487ZM244.344 342.216C243.372 342.216 242.526 341.976 241.806 341.496C241.086 341.016 240.576 340.368 240.276 339.552L241.608 338.904C241.884 339.48 242.262 339.936 242.742 340.272C243.222 340.608 243.756 340.776 244.344 340.776C244.872 340.776 245.31 340.65 245.658 340.398C246.006 340.146 246.18 339.816 246.18 339.408C246.18 339.12 246.096 338.892 245.928 338.724C245.772 338.544 245.58 338.406 245.352 338.31C245.124 338.202 244.914 338.124 244.722 338.076L243.264 337.662C242.388 337.41 241.746 337.05 241.338 336.582C240.942 336.114 240.744 335.568 240.744 334.944C240.744 334.368 240.888 333.87 241.176 333.45C241.476 333.018 241.878 332.682 242.382 332.442C242.898 332.202 243.474 332.082 244.11 332.082C244.962 332.082 245.724 332.298 246.396 332.73C247.08 333.162 247.566 333.768 247.854 334.548L246.486 335.178C246.27 334.674 245.946 334.278 245.514 333.99C245.082 333.69 244.596 333.54 244.056 333.54C243.564 333.54 243.174 333.666 242.886 333.918C242.598 334.158 242.454 334.464 242.454 334.836C242.454 335.112 242.526 335.34 242.67 335.52C242.814 335.688 242.988 335.82 243.192 335.916C243.396 336 243.594 336.072 243.786 336.132L245.37 336.6C246.162 336.828 246.774 337.182 247.206 337.662C247.65 338.142 247.872 338.718 247.872 339.39C247.872 339.93 247.722 340.416 247.422 340.848C247.122 341.28 246.708 341.616 246.18 341.856C245.652 342.096 245.04 342.216 244.344 342.216ZM254.528 342.216C253.592 342.216 252.758 341.994 252.026 341.55C251.294 341.106 250.718 340.5 250.298 339.732C249.878 338.952 249.668 338.082 249.668 337.122C249.668 336.15 249.872 335.286 250.28 334.53C250.7 333.774 251.264 333.18 251.972 332.748C252.692 332.304 253.496 332.082 254.384 332.082C255.104 332.082 255.74 332.214 256.292 332.478C256.856 332.73 257.33 333.078 257.714 333.522C258.11 333.954 258.41 334.452 258.614 335.016C258.83 335.568 258.938 336.144 258.938 336.744C258.938 336.876 258.926 337.026 258.902 337.194C258.89 337.35 258.872 337.5 258.848 337.644H250.892V336.204H257.876L257.084 336.852C257.192 336.228 257.132 335.67 256.904 335.178C256.676 334.686 256.34 334.296 255.896 334.008C255.452 333.72 254.948 333.576 254.384 333.576C253.82 333.576 253.304 333.72 252.836 334.008C252.368 334.296 252.002 334.71 251.738 335.25C251.486 335.778 251.384 336.408 251.432 337.14C251.384 337.848 251.492 338.472 251.756 339.012C252.032 339.54 252.416 339.954 252.908 340.254C253.412 340.542 253.958 340.686 254.546 340.686C255.194 340.686 255.74 340.536 256.184 340.236C256.628 339.936 256.988 339.552 257.264 339.084L258.668 339.804C258.476 340.248 258.176 340.656 257.768 341.028C257.372 341.388 256.898 341.676 256.346 341.892C255.806 342.108 255.2 342.216 254.528 342.216ZM264.558 342.216C263.862 342.216 263.232 342.054 262.668 341.73C262.116 341.406 261.684 340.956 261.372 340.38C261.072 339.792 260.922 339.12 260.922 338.364V332.298H262.596V338.184C262.596 338.664 262.692 339.084 262.884 339.444C263.088 339.804 263.364 340.086 263.712 340.29C264.072 340.494 264.48 340.596 264.936 340.596C265.392 340.596 265.794 340.494 266.142 340.29C266.502 340.086 266.778 339.792 266.97 339.408C267.174 339.024 267.276 338.568 267.276 338.04V332.298H268.968V342H267.33V340.11L267.6 340.272C267.372 340.884 266.982 341.364 266.43 341.712C265.89 342.048 265.266 342.216 264.558 342.216ZM279.137 342.216C278.201 342.216 277.367 341.994 276.635 341.55C275.903 341.106 275.327 340.5 274.907 339.732C274.487 338.952 274.277 338.082 274.277 337.122C274.277 336.15 274.481 335.286 274.889 334.53C275.309 333.774 275.873 333.18 276.581 332.748C277.301 332.304 278.105 332.082 278.993 332.082C279.713 332.082 280.349 332.214 280.901 332.478C281.465 332.73 281.939 333.078 282.323 333.522C282.719 333.954 283.019 334.452 283.223 335.016C283.439 335.568 283.547 336.144 283.547 336.744C283.547 336.876 283.535 337.026 283.511 337.194C283.499 337.35 283.481 337.5 283.457 337.644H275.501V336.204H282.485L281.693 336.852C281.801 336.228 281.741 335.67 281.513 335.178C281.285 334.686 280.949 334.296 280.505 334.008C280.061 333.72 279.557 333.576 278.993 333.576C278.429 333.576 277.913 333.72 277.445 334.008C276.977 334.296 276.611 334.71 276.347 335.25C276.095 335.778 275.993 336.408 276.041 337.14C275.993 337.848 276.101 338.472 276.365 339.012C276.641 339.54 277.025 339.954 277.517 340.254C278.021 340.542 278.567 340.686 279.155 340.686C279.803 340.686 280.349 340.536 280.793 340.236C281.237 339.936 281.597 339.552 281.873 339.084L283.277 339.804C283.085 340.248 282.785 340.656 282.377 341.028C281.981 341.388 281.507 341.676 280.955 341.892C280.415 342.108 279.809 342.216 279.137 342.216ZM285.856 337.914V336.384H292.606V337.914H285.856ZM295.31 342V332.298H296.948V334.278L296.714 333.972C296.954 333.36 297.338 332.892 297.866 332.568C298.394 332.244 298.988 332.082 299.648 332.082C300.404 332.082 301.082 332.292 301.682 332.712C302.294 333.132 302.714 333.684 302.942 334.368L302.474 334.386C302.726 333.63 303.152 333.06 303.752 332.676C304.352 332.28 305.018 332.082 305.75 332.082C306.422 332.082 307.028 332.238 307.568 332.55C308.12 332.862 308.558 333.294 308.882 333.846C309.206 334.398 309.368 335.022 309.368 335.718V342H307.676V336.258C307.676 335.718 307.58 335.262 307.388 334.89C307.196 334.518 306.932 334.23 306.596 334.026C306.272 333.81 305.888 333.702 305.444 333.702C305.012 333.702 304.622 333.81 304.274 334.026C303.938 334.23 303.668 334.524 303.464 334.908C303.272 335.28 303.176 335.73 303.176 336.258V342H301.484V336.258C301.484 335.718 301.388 335.262 301.196 334.89C301.004 334.518 300.74 334.23 300.404 334.026C300.08 333.81 299.696 333.702 299.252 333.702C298.82 333.702 298.43 333.81 298.082 334.026C297.746 334.23 297.476 334.524 297.272 334.908C297.08 335.28 296.984 335.73 296.984 336.258V342H295.31ZM314.589 342.216C313.953 342.216 313.389 342.102 312.897 341.874C312.417 341.634 312.039 341.31 311.763 340.902C311.487 340.482 311.349 340.002 311.349 339.462C311.349 338.946 311.457 338.484 311.673 338.076C311.901 337.656 312.249 337.302 312.717 337.014C313.197 336.726 313.797 336.522 314.517 336.402L318.117 335.808V337.212L314.895 337.752C314.271 337.86 313.815 338.058 313.527 338.346C313.251 338.634 313.113 338.988 313.113 339.408C313.113 339.804 313.269 340.134 313.581 340.398C313.905 340.662 314.307 340.794 314.787 340.794C315.399 340.794 315.927 340.668 316.371 340.416C316.827 340.152 317.181 339.798 317.433 339.354C317.697 338.91 317.829 338.418 317.829 337.878V335.412C317.829 334.884 317.631 334.458 317.235 334.134C316.851 333.798 316.341 333.63 315.705 333.63C315.153 333.63 314.661 333.774 314.229 334.062C313.809 334.338 313.497 334.71 313.293 335.178L311.835 334.422C312.015 333.978 312.303 333.582 312.699 333.234C313.095 332.874 313.557 332.592 314.085 332.388C314.613 332.184 315.165 332.082 315.741 332.082C316.485 332.082 317.139 332.226 317.703 332.514C318.267 332.79 318.705 333.18 319.017 333.684C319.341 334.176 319.503 334.752 319.503 335.412V342H317.865V340.164L318.171 340.272C317.967 340.656 317.691 340.992 317.343 341.28C316.995 341.568 316.587 341.796 316.119 341.964C315.651 342.132 315.141 342.216 314.589 342.216ZM322.099 342V332.298H323.773V342H322.099ZM322.099 330.75V328.59H323.773V330.75H322.099ZM326.37 342V328.374H328.044V342H326.37ZM331.326 342V339.84H333.072V342H331.326ZM337.039 342V339.84H338.785V342H337.039ZM342.751 342V339.84H344.497V342H342.751Z" fill="white"/>
<path d="M58.775 538.25H68.225C71.825 538.25 74.75 541.175 74.75 544.775V554.225C74.75 555.956 74.0625 557.615 72.8389 558.839C71.6152 560.063 69.9555 560.75 68.225 560.75H58.775C55.175 560.75 52.25 557.825 52.25 554.225V544.775C52.25 543.044 52.9375 541.385 54.1611 540.161C55.3848 538.937 57.0445 538.25 58.775 538.25ZM58.55 540.5C57.4759 540.5 56.4457 540.927 55.6862 541.686C54.9267 542.446 54.5 543.476 54.5 544.55V554.45C54.5 556.689 56.3112 558.5 58.55 558.5H68.45C69.5241 558.5 70.5543 558.073 71.3138 557.314C72.0733 556.554 72.5 555.524 72.5 554.45V544.55C72.5 542.311 70.6887 540.5 68.45 540.5H58.55ZM69.4062 542.188C69.7792 542.188 70.1369 542.336 70.4006 542.599C70.6643 542.863 70.8125 543.221 70.8125 543.594C70.8125 543.967 70.6643 544.324 70.4006 544.588C70.1369 544.852 69.7792 545 69.4062 545C69.0333 545 68.6756 544.852 68.4119 544.588C68.1482 544.324 68 543.967 68 543.594C68 543.221 68.1482 542.863 68.4119 542.599C68.6756 542.336 69.0333 542.188 69.4062 542.188ZM63.5 543.875C64.9918 543.875 66.4226 544.468 67.4775 545.523C68.5324 546.577 69.125 548.008 69.125 549.5C69.125 550.992 68.5324 552.423 67.4775 553.477C66.4226 554.532 64.9918 555.125 63.5 555.125C62.0082 555.125 60.5774 554.532 59.5225 553.477C58.4676 552.423 57.875 550.992 57.875 549.5C57.875 548.008 58.4676 546.577 59.5225 545.523C60.5774 544.468 62.0082 543.875 63.5 543.875ZM63.5 546.125C62.6049 546.125 61.7464 546.481 61.1135 547.114C60.4806 547.746 60.125 548.605 60.125 549.5C60.125 550.395 60.4806 551.254 61.1135 551.886C61.7464 552.519 62.6049 552.875 63.5 552.875C64.3951 552.875 65.2536 552.519 65.8865 551.886C66.5194 551.254 66.875 550.395 66.875 549.5C66.875 548.605 66.5194 547.746 65.8865 547.114C65.2536 546.481 64.3951 546.125 63.5 546.125Z" fill="#080808"/>
<path fill-rule="evenodd" clip-rule="evenodd" d="M129.035 560.75V552.037H131.852L132.274 548.642H129.034V546.474C129.034 545.491 129.298 544.82 130.656 544.82H132.387V541.782C131.549 541.69 130.706 541.645 129.863 541.648C127.367 541.648 125.659 543.23 125.659 546.136V548.642H122.833V552.037H125.658V560.75H115.363C114.702 560.75 114.167 560.194 114.167 559.508V539.492C114.167 538.806 114.702 538.25 115.363 538.25H134.637C135.298 538.25 135.833 538.806 135.833 539.492V559.508C135.833 560.194 135.298 560.75 134.637 560.75H129.035Z" fill="#080808"/>
<path d="M193.627 556.631H190.629V551.932C190.629 550.812 190.606 549.37 189.065 549.37C187.502 549.37 187.264 550.589 187.264 551.85V556.631H184.265V546.969H187.145V548.285H187.184C187.587 547.527 188.565 546.725 190.028 546.725C193.066 546.725 193.628 548.725 193.628 551.327V556.631H193.627ZM180.878 545.647C180.649 545.647 180.423 545.602 180.211 545.515C180 545.427 179.808 545.299 179.646 545.137C179.484 544.975 179.356 544.783 179.269 544.571C179.181 544.36 179.136 544.133 179.137 543.904C179.137 543.56 179.239 543.223 179.431 542.937C179.623 542.651 179.895 542.428 180.213 542.296C180.531 542.164 180.881 542.13 181.219 542.198C181.557 542.265 181.867 542.431 182.111 542.675C182.354 542.918 182.52 543.229 182.587 543.567C182.654 543.905 182.619 544.255 182.487 544.573C182.355 544.891 182.131 545.163 181.845 545.354C181.558 545.545 181.223 545.647 180.878 545.647ZM182.381 556.631H179.374V546.969H182.383V556.631H182.381ZM195.129 539.375H177.87C177.042 539.375 176.375 540.027 176.375 540.834V558.166C176.375 558.972 177.043 559.625 177.869 559.625H195.124C195.95 559.625 196.625 558.972 196.625 558.166V540.834C196.625 540.027 195.95 539.375 195.124 539.375H195.129Z" fill="#080808"/>
</svg>
