<svg width="501" height="127" viewBox="0 0 501 127" fill="none" xmlns="http://www.w3.org/2000/svg">
<path d="M14.264 29.432C12.368 29.432 10.604 29.084 8.972 28.388C7.364 27.692 5.96 26.732 4.76 25.508C3.584 24.26 2.66 22.796 1.988 21.116C1.316 19.436 0.98 17.588 0.98 15.572C0.98 13.58 1.304 11.744 1.952 10.064C2.624 8.36 3.56 6.896 4.76 5.672C5.96 4.424 7.364 3.464 8.972 2.792C10.58 2.096 12.344 1.748 14.264 1.748C16.16 1.748 17.852 2.072 19.34 2.72C20.852 3.368 22.124 4.22 23.156 5.276C24.188 6.308 24.932 7.436 25.388 8.66L21.572 10.46C20.996 9.02 20.072 7.856 18.8 6.968C17.552 6.056 16.04 5.6 14.264 5.6C12.488 5.6 10.916 6.02 9.548 6.86C8.18 7.7 7.112 8.864 6.344 10.352C5.6 11.84 5.228 13.58 5.228 15.572C5.228 17.564 5.6 19.316 6.344 20.828C7.112 22.316 8.18 23.48 9.548 24.32C10.916 25.136 12.488 25.544 14.264 25.544C16.04 25.544 17.552 25.1 18.8 24.212C20.072 23.324 20.996 22.16 21.572 20.72L25.388 22.52C24.932 23.72 24.188 24.848 23.156 25.904C22.124 26.96 20.852 27.812 19.34 28.46C17.852 29.108 16.16 29.432 14.264 29.432ZM38.4048 29.432C36.5328 29.432 34.8168 28.988 33.2568 28.1C31.7208 27.212 30.4968 26 29.5848 24.464C28.6728 22.928 28.2168 21.188 28.2168 19.244C28.2168 17.276 28.6728 15.536 29.5848 14.024C30.4968 12.488 31.7208 11.288 33.2568 10.424C34.7928 9.536 36.5088 9.092 38.4048 9.092C40.3248 9.092 42.0408 9.536 43.5528 10.424C45.0888 11.288 46.3008 12.488 47.1888 14.024C48.1008 15.536 48.5568 17.276 48.5568 19.244C48.5568 21.212 48.1008 22.964 47.1888 24.5C46.2768 26.036 45.0528 27.248 43.5168 28.136C41.9808 29 40.2768 29.432 38.4048 29.432ZM38.4048 25.652C39.5568 25.652 40.5768 25.376 41.4648 24.824C42.3528 24.272 43.0488 23.516 43.5528 22.556C44.0808 21.572 44.3448 20.468 44.3448 19.244C44.3448 18.02 44.0808 16.928 43.5528 15.968C43.0488 15.008 42.3528 14.252 41.4648 13.7C40.5768 13.148 39.5568 12.872 38.4048 12.872C37.2768 12.872 36.2568 13.148 35.3448 13.7C34.4568 14.252 33.7488 15.008 33.2208 15.968C32.7168 16.928 32.4648 18.02 32.4648 19.244C32.4648 20.468 32.7168 21.572 33.2208 22.556C33.7488 23.516 34.4568 24.272 35.3448 24.824C36.2568 25.376 37.2768 25.652 38.4048 25.652ZM52.5283 29V9.524H56.4163V13.34L55.9483 12.836C56.4283 11.612 57.1963 10.688 58.2523 10.064C59.3083 9.416 60.5323 9.092 61.9243 9.092C63.3643 9.092 64.6363 9.404 65.7403 10.028C66.8443 10.652 67.7083 11.516 68.3323 12.62C68.9563 13.724 69.2683 14.996 69.2683 16.436V29H65.2363V17.516C65.2363 16.532 65.0563 15.704 64.6963 15.032C64.3363 14.336 63.8203 13.808 63.1483 13.448C62.5003 13.064 61.7563 12.872 60.9163 12.872C60.0763 12.872 59.3203 13.064 58.6483 13.448C58.0003 13.808 57.4963 14.336 57.1363 15.032C56.7763 15.728 56.5963 16.556 56.5963 17.516V29H52.5283ZM80.8221 29.432C78.8301 29.432 77.0781 28.94 75.5661 27.956C74.0781 26.972 73.0341 25.652 72.4341 23.996L75.5661 22.52C76.0941 23.624 76.8141 24.5 77.7261 25.148C78.6621 25.796 79.6941 26.12 80.8221 26.12C81.7821 26.12 82.5621 25.904 83.1621 25.472C83.7621 25.04 84.0621 24.452 84.0621 23.708C84.0621 23.228 83.9301 22.844 83.6661 22.556C83.4021 22.244 83.0661 21.992 82.6581 21.8C82.2741 21.608 81.8781 21.464 81.4701 21.368L78.4101 20.504C76.7301 20.024 75.4701 19.304 74.6301 18.344C73.8141 17.36 73.4061 16.22 73.4061 14.924C73.4061 13.748 73.7061 12.728 74.3061 11.864C74.9061 10.976 75.7341 10.292 76.7901 9.812C77.8461 9.332 79.0341 9.092 80.3541 9.092C82.1301 9.092 83.7141 9.536 85.1061 10.424C86.4981 11.288 87.4821 12.5 88.0581 14.06L84.9261 15.536C84.5421 14.6 83.9301 13.856 83.0901 13.304C82.2741 12.752 81.3501 12.476 80.3181 12.476C79.4301 12.476 78.7221 12.692 78.1941 13.124C77.6661 13.532 77.4021 14.072 77.4021 14.744C77.4021 15.2 77.5221 15.584 77.7621 15.896C78.0021 16.184 78.3141 16.424 78.6981 16.616C79.0821 16.784 79.4781 16.928 79.8861 17.048L83.0541 17.984C84.6621 18.44 85.8981 19.16 86.7621 20.144C87.6261 21.104 88.0581 22.256 88.0581 23.6C88.0581 24.752 87.7461 25.772 87.1221 26.66C86.5221 27.524 85.6821 28.208 84.6021 28.712C83.5221 29.192 82.2621 29.432 80.8221 29.432ZM100.468 29.216C98.428 29.216 96.844 28.64 95.716 27.488C94.588 26.336 94.024 24.716 94.024 22.628V13.196H90.604V9.524H91.144C92.056 9.524 92.764 9.26 93.268 8.732C93.772 8.204 94.024 7.484 94.024 6.572V5.06H98.092V9.524H102.52V13.196H98.092V22.448C98.092 23.12 98.2 23.696 98.416 24.176C98.632 24.632 98.98 24.992 99.46 25.256C99.94 25.496 100.564 25.616 101.332 25.616C101.524 25.616 101.74 25.604 101.98 25.58C102.22 25.556 102.448 25.532 102.664 25.508V29C102.328 29.048 101.956 29.096 101.548 29.144C101.14 29.192 100.78 29.216 100.468 29.216ZM106.634 29V9.524H110.522V13.448L110.162 12.872C110.594 11.6 111.29 10.688 112.25 10.136C113.21 9.56 114.362 9.272 115.706 9.272H116.894V12.98H115.202C113.858 12.98 112.766 13.4 111.926 14.24C111.11 15.056 110.702 16.232 110.702 17.768V29H106.634ZM126.625 29.432C125.161 29.432 123.877 29.108 122.773 28.46C121.669 27.788 120.805 26.864 120.181 25.688C119.581 24.488 119.281 23.108 119.281 21.548V9.524H123.349V21.188C123.349 22.076 123.529 22.856 123.889 23.528C124.249 24.2 124.753 24.728 125.401 25.112C126.049 25.472 126.793 25.652 127.633 25.652C128.497 25.652 129.253 25.46 129.901 25.076C130.549 24.692 131.053 24.152 131.413 23.456C131.797 22.76 131.989 21.944 131.989 21.008V9.524H136.021V29H132.169V25.184L132.601 25.688C132.145 26.888 131.389 27.812 130.333 28.46C129.277 29.108 128.041 29.432 126.625 29.432ZM140.303 29V9.524H144.371V29H140.303ZM140.303 5.96L142.931 0.0199976H148.259L144.335 5.96H140.303ZM148.646 29V9.524H152.534V13.736L152.03 13.088C152.438 11.768 153.182 10.772 154.262 10.1C155.342 9.428 156.578 9.092 157.97 9.092C159.53 9.092 160.91 9.512 162.11 10.352C163.334 11.168 164.15 12.26 164.558 13.628L163.406 13.736C163.982 12.176 164.858 11.012 166.034 10.244C167.234 9.476 168.602 9.092 170.138 9.092C171.482 9.092 172.694 9.404 173.774 10.028C174.878 10.652 175.754 11.516 176.402 12.62C177.05 13.724 177.374 14.984 177.374 16.4V29H173.306V17.516C173.306 16.532 173.126 15.704 172.766 15.032C172.43 14.336 171.95 13.808 171.326 13.448C170.726 13.064 170.018 12.872 169.202 12.872C168.386 12.872 167.666 13.064 167.042 13.448C166.418 13.808 165.926 14.336 165.566 15.032C165.206 15.728 165.026 16.556 165.026 17.516V29H160.994V17.516C160.994 16.532 160.814 15.704 160.454 15.032C160.118 14.336 159.638 13.808 159.014 13.448C158.414 13.064 157.694 12.872 156.854 12.872C156.038 12.872 155.318 13.064 154.694 13.448C154.07 13.808 153.578 14.336 153.218 15.032C152.882 15.728 152.714 16.556 152.714 17.516V29H148.646ZM191.124 29.432C189.252 29.432 187.536 28.988 185.976 28.1C184.44 27.212 183.216 26 182.304 24.464C181.392 22.928 180.936 21.188 180.936 19.244C180.936 17.276 181.392 15.536 182.304 14.024C183.216 12.488 184.44 11.288 185.976 10.424C187.512 9.536 189.228 9.092 191.124 9.092C193.044 9.092 194.76 9.536 196.272 10.424C197.808 11.288 199.02 12.488 199.908 14.024C200.82 15.536 201.276 17.276 201.276 19.244C201.276 21.212 200.82 22.964 199.908 24.5C198.996 26.036 197.772 27.248 196.236 28.136C194.7 29 192.996 29.432 191.124 29.432ZM191.124 25.652C192.276 25.652 193.296 25.376 194.184 24.824C195.072 24.272 195.768 23.516 196.272 22.556C196.8 21.572 197.064 20.468 197.064 19.244C197.064 18.02 196.8 16.928 196.272 15.968C195.768 15.008 195.072 14.252 194.184 13.7C193.296 13.148 192.276 12.872 191.124 12.872C189.996 12.872 188.976 13.148 188.064 13.7C187.176 14.252 186.468 15.008 185.94 15.968C185.436 16.928 185.184 18.02 185.184 19.244C185.184 20.468 185.436 21.572 185.94 22.556C186.468 23.516 187.176 24.272 188.064 24.824C188.976 25.376 189.996 25.652 191.124 25.652ZM212.447 29.432C210.455 29.432 208.703 28.94 207.191 27.956C205.703 26.972 204.659 25.652 204.059 23.996L207.191 22.52C207.719 23.624 208.439 24.5 209.351 25.148C210.287 25.796 211.319 26.12 212.447 26.12C213.407 26.12 214.187 25.904 214.787 25.472C215.387 25.04 215.687 24.452 215.687 23.708C215.687 23.228 215.555 22.844 215.291 22.556C215.027 22.244 214.691 21.992 214.283 21.8C213.899 21.608 213.503 21.464 213.095 21.368L210.035 20.504C208.355 20.024 207.095 19.304 206.255 18.344C205.439 17.36 205.031 16.22 205.031 14.924C205.031 13.748 205.331 12.728 205.931 11.864C206.531 10.976 207.359 10.292 208.415 9.812C209.471 9.332 210.659 9.092 211.979 9.092C213.755 9.092 215.339 9.536 216.731 10.424C218.123 11.288 219.107 12.5 219.683 14.06L216.551 15.536C216.167 14.6 215.555 13.856 214.715 13.304C213.899 12.752 212.975 12.476 211.943 12.476C211.055 12.476 210.347 12.692 209.819 13.124C209.291 13.532 209.027 14.072 209.027 14.744C209.027 15.2 209.147 15.584 209.387 15.896C209.627 16.184 209.939 16.424 210.323 16.616C210.707 16.784 211.103 16.928 211.511 17.048L214.679 17.984C216.287 18.44 217.523 19.16 218.387 20.144C219.251 21.104 219.683 22.256 219.683 23.6C219.683 24.752 219.371 25.772 218.747 26.66C218.147 27.524 217.307 28.208 216.227 28.712C215.147 29.192 213.887 29.432 212.447 29.432ZM239.106 29.432C237.162 29.432 235.434 28.988 233.922 28.1C232.434 27.188 231.27 25.964 230.43 24.428C229.59 22.868 229.17 21.128 229.17 19.208C229.17 17.24 229.59 15.5 230.43 13.988C231.294 12.476 232.446 11.288 233.886 10.424C235.326 9.536 236.958 9.092 238.782 9.092C240.246 9.092 241.554 9.344 242.706 9.848C243.858 10.352 244.83 11.048 245.622 11.936C246.414 12.8 247.014 13.796 247.422 14.924C247.854 16.052 248.07 17.252 248.07 18.524C248.07 18.836 248.058 19.16 248.034 19.496C248.01 19.832 247.962 20.144 247.89 20.432H232.374V17.192H245.586L243.642 18.668C243.882 17.492 243.798 16.448 243.39 15.536C243.006 14.6 242.406 13.868 241.59 13.34C240.798 12.788 239.862 12.512 238.782 12.512C237.702 12.512 236.742 12.788 235.902 13.34C235.062 13.868 234.414 14.636 233.958 15.644C233.502 16.628 233.322 17.828 233.418 19.244C233.298 20.564 233.478 21.716 233.958 22.7C234.462 23.684 235.158 24.452 236.046 25.004C236.958 25.556 237.99 25.832 239.142 25.832C240.318 25.832 241.314 25.568 242.13 25.04C242.97 24.512 243.63 23.828 244.11 22.988L247.422 24.608C247.038 25.52 246.438 26.348 245.622 27.092C244.83 27.812 243.87 28.388 242.742 28.82C241.638 29.228 240.426 29.432 239.106 29.432ZM259.24 29.432C257.248 29.432 255.496 28.94 253.984 27.956C252.496 26.972 251.452 25.652 250.852 23.996L253.984 22.52C254.512 23.624 255.232 24.5 256.144 25.148C257.08 25.796 258.112 26.12 259.24 26.12C260.2 26.12 260.98 25.904 261.58 25.472C262.18 25.04 262.48 24.452 262.48 23.708C262.48 23.228 262.348 22.844 262.084 22.556C261.82 22.244 261.484 21.992 261.076 21.8C260.692 21.608 260.296 21.464 259.888 21.368L256.828 20.504C255.148 20.024 253.888 19.304 253.048 18.344C252.232 17.36 251.824 16.22 251.824 14.924C251.824 13.748 252.124 12.728 252.724 11.864C253.324 10.976 254.152 10.292 255.208 9.812C256.264 9.332 257.452 9.092 258.772 9.092C260.548 9.092 262.132 9.536 263.524 10.424C264.916 11.288 265.9 12.5 266.476 14.06L263.344 15.536C262.96 14.6 262.348 13.856 261.508 13.304C260.692 12.752 259.768 12.476 258.736 12.476C257.848 12.476 257.14 12.692 256.612 13.124C256.084 13.532 255.82 14.072 255.82 14.744C255.82 15.2 255.94 15.584 256.18 15.896C256.42 16.184 256.732 16.424 257.116 16.616C257.5 16.784 257.896 16.928 258.304 17.048L261.472 17.984C263.08 18.44 264.316 19.16 265.18 20.144C266.044 21.104 266.476 22.256 266.476 23.6C266.476 24.752 266.164 25.772 265.54 26.66C264.94 27.524 264.1 28.208 263.02 28.712C261.94 29.192 260.68 29.432 259.24 29.432ZM278.886 29.216C276.846 29.216 275.262 28.64 274.134 27.488C273.006 26.336 272.442 24.716 272.442 22.628V13.196H269.022V9.524H269.562C270.474 9.524 271.182 9.26 271.686 8.732C272.19 8.204 272.442 7.484 272.442 6.572V5.06H276.51V9.524H280.938V13.196H276.51V22.448C276.51 23.12 276.618 23.696 276.834 24.176C277.05 24.632 277.398 24.992 277.878 25.256C278.358 25.496 278.982 25.616 279.75 25.616C279.942 25.616 280.158 25.604 280.398 25.58C280.638 25.556 280.866 25.532 281.082 25.508V29C280.746 29.048 280.374 29.096 279.966 29.144C279.558 29.192 279.198 29.216 278.886 29.216ZM285.052 29V9.524H288.94V13.448L288.58 12.872C289.012 11.6 289.708 10.688 290.668 10.136C291.628 9.56 292.78 9.272 294.124 9.272H295.312V12.98H293.62C292.276 12.98 291.184 13.4 290.344 14.24C289.528 15.056 289.12 16.232 289.12 17.768V29H285.052ZM303.927 29.432C302.607 29.432 301.443 29.204 300.435 28.748C299.451 28.268 298.683 27.62 298.131 26.804C297.579 25.964 297.303 24.98 297.303 23.852C297.303 22.796 297.531 21.848 297.987 21.008C298.467 20.168 299.199 19.46 300.183 18.884C301.167 18.308 302.403 17.9 303.891 17.66L310.659 16.544V19.748L304.683 20.792C303.603 20.984 302.811 21.332 302.307 21.836C301.803 22.316 301.551 22.94 301.551 23.708C301.551 24.452 301.827 25.064 302.379 25.544C302.955 26 303.687 26.228 304.575 26.228C305.679 26.228 306.639 25.988 307.455 25.508C308.295 25.028 308.943 24.392 309.399 23.6C309.855 22.784 310.083 21.884 310.083 20.9V15.896C310.083 14.936 309.723 14.156 309.003 13.556C308.307 12.932 307.371 12.62 306.195 12.62C305.115 12.62 304.167 12.908 303.351 13.484C302.559 14.036 301.971 14.756 301.587 15.644L298.203 13.952C298.563 12.992 299.151 12.152 299.967 11.432C300.783 10.688 301.731 10.112 302.811 9.704C303.915 9.296 305.079 9.092 306.303 9.092C307.839 9.092 309.195 9.38 310.371 9.956C311.571 10.532 312.495 11.336 313.143 12.368C313.815 13.376 314.151 14.552 314.151 15.896V29H310.263V25.472L311.091 25.58C310.635 26.372 310.047 27.056 309.327 27.632C308.631 28.208 307.827 28.652 306.915 28.964C306.027 29.276 305.031 29.432 303.927 29.432ZM326.98 29.216C324.94 29.216 323.356 28.64 322.228 27.488C321.1 26.336 320.536 24.716 320.536 22.628V13.196H317.116V9.524H317.656C318.568 9.524 319.276 9.26 319.78 8.732C320.284 8.204 320.536 7.484 320.536 6.572V5.06H324.604V9.524H329.032V13.196H324.604V22.448C324.604 23.12 324.712 23.696 324.928 24.176C325.144 24.632 325.492 24.992 325.972 25.256C326.452 25.496 327.076 25.616 327.844 25.616C328.036 25.616 328.252 25.604 328.492 25.58C328.732 25.556 328.96 25.532 329.176 25.508V29C328.84 29.048 328.468 29.096 328.06 29.144C327.652 29.192 327.292 29.216 326.98 29.216ZM341.938 29.432C339.994 29.432 338.266 28.988 336.754 28.1C335.266 27.188 334.102 25.964 333.262 24.428C332.422 22.868 332.002 21.128 332.002 19.208C332.002 17.24 332.422 15.5 333.262 13.988C334.126 12.476 335.278 11.288 336.718 10.424C338.158 9.536 339.79 9.092 341.614 9.092C343.078 9.092 344.386 9.344 345.538 9.848C346.69 10.352 347.662 11.048 348.454 11.936C349.246 12.8 349.846 13.796 350.254 14.924C350.686 16.052 350.902 17.252 350.902 18.524C350.902 18.836 350.89 19.16 350.866 19.496C350.842 19.832 350.794 20.144 350.722 20.432H335.206V17.192H348.418L346.474 18.668C346.714 17.492 346.63 16.448 346.222 15.536C345.838 14.6 345.238 13.868 344.422 13.34C343.63 12.788 342.694 12.512 341.614 12.512C340.534 12.512 339.574 12.788 338.734 13.34C337.894 13.868 337.246 14.636 336.79 15.644C336.334 16.628 336.154 17.828 336.25 19.244C336.13 20.564 336.31 21.716 336.79 22.7C337.294 23.684 337.99 24.452 338.878 25.004C339.79 25.556 340.822 25.832 341.974 25.832C343.15 25.832 344.146 25.568 344.962 25.04C345.802 24.512 346.462 23.828 346.942 22.988L350.254 24.608C349.87 25.52 349.27 26.348 348.454 27.092C347.662 27.812 346.702 28.388 345.574 28.82C344.47 29.228 343.258 29.432 341.938 29.432ZM339.454 5.96L342.082 0.0199976H347.41L343.486 5.96H339.454ZM364.268 36.92C362.852 36.92 361.544 36.692 360.344 36.236C359.144 35.78 358.112 35.144 357.248 34.328C356.384 33.536 355.736 32.6 355.304 31.52L359.048 29.972C359.384 30.884 359.996 31.64 360.884 32.24C361.796 32.84 362.912 33.14 364.232 33.14C365.264 33.14 366.188 32.936 367.004 32.528C367.82 32.144 368.468 31.568 368.948 30.8C369.428 30.056 369.668 29.156 369.668 28.1V23.708L370.388 24.536C369.716 25.784 368.78 26.732 367.58 27.38C366.404 28.028 365.072 28.352 363.584 28.352C361.784 28.352 360.164 27.932 358.724 27.092C357.284 26.252 356.144 25.1 355.304 23.636C354.488 22.172 354.08 20.528 354.08 18.704C354.08 16.856 354.488 15.212 355.304 13.772C356.144 12.332 357.272 11.192 358.688 10.352C360.104 9.512 361.724 9.092 363.548 9.092C365.036 9.092 366.356 9.416 367.508 10.064C368.684 10.688 369.644 11.6 370.388 12.8L369.848 13.808V9.524H373.7V28.1C373.7 29.78 373.292 31.28 372.476 32.6C371.684 33.944 370.58 35 369.164 35.768C367.748 36.536 366.116 36.92 364.268 36.92ZM364.052 24.572C365.132 24.572 366.092 24.32 366.932 23.816C367.772 23.288 368.432 22.592 368.912 21.728C369.416 20.84 369.668 19.844 369.668 18.74C369.668 17.636 369.416 16.64 368.912 15.752C368.408 14.864 367.736 14.168 366.896 13.664C366.056 13.136 365.108 12.872 364.052 12.872C362.948 12.872 361.964 13.136 361.1 13.664C360.236 14.168 359.552 14.864 359.048 15.752C358.568 16.616 358.328 17.612 358.328 18.74C358.328 19.82 358.568 20.804 359.048 21.692C359.552 22.58 360.236 23.288 361.1 23.816C361.964 24.32 362.948 24.572 364.052 24.572ZM378.462 29V9.524H382.53V29H378.462ZM378.462 6.86V2.18H382.53V6.86H378.462ZM393.118 29.432C391.798 29.432 390.634 29.204 389.626 28.748C388.642 28.268 387.874 27.62 387.322 26.804C386.77 25.964 386.494 24.98 386.494 23.852C386.494 22.796 386.722 21.848 387.178 21.008C387.658 20.168 388.39 19.46 389.374 18.884C390.358 18.308 391.594 17.9 393.082 17.66L399.85 16.544V19.748L393.874 20.792C392.794 20.984 392.002 21.332 391.498 21.836C390.994 22.316 390.742 22.94 390.742 23.708C390.742 24.452 391.018 25.064 391.57 25.544C392.146 26 392.878 26.228 393.766 26.228C394.87 26.228 395.83 25.988 396.646 25.508C397.486 25.028 398.134 24.392 398.59 23.6C399.046 22.784 399.274 21.884 399.274 20.9V15.896C399.274 14.936 398.914 14.156 398.194 13.556C397.498 12.932 396.562 12.62 395.386 12.62C394.306 12.62 393.358 12.908 392.542 13.484C391.75 14.036 391.162 14.756 390.778 15.644L387.394 13.952C387.754 12.992 388.342 12.152 389.158 11.432C389.974 10.688 390.922 10.112 392.002 9.704C393.106 9.296 394.27 9.092 395.494 9.092C397.03 9.092 398.386 9.38 399.562 9.956C400.762 10.532 401.686 11.336 402.334 12.368C403.006 13.376 403.342 14.552 403.342 15.896V29H399.454V25.472L400.282 25.58C399.826 26.372 399.238 27.056 398.518 27.632C397.822 28.208 397.018 28.652 396.106 28.964C395.218 29.276 394.222 29.432 393.118 29.432ZM415.299 29.432C413.307 29.432 411.555 28.94 410.043 27.956C408.555 26.972 407.511 25.652 406.911 23.996L410.043 22.52C410.571 23.624 411.291 24.5 412.203 25.148C413.139 25.796 414.171 26.12 415.299 26.12C416.259 26.12 417.039 25.904 417.639 25.472C418.239 25.04 418.539 24.452 418.539 23.708C418.539 23.228 418.407 22.844 418.143 22.556C417.879 22.244 417.543 21.992 417.135 21.8C416.751 21.608 416.355 21.464 415.947 21.368L412.887 20.504C411.207 20.024 409.947 19.304 409.107 18.344C408.291 17.36 407.883 16.22 407.883 14.924C407.883 13.748 408.183 12.728 408.783 11.864C409.383 10.976 410.211 10.292 411.267 9.812C412.323 9.332 413.511 9.092 414.831 9.092C416.607 9.092 418.191 9.536 419.583 10.424C420.975 11.288 421.959 12.5 422.535 14.06L419.403 15.536C419.019 14.6 418.407 13.856 417.567 13.304C416.751 12.752 415.827 12.476 414.795 12.476C413.907 12.476 413.199 12.692 412.671 13.124C412.143 13.532 411.879 14.072 411.879 14.744C411.879 15.2 411.999 15.584 412.239 15.896C412.479 16.184 412.791 16.424 413.175 16.616C413.559 16.784 413.955 16.928 414.363 17.048L417.531 17.984C419.139 18.44 420.375 19.16 421.239 20.144C422.103 21.104 422.535 22.256 422.535 23.6C422.535 24.752 422.223 25.772 421.599 26.66C420.999 27.524 420.159 28.208 419.079 28.712C417.999 29.192 416.739 29.432 415.299 29.432ZM427.565 34.292V32.312C428.357 32.12 428.969 31.748 429.401 31.196C429.833 30.668 430.097 29.936 430.193 29H428.285V24.32H432.425V27.38C432.425 29.3 432.017 30.848 431.201 32.024C430.385 33.2 429.173 33.956 427.565 34.292ZM10.376 74.432C8.504 74.432 6.824 73.988 5.336 73.1C3.872 72.188 2.708 70.964 1.844 69.428C1.004 67.892 0.584 66.164 0.584 64.244C0.584 62.324 1.016 60.596 1.88 59.06C2.744 57.524 3.908 56.312 5.372 55.424C6.836 54.536 8.492 54.092 10.34 54.092C11.9 54.092 13.28 54.404 14.48 55.028C15.68 55.652 16.628 56.516 17.324 57.62L16.712 58.556V46.748H20.744V74H16.892V70.04L17.36 70.796C16.688 71.972 15.728 72.872 14.48 73.496C13.232 74.12 11.864 74.432 10.376 74.432ZM10.772 70.652C11.9 70.652 12.908 70.376 13.796 69.824C14.708 69.272 15.416 68.516 15.92 67.556C16.448 66.572 16.712 65.468 16.712 64.244C16.712 63.02 16.448 61.928 15.92 60.968C15.416 60.008 14.708 59.252 13.796 58.7C12.908 58.148 11.9 57.872 10.772 57.872C9.644 57.872 8.624 58.148 7.712 58.7C6.8 59.252 6.092 60.008 5.588 60.968C5.084 61.928 4.832 63.02 4.832 64.244C4.832 65.468 5.084 66.572 5.588 67.556C6.092 68.516 6.788 69.272 7.676 69.824C8.588 70.376 9.62 70.652 10.772 70.652ZM34.6372 74.432C32.6932 74.432 30.9652 73.988 29.4532 73.1C27.9652 72.188 26.8012 70.964 25.9612 69.428C25.1212 67.868 24.7012 66.128 24.7012 64.208C24.7012 62.24 25.1212 60.5 25.9612 58.988C26.8252 57.476 27.9772 56.288 29.4172 55.424C30.8572 54.536 32.4892 54.092 34.3132 54.092C35.7772 54.092 37.0852 54.344 38.2372 54.848C39.3892 55.352 40.3612 56.048 41.1532 56.936C41.9452 57.8 42.5452 58.796 42.9532 59.924C43.3852 61.052 43.6012 62.252 43.6012 63.524C43.6012 63.836 43.5892 64.16 43.5652 64.496C43.5412 64.832 43.4932 65.144 43.4212 65.432H27.9052V62.192H41.1172L39.1732 63.668C39.4132 62.492 39.3292 61.448 38.9212 60.536C38.5372 59.6 37.9372 58.868 37.1212 58.34C36.3292 57.788 35.3932 57.512 34.3132 57.512C33.2332 57.512 32.2732 57.788 31.4332 58.34C30.5932 58.868 29.9452 59.636 29.4892 60.644C29.0332 61.628 28.8532 62.828 28.9492 64.244C28.8292 65.564 29.0092 66.716 29.4892 67.7C29.9932 68.684 30.6892 69.452 31.5772 70.004C32.4892 70.556 33.5212 70.832 34.6732 70.832C35.8492 70.832 36.8452 70.568 37.6612 70.04C38.5012 69.512 39.1612 68.828 39.6412 67.988L42.9532 69.608C42.5692 70.52 41.9692 71.348 41.1532 72.092C40.3612 72.812 39.4012 73.388 38.2732 73.82C37.1692 74.228 35.9572 74.432 34.6372 74.432ZM54.7713 74.432C52.7793 74.432 51.0273 73.94 49.5153 72.956C48.0273 71.972 46.9833 70.652 46.3833 68.996L49.5153 67.52C50.0433 68.624 50.7633 69.5 51.6753 70.148C52.6113 70.796 53.6433 71.12 54.7713 71.12C55.7313 71.12 56.5113 70.904 57.1113 70.472C57.7113 70.04 58.0113 69.452 58.0113 68.708C58.0113 68.228 57.8793 67.844 57.6153 67.556C57.3513 67.244 57.0153 66.992 56.6073 66.8C56.2233 66.608 55.8273 66.464 55.4193 66.368L52.3593 65.504C50.6793 65.024 49.4193 64.304 48.5793 63.344C47.7633 62.36 47.3553 61.22 47.3553 59.924C47.3553 58.748 47.6553 57.728 48.2553 56.864C48.8553 55.976 49.6833 55.292 50.7393 54.812C51.7953 54.332 52.9833 54.092 54.3033 54.092C56.0793 54.092 57.6633 54.536 59.0553 55.424C60.4473 56.288 61.4313 57.5 62.0073 59.06L58.8753 60.536C58.4913 59.6 57.8793 58.856 57.0393 58.304C56.2233 57.752 55.2993 57.476 54.2673 57.476C53.3793 57.476 52.6713 57.692 52.1433 58.124C51.6153 58.532 51.3513 59.072 51.3513 59.744C51.3513 60.2 51.4713 60.584 51.7113 60.896C51.9513 61.184 52.2633 61.424 52.6473 61.616C53.0313 61.784 53.4273 61.928 53.8353 62.048L57.0033 62.984C58.6113 63.44 59.8473 64.16 60.7113 65.144C61.5753 66.104 62.0073 67.256 62.0073 68.6C62.0073 69.752 61.6953 70.772 61.0713 71.66C60.4713 72.524 59.6313 73.208 58.5513 73.712C57.4713 74.192 56.2113 74.432 54.7713 74.432ZM65.9932 74V54.524H70.0612V74H65.9932ZM65.9932 51.86V47.18H70.0612V51.86H65.9932ZM84.2134 81.92C82.7974 81.92 81.4894 81.692 80.2894 81.236C79.0894 80.78 78.0574 80.144 77.1934 79.328C76.3294 78.536 75.6814 77.6 75.2494 76.52L78.9934 74.972C79.3294 75.884 79.9414 76.64 80.8294 77.24C81.7414 77.84 82.8574 78.14 84.1774 78.14C85.2094 78.14 86.1334 77.936 86.9494 77.528C87.7654 77.144 88.4134 76.568 88.8934 75.8C89.3734 75.056 89.6134 74.156 89.6134 73.1V68.708L90.3334 69.536C89.6614 70.784 88.7254 71.732 87.5254 72.38C86.3494 73.028 85.0174 73.352 83.5294 73.352C81.7294 73.352 80.1094 72.932 78.6694 72.092C77.2294 71.252 76.0894 70.1 75.2494 68.636C74.4334 67.172 74.0254 65.528 74.0254 63.704C74.0254 61.856 74.4334 60.212 75.2494 58.772C76.0894 57.332 77.2174 56.192 78.6334 55.352C80.0494 54.512 81.6694 54.092 83.4934 54.092C84.9814 54.092 86.3014 54.416 87.4534 55.064C88.6294 55.688 89.5894 56.6 90.3334 57.8L89.7934 58.808V54.524H93.6454V73.1C93.6454 74.78 93.2374 76.28 92.4214 77.6C91.6294 78.944 90.5254 80 89.1094 80.768C87.6934 81.536 86.0614 81.92 84.2134 81.92ZM83.9974 69.572C85.0774 69.572 86.0374 69.32 86.8774 68.816C87.7174 68.288 88.3774 67.592 88.8574 66.728C89.3614 65.84 89.6134 64.844 89.6134 63.74C89.6134 62.636 89.3614 61.64 88.8574 60.752C88.3534 59.864 87.6814 59.168 86.8414 58.664C86.0014 58.136 85.0534 57.872 83.9974 57.872C82.8934 57.872 81.9094 58.136 81.0454 58.664C80.1814 59.168 79.4974 59.864 78.9934 60.752C78.5134 61.616 78.2734 62.612 78.2734 63.74C78.2734 64.82 78.5134 65.804 78.9934 66.692C79.4974 67.58 80.1814 68.288 81.0454 68.816C81.9094 69.32 82.8934 69.572 83.9974 69.572ZM98.4072 74V54.524H102.295V58.34L101.827 57.836C102.307 56.612 103.075 55.688 104.131 55.064C105.187 54.416 106.411 54.092 107.803 54.092C109.243 54.092 110.515 54.404 111.619 55.028C112.723 55.652 113.587 56.516 114.211 57.62C114.835 58.724 115.147 59.996 115.147 61.436V74H111.115V62.516C111.115 61.532 110.935 60.704 110.575 60.032C110.215 59.336 109.699 58.808 109.027 58.448C108.379 58.064 107.635 57.872 106.795 57.872C105.955 57.872 105.199 58.064 104.527 58.448C103.879 58.808 103.375 59.336 103.015 60.032C102.655 60.728 102.475 61.556 102.475 62.516V74H98.4072ZM134.938 74.432C132.994 74.432 131.266 73.988 129.754 73.1C128.266 72.188 127.102 70.964 126.262 69.428C125.422 67.868 125.002 66.128 125.002 64.208C125.002 62.24 125.422 60.5 126.262 58.988C127.126 57.476 128.278 56.288 129.718 55.424C131.158 54.536 132.79 54.092 134.614 54.092C136.078 54.092 137.386 54.344 138.538 54.848C139.69 55.352 140.662 56.048 141.454 56.936C142.246 57.8 142.846 58.796 143.254 59.924C143.686 61.052 143.902 62.252 143.902 63.524C143.902 63.836 143.89 64.16 143.866 64.496C143.842 64.832 143.794 65.144 143.722 65.432H128.206V62.192H141.418L139.474 63.668C139.714 62.492 139.63 61.448 139.222 60.536C138.838 59.6 138.238 58.868 137.422 58.34C136.63 57.788 135.694 57.512 134.614 57.512C133.534 57.512 132.574 57.788 131.734 58.34C130.894 58.868 130.246 59.636 129.79 60.644C129.334 61.628 129.154 62.828 129.25 64.244C129.13 65.564 129.31 66.716 129.79 67.7C130.294 68.684 130.99 69.452 131.878 70.004C132.79 70.556 133.822 70.832 134.974 70.832C136.15 70.832 137.146 70.568 137.962 70.04C138.802 69.512 139.462 68.828 139.942 67.988L143.254 69.608C142.87 70.52 142.27 71.348 141.454 72.092C140.662 72.812 139.702 73.388 138.574 73.82C137.47 74.228 136.258 74.432 134.938 74.432ZM162.589 74.216C160.549 74.216 158.965 73.64 157.837 72.488C156.709 71.336 156.145 69.716 156.145 67.628V58.196H152.725V54.524H153.265C154.177 54.524 154.885 54.26 155.389 53.732C155.893 53.204 156.145 52.484 156.145 51.572V50.06H160.213V54.524H164.641V58.196H160.213V67.448C160.213 68.12 160.321 68.696 160.537 69.176C160.753 69.632 161.101 69.992 161.581 70.256C162.061 70.496 162.685 70.616 163.453 70.616C163.645 70.616 163.861 70.604 164.101 70.58C164.341 70.556 164.569 70.532 164.785 70.508V74C164.449 74.048 164.077 74.096 163.669 74.144C163.261 74.192 162.901 74.216 162.589 74.216ZM177.547 74.432C175.603 74.432 173.875 73.988 172.363 73.1C170.875 72.188 169.711 70.964 168.871 69.428C168.031 67.868 167.611 66.128 167.611 64.208C167.611 62.24 168.031 60.5 168.871 58.988C169.735 57.476 170.887 56.288 172.327 55.424C173.767 54.536 175.399 54.092 177.223 54.092C178.687 54.092 179.995 54.344 181.147 54.848C182.299 55.352 183.271 56.048 184.063 56.936C184.855 57.8 185.455 58.796 185.863 59.924C186.295 61.052 186.511 62.252 186.511 63.524C186.511 63.836 186.499 64.16 186.475 64.496C186.451 64.832 186.403 65.144 186.331 65.432H170.815V62.192H184.027L182.083 63.668C182.323 62.492 182.239 61.448 181.831 60.536C181.447 59.6 180.847 58.868 180.031 58.34C179.239 57.788 178.303 57.512 177.223 57.512C176.143 57.512 175.183 57.788 174.343 58.34C173.503 58.868 172.855 59.636 172.399 60.644C171.943 61.628 171.763 62.828 171.859 64.244C171.739 65.564 171.919 66.716 172.399 67.7C172.903 68.684 173.599 69.452 174.487 70.004C175.399 70.556 176.431 70.832 177.583 70.832C178.759 70.832 179.755 70.568 180.571 70.04C181.411 69.512 182.071 68.828 182.551 67.988L185.863 69.608C185.479 70.52 184.879 71.348 184.063 72.092C183.271 72.812 182.311 73.388 181.183 73.82C180.079 74.228 178.867 74.432 177.547 74.432ZM199.733 74.432C197.789 74.432 196.061 73.988 194.549 73.1C193.061 72.188 191.873 70.964 190.985 69.428C190.121 67.892 189.689 66.152 189.689 64.208C189.689 62.288 190.121 60.56 190.985 59.024C191.849 57.488 193.037 56.288 194.549 55.424C196.061 54.536 197.789 54.092 199.733 54.092C201.053 54.092 202.289 54.332 203.441 54.812C204.593 55.268 205.589 55.904 206.429 56.72C207.293 57.536 207.929 58.484 208.337 59.564L204.773 61.22C204.365 60.212 203.705 59.408 202.793 58.808C201.905 58.184 200.885 57.872 199.733 57.872C198.629 57.872 197.633 58.148 196.745 58.7C195.881 59.228 195.197 59.984 194.693 60.968C194.189 61.928 193.937 63.02 193.937 64.244C193.937 65.468 194.189 66.572 194.693 67.556C195.197 68.516 195.881 69.272 196.745 69.824C197.633 70.376 198.629 70.652 199.733 70.652C200.909 70.652 201.929 70.352 202.793 69.752C203.681 69.128 204.341 68.3 204.773 67.268L208.337 68.96C207.953 69.992 207.329 70.928 206.465 71.768C205.625 72.584 204.629 73.232 203.477 73.712C202.325 74.192 201.077 74.432 199.733 74.432ZM212.313 74V54.524H216.202V58.34L215.734 57.836C216.214 56.612 216.982 55.688 218.038 55.064C219.094 54.416 220.318 54.092 221.71 54.092C223.15 54.092 224.422 54.404 225.526 55.028C226.63 55.652 227.494 56.516 228.117 57.62C228.742 58.724 229.054 59.996 229.054 61.436V74H225.022V62.516C225.022 61.532 224.842 60.704 224.482 60.032C224.122 59.336 223.606 58.808 222.934 58.448C222.286 58.064 221.542 57.872 220.702 57.872C219.862 57.872 219.106 58.064 218.434 58.448C217.786 58.808 217.282 59.336 216.922 60.032C216.562 60.728 216.382 61.556 216.382 62.516V74H212.313ZM242.803 74.432C240.931 74.432 239.215 73.988 237.655 73.1C236.119 72.212 234.895 71 233.983 69.464C233.071 67.928 232.615 66.188 232.615 64.244C232.615 62.276 233.071 60.536 233.983 59.024C234.895 57.488 236.119 56.288 237.655 55.424C239.191 54.536 240.907 54.092 242.803 54.092C244.723 54.092 246.439 54.536 247.951 55.424C249.487 56.288 250.699 57.488 251.587 59.024C252.499 60.536 252.955 62.276 252.955 64.244C252.955 66.212 252.499 67.964 251.587 69.5C250.675 71.036 249.451 72.248 247.915 73.136C246.379 74 244.675 74.432 242.803 74.432ZM242.803 70.652C243.955 70.652 244.975 70.376 245.863 69.824C246.751 69.272 247.447 68.516 247.951 67.556C248.479 66.572 248.743 65.468 248.743 64.244C248.743 63.02 248.479 61.928 247.951 60.968C247.447 60.008 246.751 59.252 245.863 58.7C244.975 58.148 243.955 57.872 242.803 57.872C241.675 57.872 240.655 58.148 239.743 58.7C238.855 59.252 238.147 60.008 237.619 60.968C237.115 61.928 236.863 63.02 236.863 64.244C236.863 65.468 237.115 66.572 237.619 67.556C238.147 68.516 238.855 69.272 239.743 69.824C240.655 70.376 241.675 70.652 242.803 70.652ZM256.927 74V46.748H260.995V74H256.927ZM275.147 74.432C273.275 74.432 271.559 73.988 269.999 73.1C268.463 72.212 267.239 71 266.327 69.464C265.415 67.928 264.959 66.188 264.959 64.244C264.959 62.276 265.415 60.536 266.327 59.024C267.239 57.488 268.463 56.288 269.999 55.424C271.535 54.536 273.251 54.092 275.147 54.092C277.067 54.092 278.783 54.536 280.295 55.424C281.831 56.288 283.043 57.488 283.931 59.024C284.843 60.536 285.299 62.276 285.299 64.244C285.299 66.212 284.843 67.964 283.931 69.5C283.019 71.036 281.795 72.248 280.259 73.136C278.723 74 277.019 74.432 275.147 74.432ZM275.147 70.652C276.299 70.652 277.319 70.376 278.207 69.824C279.095 69.272 279.791 68.516 280.295 67.556C280.823 66.572 281.087 65.468 281.087 64.244C281.087 63.02 280.823 61.928 280.295 60.968C279.791 60.008 279.095 59.252 278.207 58.7C277.319 58.148 276.299 57.872 275.147 57.872C274.019 57.872 272.999 58.148 272.087 58.7C271.199 59.252 270.491 60.008 269.963 60.968C269.459 61.928 269.207 63.02 269.207 64.244C269.207 65.468 269.459 66.572 269.963 67.556C270.491 68.516 271.199 69.272 272.087 69.824C272.999 70.376 274.019 70.652 275.147 70.652ZM298.667 81.92C297.251 81.92 295.943 81.692 294.743 81.236C293.543 80.78 292.511 80.144 291.647 79.328C290.783 78.536 290.135 77.6 289.703 76.52L293.447 74.972C293.783 75.884 294.395 76.64 295.283 77.24C296.195 77.84 297.311 78.14 298.631 78.14C299.663 78.14 300.587 77.936 301.403 77.528C302.219 77.144 302.867 76.568 303.347 75.8C303.827 75.056 304.067 74.156 304.067 73.1V68.708L304.787 69.536C304.115 70.784 303.179 71.732 301.979 72.38C300.803 73.028 299.471 73.352 297.983 73.352C296.183 73.352 294.563 72.932 293.123 72.092C291.683 71.252 290.543 70.1 289.703 68.636C288.887 67.172 288.479 65.528 288.479 63.704C288.479 61.856 288.887 60.212 289.703 58.772C290.543 57.332 291.671 56.192 293.087 55.352C294.503 54.512 296.123 54.092 297.947 54.092C299.435 54.092 300.755 54.416 301.907 55.064C303.083 55.688 304.043 56.6 304.787 57.8L304.247 58.808V54.524H308.099V73.1C308.099 74.78 307.691 76.28 306.875 77.6C306.083 78.944 304.979 80 303.563 80.768C302.147 81.536 300.515 81.92 298.667 81.92ZM298.451 69.572C299.531 69.572 300.491 69.32 301.331 68.816C302.171 68.288 302.831 67.592 303.311 66.728C303.815 65.84 304.067 64.844 304.067 63.74C304.067 62.636 303.815 61.64 303.311 60.752C302.807 59.864 302.135 59.168 301.295 58.664C300.455 58.136 299.507 57.872 298.451 57.872C297.347 57.872 296.363 58.136 295.499 58.664C294.635 59.168 293.951 59.864 293.447 60.752C292.967 61.616 292.727 62.612 292.727 63.74C292.727 64.82 292.967 65.804 293.447 66.692C293.951 67.58 294.635 68.288 295.499 68.816C296.363 69.32 297.347 69.572 298.451 69.572ZM312.86 74V54.524H316.928V74H312.86ZM312.86 51.86V47.18H316.928V51.86H312.86ZM327.517 74.432C326.197 74.432 325.033 74.204 324.025 73.748C323.041 73.268 322.273 72.62 321.721 71.804C321.169 70.964 320.893 69.98 320.893 68.852C320.893 67.796 321.121 66.848 321.577 66.008C322.057 65.168 322.789 64.46 323.773 63.884C324.757 63.308 325.993 62.9 327.481 62.66L334.249 61.544V64.748L328.273 65.792C327.193 65.984 326.401 66.332 325.897 66.836C325.393 67.316 325.141 67.94 325.141 68.708C325.141 69.452 325.417 70.064 325.969 70.544C326.545 71 327.277 71.228 328.165 71.228C329.269 71.228 330.229 70.988 331.045 70.508C331.885 70.028 332.533 69.392 332.989 68.6C333.445 67.784 333.673 66.884 333.673 65.9V60.896C333.673 59.936 333.313 59.156 332.593 58.556C331.897 57.932 330.961 57.62 329.785 57.62C328.705 57.62 327.757 57.908 326.941 58.484C326.149 59.036 325.561 59.756 325.177 60.644L321.793 58.952C322.153 57.992 322.741 57.152 323.557 56.432C324.373 55.688 325.321 55.112 326.401 54.704C327.505 54.296 328.669 54.092 329.893 54.092C331.429 54.092 332.785 54.38 333.961 54.956C335.161 55.532 336.085 56.336 336.733 57.368C337.405 58.376 337.741 59.552 337.741 60.896V74H333.853V70.472L334.681 70.58C334.225 71.372 333.637 72.056 332.917 72.632C332.221 73.208 331.417 73.652 330.505 73.964C329.617 74.276 328.621 74.432 327.517 74.432ZM357.79 74.432C355.918 74.432 354.238 73.988 352.75 73.1C351.286 72.188 350.122 70.964 349.258 69.428C348.418 67.892 347.998 66.164 347.998 64.244C347.998 62.324 348.43 60.596 349.294 59.06C350.158 57.524 351.322 56.312 352.786 55.424C354.25 54.536 355.906 54.092 357.754 54.092C359.314 54.092 360.694 54.404 361.894 55.028C363.094 55.652 364.042 56.516 364.738 57.62L364.126 58.556V46.748H368.158V74H364.306V70.04L364.774 70.796C364.102 71.972 363.142 72.872 361.894 73.496C360.646 74.12 359.278 74.432 357.79 74.432ZM358.186 70.652C359.314 70.652 360.322 70.376 361.21 69.824C362.122 69.272 362.83 68.516 363.334 67.556C363.862 66.572 364.126 65.468 364.126 64.244C364.126 63.02 363.862 61.928 363.334 60.968C362.83 60.008 362.122 59.252 361.21 58.7C360.322 58.148 359.314 57.872 358.186 57.872C357.058 57.872 356.038 58.148 355.126 58.7C354.214 59.252 353.506 60.008 353.002 60.968C352.498 61.928 352.246 63.02 352.246 64.244C352.246 65.468 352.498 66.572 353.002 67.556C353.506 68.516 354.202 69.272 355.09 69.824C356.002 70.376 357.034 70.652 358.186 70.652ZM382.051 74.432C380.107 74.432 378.379 73.988 376.867 73.1C375.379 72.188 374.215 70.964 373.375 69.428C372.535 67.868 372.115 66.128 372.115 64.208C372.115 62.24 372.535 60.5 373.375 58.988C374.239 57.476 375.391 56.288 376.831 55.424C378.271 54.536 379.903 54.092 381.727 54.092C383.191 54.092 384.499 54.344 385.651 54.848C386.803 55.352 387.775 56.048 388.567 56.936C389.359 57.8 389.959 58.796 390.367 59.924C390.799 61.052 391.015 62.252 391.015 63.524C391.015 63.836 391.003 64.16 390.979 64.496C390.955 64.832 390.907 65.144 390.835 65.432H375.319V62.192H388.531L386.587 63.668C386.827 62.492 386.743 61.448 386.335 60.536C385.951 59.6 385.351 58.868 384.535 58.34C383.743 57.788 382.807 57.512 381.727 57.512C380.647 57.512 379.687 57.788 378.847 58.34C378.007 58.868 377.359 59.636 376.903 60.644C376.447 61.628 376.267 62.828 376.363 64.244C376.243 65.564 376.423 66.716 376.903 67.7C377.407 68.684 378.103 69.452 378.991 70.004C379.903 70.556 380.935 70.832 382.087 70.832C383.263 70.832 384.259 70.568 385.075 70.04C385.915 69.512 386.575 68.828 387.055 67.988L390.367 69.608C389.983 70.52 389.383 71.348 388.567 72.092C387.775 72.812 386.815 73.388 385.687 73.82C384.583 74.228 383.371 74.432 382.051 74.432ZM401.278 81.2V54.524H405.166V58.556L404.698 57.62C405.418 56.516 406.378 55.652 407.578 55.028C408.778 54.404 410.146 54.092 411.682 54.092C413.53 54.092 415.186 54.536 416.65 55.424C418.138 56.312 419.302 57.524 420.142 59.06C421.006 60.596 421.438 62.324 421.438 64.244C421.438 66.164 421.006 67.892 420.142 69.428C419.302 70.964 418.15 72.188 416.686 73.1C415.222 73.988 413.554 74.432 411.682 74.432C410.17 74.432 408.79 74.12 407.542 73.496C406.318 72.872 405.37 71.972 404.698 70.796L405.346 70.04V81.2H401.278ZM411.286 70.652C412.438 70.652 413.458 70.376 414.346 69.824C415.234 69.272 415.93 68.516 416.434 67.556C416.962 66.572 417.226 65.468 417.226 64.244C417.226 63.02 416.962 61.928 416.434 60.968C415.93 60.008 415.234 59.252 414.346 58.7C413.458 58.148 412.438 57.872 411.286 57.872C410.158 57.872 409.138 58.148 408.226 58.7C407.338 59.252 406.63 60.008 406.102 60.968C405.598 61.928 405.346 63.02 405.346 64.244C405.346 65.468 405.598 66.572 406.102 67.556C406.63 68.516 407.338 69.272 408.226 69.824C409.138 70.376 410.158 70.652 411.286 70.652ZM434.792 74.432C432.92 74.432 431.204 73.988 429.644 73.1C428.108 72.212 426.884 71 425.972 69.464C425.06 67.928 424.604 66.188 424.604 64.244C424.604 62.276 425.06 60.536 425.972 59.024C426.884 57.488 428.108 56.288 429.644 55.424C431.18 54.536 432.896 54.092 434.792 54.092C436.712 54.092 438.428 54.536 439.94 55.424C441.476 56.288 442.688 57.488 443.576 59.024C444.488 60.536 444.944 62.276 444.944 64.244C444.944 66.212 444.488 67.964 443.576 69.5C442.664 71.036 441.44 72.248 439.904 73.136C438.368 74 436.664 74.432 434.792 74.432ZM434.792 70.652C435.944 70.652 436.964 70.376 437.852 69.824C438.74 69.272 439.436 68.516 439.94 67.556C440.468 66.572 440.732 65.468 440.732 64.244C440.732 63.02 440.468 61.928 439.94 60.968C439.436 60.008 438.74 59.252 437.852 58.7C436.964 58.148 435.944 57.872 434.792 57.872C433.664 57.872 432.644 58.148 431.732 58.7C430.844 59.252 430.136 60.008 429.608 60.968C429.104 61.928 428.852 63.02 428.852 64.244C428.852 65.468 429.104 66.572 429.608 67.556C430.136 68.516 430.844 69.272 431.732 69.824C432.644 70.376 433.664 70.652 434.792 70.652ZM448.915 74V54.524H452.803V58.34L452.335 57.836C452.815 56.612 453.583 55.688 454.639 55.064C455.695 54.416 456.919 54.092 458.311 54.092C459.751 54.092 461.023 54.404 462.127 55.028C463.231 55.652 464.095 56.516 464.719 57.62C465.343 58.724 465.655 59.996 465.655 61.436V74H461.623V62.516C461.623 61.532 461.443 60.704 461.083 60.032C460.723 59.336 460.207 58.808 459.535 58.448C458.887 58.064 458.143 57.872 457.303 57.872C456.463 57.872 455.707 58.064 455.035 58.448C454.387 58.808 453.883 59.336 453.523 60.032C453.163 60.728 452.983 61.556 452.983 62.516V74H448.915ZM478.433 74.216C476.393 74.216 474.809 73.64 473.681 72.488C472.553 71.336 471.989 69.716 471.989 67.628V58.196H468.569V54.524H469.109C470.021 54.524 470.729 54.26 471.233 53.732C471.737 53.204 471.989 52.484 471.989 51.572V50.06H476.057V54.524H480.485V58.196H476.057V67.448C476.057 68.12 476.165 68.696 476.381 69.176C476.597 69.632 476.945 69.992 477.425 70.256C477.905 70.496 478.529 70.616 479.297 70.616C479.489 70.616 479.705 70.604 479.945 70.58C480.185 70.556 480.413 70.532 480.629 70.508V74C480.293 74.048 479.921 74.096 479.513 74.144C479.105 74.192 478.745 74.216 478.433 74.216ZM490.255 74.432C488.935 74.432 487.771 74.204 486.763 73.748C485.779 73.268 485.011 72.62 484.459 71.804C483.907 70.964 483.631 69.98 483.631 68.852C483.631 67.796 483.859 66.848 484.315 66.008C484.795 65.168 485.527 64.46 486.511 63.884C487.495 63.308 488.731 62.9 490.219 62.66L496.987 61.544V64.748L491.011 65.792C489.931 65.984 489.139 66.332 488.635 66.836C488.131 67.316 487.879 67.94 487.879 68.708C487.879 69.452 488.155 70.064 488.707 70.544C489.283 71 490.015 71.228 490.903 71.228C492.007 71.228 492.967 70.988 493.783 70.508C494.623 70.028 495.271 69.392 495.727 68.6C496.183 67.784 496.411 66.884 496.411 65.9V60.896C496.411 59.936 496.051 59.156 495.331 58.556C494.635 57.932 493.699 57.62 492.523 57.62C491.443 57.62 490.495 57.908 489.679 58.484C488.887 59.036 488.299 59.756 487.915 60.644L484.531 58.952C484.891 57.992 485.479 57.152 486.295 56.432C487.111 55.688 488.059 55.112 489.139 54.704C490.243 54.296 491.407 54.092 492.631 54.092C494.167 54.092 495.523 54.38 496.699 54.956C497.899 55.532 498.823 56.336 499.471 57.368C500.143 58.376 500.479 59.552 500.479 60.896V74H496.591V70.472L497.419 70.58C496.963 71.372 496.375 72.056 495.655 72.632C494.959 73.208 494.155 73.652 493.243 73.964C492.355 74.276 491.359 74.432 490.255 74.432ZM1.376 126.2V99.524H5.264V103.556L4.796 102.62C5.516 101.516 6.476 100.652 7.676 100.028C8.876 99.404 10.244 99.092 11.78 99.092C13.628 99.092 15.284 99.536 16.748 100.424C18.236 101.312 19.4 102.524 20.24 104.06C21.104 105.596 21.536 107.324 21.536 109.244C21.536 111.164 21.104 112.892 20.24 114.428C19.4 115.964 18.248 117.188 16.784 118.1C15.32 118.988 13.652 119.432 11.78 119.432C10.268 119.432 8.888 119.12 7.64 118.496C6.416 117.872 5.468 116.972 4.796 115.796L5.444 115.04V126.2H1.376ZM11.384 115.652C12.536 115.652 13.556 115.376 14.444 114.824C15.332 114.272 16.028 113.516 16.532 112.556C17.06 111.572 17.324 110.468 17.324 109.244C17.324 108.02 17.06 106.928 16.532 105.968C16.028 105.008 15.332 104.252 14.444 103.7C13.556 103.148 12.536 102.872 11.384 102.872C10.256 102.872 9.236 103.148 8.324 103.7C7.436 104.252 6.728 105.008 6.2 105.968C5.696 106.928 5.444 108.02 5.444 109.244C5.444 110.468 5.696 111.572 6.2 112.556C6.728 113.516 7.436 114.272 8.324 114.824C9.236 115.376 10.256 115.652 11.384 115.652ZM31.3252 119.432C30.0052 119.432 28.8412 119.204 27.8332 118.748C26.8492 118.268 26.0812 117.62 25.5292 116.804C24.9772 115.964 24.7012 114.98 24.7012 113.852C24.7012 112.796 24.9292 111.848 25.3852 111.008C25.8652 110.168 26.5972 109.46 27.5812 108.884C28.5652 108.308 29.8012 107.9 31.2892 107.66L38.0572 106.544V109.748L32.0812 110.792C31.0012 110.984 30.2092 111.332 29.7052 111.836C29.2012 112.316 28.9492 112.94 28.9492 113.708C28.9492 114.452 29.2252 115.064 29.7772 115.544C30.3532 116 31.0852 116.228 31.9732 116.228C33.0772 116.228 34.0372 115.988 34.8532 115.508C35.6932 115.028 36.3412 114.392 36.7972 113.6C37.2532 112.784 37.4812 111.884 37.4812 110.9V105.896C37.4812 104.936 37.1212 104.156 36.4012 103.556C35.7052 102.932 34.7692 102.62 33.5932 102.62C32.5132 102.62 31.5652 102.908 30.7492 103.484C29.9572 104.036 29.3692 104.756 28.9852 105.644L25.6012 103.952C25.9612 102.992 26.5492 102.152 27.3652 101.432C28.1812 100.688 29.1292 100.112 30.2092 99.704C31.3132 99.296 32.4772 99.092 33.7012 99.092C35.2372 99.092 36.5932 99.38 37.7692 99.956C38.9692 100.532 39.8932 101.336 40.5412 102.368C41.2132 103.376 41.5492 104.552 41.5492 105.896V119H37.6612V115.472L38.4892 115.58C38.0332 116.372 37.4452 117.056 36.7252 117.632C36.0292 118.208 35.2252 118.652 34.3132 118.964C33.4252 119.276 32.4292 119.432 31.3252 119.432ZM46.3057 119V99.524H50.1937V103.448L49.8337 102.872C50.2657 101.6 50.9617 100.688 51.9217 100.136C52.8817 99.56 54.0337 99.272 55.3777 99.272H56.5657V102.98H54.8737C53.5297 102.98 52.4377 103.4 51.5977 104.24C50.7817 105.056 50.3737 106.232 50.3737 107.768V119H46.3057ZM65.1807 119.432C63.8607 119.432 62.6967 119.204 61.6887 118.748C60.7047 118.268 59.9367 117.62 59.3847 116.804C58.8327 115.964 58.5567 114.98 58.5567 113.852C58.5567 112.796 58.7847 111.848 59.2407 111.008C59.7207 110.168 60.4527 109.46 61.4367 108.884C62.4207 108.308 63.6567 107.9 65.1447 107.66L71.9127 106.544V109.748L65.9367 110.792C64.8567 110.984 64.0647 111.332 63.5607 111.836C63.0567 112.316 62.8047 112.94 62.8047 113.708C62.8047 114.452 63.0807 115.064 63.6327 115.544C64.2087 116 64.9407 116.228 65.8287 116.228C66.9327 116.228 67.8927 115.988 68.7087 115.508C69.5487 115.028 70.1967 114.392 70.6527 113.6C71.1087 112.784 71.3367 111.884 71.3367 110.9V105.896C71.3367 104.936 70.9767 104.156 70.2567 103.556C69.5607 102.932 68.6247 102.62 67.4487 102.62C66.3687 102.62 65.4207 102.908 64.6047 103.484C63.8127 104.036 63.2247 104.756 62.8407 105.644L59.4567 103.952C59.8167 102.992 60.4047 102.152 61.2207 101.432C62.0367 100.688 62.9847 100.112 64.0647 99.704C65.1687 99.296 66.3327 99.092 67.5567 99.092C69.0927 99.092 70.4487 99.38 71.6247 99.956C72.8247 100.532 73.7487 101.336 74.3967 102.368C75.0687 103.376 75.4047 104.552 75.4047 105.896V119H71.5167V115.472L72.3447 115.58C71.8887 116.372 71.3007 117.056 70.5807 117.632C69.8847 118.208 69.0807 118.652 68.1687 118.964C67.2807 119.276 66.2847 119.432 65.1807 119.432ZM95.8501 119.432C93.9781 119.432 92.2621 118.988 90.7021 118.1C89.1661 117.212 87.9421 116 87.0301 114.464C86.1181 112.928 85.6621 111.188 85.6621 109.244C85.6621 107.276 86.1181 105.536 87.0301 104.024C87.9421 102.488 89.1661 101.288 90.7021 100.424C92.2381 99.536 93.9541 99.092 95.8501 99.092C97.7701 99.092 99.4861 99.536 100.998 100.424C102.534 101.288 103.746 102.488 104.634 104.024C105.546 105.536 106.002 107.276 106.002 109.244C106.002 111.212 105.546 112.964 104.634 114.5C103.722 116.036 102.498 117.248 100.962 118.136C99.4261 119 97.7221 119.432 95.8501 119.432ZM95.8501 115.652C97.0021 115.652 98.0221 115.376 98.9101 114.824C99.7981 114.272 100.494 113.516 100.998 112.556C101.526 111.572 101.79 110.468 101.79 109.244C101.79 108.02 101.526 106.928 100.998 105.968C100.494 105.008 99.7981 104.252 98.9101 103.7C98.0221 103.148 97.0021 102.872 95.8501 102.872C94.7221 102.872 93.7021 103.148 92.7901 103.7C91.9021 104.252 91.1941 105.008 90.6661 105.968C90.1621 106.928 89.9101 108.02 89.9101 109.244C89.9101 110.468 90.1621 111.572 90.6661 112.556C91.1941 113.516 91.9021 114.272 92.7901 114.824C93.7021 115.376 94.7221 115.652 95.8501 115.652ZM123.467 119.432C121.475 119.432 119.723 118.94 118.211 117.956C116.723 116.972 115.679 115.652 115.079 113.996L118.211 112.52C118.739 113.624 119.459 114.5 120.371 115.148C121.307 115.796 122.339 116.12 123.467 116.12C124.427 116.12 125.207 115.904 125.807 115.472C126.407 115.04 126.707 114.452 126.707 113.708C126.707 113.228 126.575 112.844 126.311 112.556C126.047 112.244 125.711 111.992 125.303 111.8C124.919 111.608 124.523 111.464 124.115 111.368L121.055 110.504C119.375 110.024 118.115 109.304 117.275 108.344C116.459 107.36 116.051 106.22 116.051 104.924C116.051 103.748 116.351 102.728 116.951 101.864C117.551 100.976 118.379 100.292 119.435 99.812C120.491 99.332 121.679 99.092 122.999 99.092C124.775 99.092 126.359 99.536 127.751 100.424C129.143 101.288 130.127 102.5 130.703 104.06L127.571 105.536C127.187 104.6 126.575 103.856 125.735 103.304C124.919 102.752 123.995 102.476 122.963 102.476C122.075 102.476 121.367 102.692 120.839 103.124C120.311 103.532 120.047 104.072 120.047 104.744C120.047 105.2 120.167 105.584 120.407 105.896C120.647 106.184 120.959 106.424 121.343 106.616C121.727 106.784 122.123 106.928 122.531 107.048L125.699 107.984C127.307 108.44 128.543 109.16 129.407 110.144C130.271 111.104 130.703 112.256 130.703 113.6C130.703 114.752 130.391 115.772 129.767 116.66C129.167 117.524 128.327 118.208 127.247 118.712C126.167 119.192 124.907 119.432 123.467 119.432ZM143.833 119.432C141.889 119.432 140.161 118.988 138.649 118.1C137.161 117.188 135.997 115.964 135.157 114.428C134.317 112.868 133.897 111.128 133.897 109.208C133.897 107.24 134.317 105.5 135.157 103.988C136.021 102.476 137.173 101.288 138.613 100.424C140.053 99.536 141.685 99.092 143.509 99.092C144.973 99.092 146.281 99.344 147.433 99.848C148.585 100.352 149.557 101.048 150.349 101.936C151.141 102.8 151.741 103.796 152.148 104.924C152.581 106.052 152.797 107.252 152.797 108.524C152.797 108.836 152.785 109.16 152.761 109.496C152.737 109.832 152.689 110.144 152.617 110.432H137.101V107.192H150.312L148.369 108.668C148.609 107.492 148.525 106.448 148.117 105.536C147.733 104.6 147.133 103.868 146.317 103.34C145.525 102.788 144.589 102.512 143.509 102.512C142.429 102.512 141.469 102.788 140.629 103.34C139.789 103.868 139.141 104.636 138.685 105.644C138.229 106.628 138.049 107.828 138.145 109.244C138.025 110.564 138.205 111.716 138.685 112.7C139.189 113.684 139.885 114.452 140.773 115.004C141.685 115.556 142.717 115.832 143.869 115.832C145.045 115.832 146.041 115.568 146.857 115.04C147.697 114.512 148.357 113.828 148.837 112.988L152.148 114.608C151.765 115.52 151.165 116.348 150.349 117.092C149.557 117.812 148.597 118.388 147.469 118.82C146.365 119.228 145.153 119.432 143.833 119.432ZM163.715 119.432C162.251 119.432 160.967 119.108 159.863 118.46C158.759 117.788 157.895 116.864 157.271 115.688C156.671 114.488 156.371 113.108 156.371 111.548V99.524H160.439V111.188C160.439 112.076 160.619 112.856 160.979 113.528C161.339 114.2 161.843 114.728 162.491 115.112C163.139 115.472 163.883 115.652 164.723 115.652C165.587 115.652 166.343 115.46 166.991 115.076C167.639 114.692 168.143 114.152 168.503 113.456C168.887 112.76 169.079 111.944 169.079 111.008V99.524H173.111V119H169.259V115.184L169.691 115.688C169.235 116.888 168.479 117.812 167.423 118.46C166.367 119.108 165.131 119.432 163.715 119.432ZM184.153 119V99.524H188.041V103.34L187.573 102.836C188.053 101.612 188.821 100.688 189.877 100.064C190.933 99.416 192.157 99.092 193.549 99.092C194.989 99.092 196.261 99.404 197.365 100.028C198.469 100.652 199.333 101.516 199.957 102.62C200.581 103.724 200.893 104.996 200.893 106.436V119H196.861V107.516C196.861 106.532 196.681 105.704 196.321 105.032C195.961 104.336 195.445 103.808 194.773 103.448C194.125 103.064 193.381 102.872 192.541 102.872C191.701 102.872 190.945 103.064 190.273 103.448C189.625 103.808 189.121 104.336 188.761 105.032C188.401 105.728 188.221 106.556 188.221 107.516V119H184.153ZM214.391 119.432C212.447 119.432 210.719 118.988 209.207 118.1C207.719 117.188 206.555 115.964 205.715 114.428C204.875 112.868 204.455 111.128 204.455 109.208C204.455 107.24 204.875 105.5 205.715 103.988C206.579 102.476 207.731 101.288 209.171 100.424C210.611 99.536 212.243 99.092 214.067 99.092C215.531 99.092 216.839 99.344 217.991 99.848C219.143 100.352 220.115 101.048 220.907 101.936C221.699 102.8 222.299 103.796 222.707 104.924C223.139 106.052 223.355 107.252 223.355 108.524C223.355 108.836 223.343 109.16 223.319 109.496C223.295 109.832 223.247 110.144 223.175 110.432H207.659V107.192H220.871L218.927 108.668C219.167 107.492 219.083 106.448 218.675 105.536C218.291 104.6 217.691 103.868 216.875 103.34C216.083 102.788 215.147 102.512 214.067 102.512C212.987 102.512 212.027 102.788 211.187 103.34C210.347 103.868 209.699 104.636 209.243 105.644C208.787 106.628 208.607 107.828 208.703 109.244C208.583 110.564 208.763 111.716 209.243 112.7C209.747 113.684 210.443 114.452 211.331 115.004C212.243 115.556 213.275 115.832 214.427 115.832C215.603 115.832 216.599 115.568 217.415 115.04C218.255 114.512 218.915 113.828 219.395 112.988L222.707 114.608C222.323 115.52 221.723 116.348 220.907 117.092C220.115 117.812 219.155 118.388 218.027 118.82C216.923 119.228 215.711 119.432 214.391 119.432ZM236.721 126.92C235.305 126.92 233.997 126.692 232.797 126.236C231.597 125.78 230.565 125.144 229.701 124.328C228.837 123.536 228.189 122.6 227.757 121.52L231.501 119.972C231.837 120.884 232.449 121.64 233.337 122.24C234.249 122.84 235.365 123.14 236.685 123.14C237.717 123.14 238.641 122.936 239.457 122.528C240.273 122.144 240.921 121.568 241.401 120.8C241.881 120.056 242.121 119.156 242.121 118.1V113.708L242.841 114.536C242.169 115.784 241.233 116.732 240.033 117.38C238.857 118.028 237.525 118.352 236.037 118.352C234.237 118.352 232.617 117.932 231.177 117.092C229.737 116.252 228.597 115.1 227.757 113.636C226.941 112.172 226.533 110.528 226.533 108.704C226.533 106.856 226.941 105.212 227.757 103.772C228.597 102.332 229.725 101.192 231.141 100.352C232.557 99.512 234.177 99.092 236.001 99.092C237.489 99.092 238.809 99.416 239.961 100.064C241.137 100.688 242.097 101.6 242.841 102.8L242.301 103.808V99.524H246.153V118.1C246.153 119.78 245.745 121.28 244.929 122.6C244.137 123.944 243.033 125 241.617 125.768C240.201 126.536 238.569 126.92 236.721 126.92ZM236.505 114.572C237.585 114.572 238.545 114.32 239.385 113.816C240.225 113.288 240.885 112.592 241.365 111.728C241.869 110.84 242.121 109.844 242.121 108.74C242.121 107.636 241.869 106.64 241.365 105.752C240.861 104.864 240.189 104.168 239.349 103.664C238.509 103.136 237.561 102.872 236.505 102.872C235.401 102.872 234.417 103.136 233.553 103.664C232.689 104.168 232.005 104.864 231.501 105.752C231.021 106.616 230.781 107.612 230.781 108.74C230.781 109.82 231.021 110.804 231.501 111.692C232.005 112.58 232.689 113.288 233.553 113.816C234.417 114.32 235.401 114.572 236.505 114.572ZM260.311 119.432C258.439 119.432 256.723 118.988 255.163 118.1C253.627 117.212 252.403 116 251.491 114.464C250.579 112.928 250.123 111.188 250.123 109.244C250.123 107.276 250.579 105.536 251.491 104.024C252.403 102.488 253.627 101.288 255.163 100.424C256.699 99.536 258.415 99.092 260.311 99.092C262.231 99.092 263.947 99.536 265.459 100.424C266.995 101.288 268.207 102.488 269.095 104.024C270.007 105.536 270.463 107.276 270.463 109.244C270.463 111.212 270.007 112.964 269.095 114.5C268.183 116.036 266.959 117.248 265.423 118.136C263.887 119 262.183 119.432 260.311 119.432ZM260.311 115.652C261.463 115.652 262.483 115.376 263.371 114.824C264.259 114.272 264.955 113.516 265.459 112.556C265.987 111.572 266.251 110.468 266.251 109.244C266.251 108.02 265.987 106.928 265.459 105.968C264.955 105.008 264.259 104.252 263.371 103.7C262.483 103.148 261.463 102.872 260.311 102.872C259.183 102.872 258.163 103.148 257.251 103.7C256.363 104.252 255.655 105.008 255.127 105.968C254.623 106.928 254.371 108.02 254.371 109.244C254.371 110.468 254.623 111.572 255.127 112.556C255.655 113.516 256.363 114.272 257.251 114.824C258.163 115.376 259.183 115.652 260.311 115.652ZM258.295 95.96L260.923 90.02H266.251L262.327 95.96H258.295ZM283.687 119.432C281.743 119.432 280.015 118.988 278.503 118.1C277.015 117.188 275.827 115.964 274.939 114.428C274.075 112.892 273.643 111.152 273.643 109.208C273.643 107.288 274.075 105.56 274.939 104.024C275.803 102.488 276.991 101.288 278.503 100.424C280.015 99.536 281.743 99.092 283.687 99.092C285.007 99.092 286.243 99.332 287.395 99.812C288.547 100.268 289.543 100.904 290.383 101.72C291.247 102.536 291.883 103.484 292.291 104.564L288.727 106.22C288.319 105.212 287.659 104.408 286.747 103.808C285.859 103.184 284.839 102.872 283.687 102.872C282.583 102.872 281.587 103.148 280.699 103.7C279.835 104.228 279.151 104.984 278.647 105.968C278.143 106.928 277.891 108.02 277.891 109.244C277.891 110.468 278.143 111.572 278.647 112.556C279.151 113.516 279.835 114.272 280.699 114.824C281.587 115.376 282.583 115.652 283.687 115.652C284.863 115.652 285.883 115.352 286.747 114.752C287.635 114.128 288.295 113.3 288.727 112.268L292.291 113.96C291.907 114.992 291.283 115.928 290.419 116.768C289.579 117.584 288.583 118.232 287.431 118.712C286.279 119.192 285.031 119.432 283.687 119.432ZM296.267 119V99.524H300.335V119H296.267ZM296.267 96.86V92.18H300.335V96.86H296.267ZM314.487 119.432C312.615 119.432 310.899 118.988 309.339 118.1C307.803 117.212 306.579 116 305.667 114.464C304.755 112.928 304.299 111.188 304.299 109.244C304.299 107.276 304.755 105.536 305.667 104.024C306.579 102.488 307.803 101.288 309.339 100.424C310.875 99.536 312.591 99.092 314.487 99.092C316.407 99.092 318.123 99.536 319.635 100.424C321.171 101.288 322.383 102.488 323.271 104.024C324.183 105.536 324.639 107.276 324.639 109.244C324.639 111.212 324.183 112.964 323.271 114.5C322.359 116.036 321.135 117.248 319.599 118.136C318.063 119 316.359 119.432 314.487 119.432ZM314.487 115.652C315.639 115.652 316.659 115.376 317.547 114.824C318.435 114.272 319.131 113.516 319.635 112.556C320.163 111.572 320.427 110.468 320.427 109.244C320.427 108.02 320.163 106.928 319.635 105.968C319.131 105.008 318.435 104.252 317.547 103.7C316.659 103.148 315.639 102.872 314.487 102.872C313.359 102.872 312.339 103.148 311.427 103.7C310.539 104.252 309.831 105.008 309.303 105.968C308.799 106.928 308.547 108.02 308.547 109.244C308.547 110.468 308.799 111.572 309.303 112.556C309.831 113.516 310.539 114.272 311.427 114.824C312.339 115.376 313.359 115.652 314.487 115.652Z" fill="#08111E"/>
</svg>
