<svg width="99" height="51" viewBox="0 0 99 51" fill="none" xmlns="http://www.w3.org/2000/svg">
<path d="M5.085 12.18C4.375 12.18 3.725 12.05 3.135 11.79C2.545 11.52 2.045 11.155 1.635 10.695C1.225 10.235 0.93 9.72 0.75 9.15L2.025 8.625C2.295 9.345 2.695 9.9 3.225 10.29C3.765 10.67 4.395 10.86 5.115 10.86C5.555 10.86 5.94 10.79 6.27 10.65C6.6 10.51 6.855 10.315 7.035 10.065C7.225 9.805 7.32 9.505 7.32 9.165C7.32 8.695 7.185 8.325 6.915 8.055C6.655 7.775 6.27 7.565 5.76 7.425L3.705 6.795C2.895 6.545 2.275 6.15 1.845 5.61C1.415 5.07 1.2 4.45 1.2 3.75C1.2 3.14 1.345 2.605 1.635 2.145C1.935 1.675 2.345 1.31 2.865 1.05C3.395 0.78 3.995 0.645 4.665 0.645C5.335 0.645 5.94 0.765 6.48 1.005C7.03 1.245 7.495 1.57 7.875 1.98C8.255 2.38 8.535 2.84 8.715 3.36L7.455 3.885C7.215 3.255 6.855 2.78 6.375 2.46C5.895 2.13 5.33 1.965 4.68 1.965C4.28 1.965 3.925 2.035 3.615 2.175C3.315 2.305 3.08 2.5 2.91 2.76C2.75 3.01 2.67 3.31 2.67 3.66C2.67 4.07 2.8 4.435 3.06 4.755C3.32 5.075 3.715 5.32 4.245 5.49L6.12 6.045C7 6.315 7.665 6.7 8.115 7.2C8.565 7.7 8.79 8.32 8.79 9.06C8.79 9.67 8.63 10.21 8.31 10.68C8 11.15 7.565 11.52 7.005 11.79C6.455 12.05 5.815 12.18 5.085 12.18ZM10.7773 12V3.915H12.1723V12H10.7773ZM10.7773 2.625V0.824999H12.1723V2.625H10.7773ZM18.1918 15.3C17.6218 15.3 17.0918 15.21 16.6018 15.03C16.1218 14.85 15.7068 14.6 15.3568 14.28C15.0168 13.97 14.7568 13.605 14.5768 13.185L15.8818 12.585C16.0218 12.965 16.2868 13.285 16.6768 13.545C17.0768 13.815 17.5768 13.95 18.1768 13.95C18.6368 13.95 19.0518 13.86 19.4218 13.68C19.8018 13.51 20.1018 13.25 20.3218 12.9C20.5418 12.56 20.6518 12.145 20.6518 11.655V9.84L20.9068 10.11C20.6268 10.66 20.2218 11.08 19.6918 11.37C19.1718 11.66 18.5968 11.805 17.9668 11.805C17.2068 11.805 16.5268 11.63 15.9268 11.28C15.3268 10.92 14.8568 10.435 14.5168 9.825C14.1768 9.205 14.0068 8.52 14.0068 7.77C14.0068 7.01 14.1768 6.325 14.5168 5.715C14.8568 5.105 15.3218 4.625 15.9118 4.275C16.5118 3.915 17.1918 3.735 17.9518 3.735C18.5818 3.735 19.1518 3.88 19.6618 4.17C20.1818 4.45 20.5968 4.84 20.9068 5.34L20.6968 5.715V3.915H22.0618V11.655C22.0618 12.355 21.8968 12.98 21.5668 13.53C21.2368 14.08 20.7768 14.51 20.1868 14.82C19.6068 15.14 18.9418 15.3 18.1918 15.3ZM18.0868 10.455C18.5668 10.455 18.9968 10.335 19.3768 10.095C19.7668 9.855 20.0768 9.535 20.3068 9.135C20.5368 8.725 20.6518 8.27 20.6518 7.77C20.6518 7.28 20.5368 6.83 20.3068 6.42C20.0768 6.01 19.7668 5.685 19.3768 5.445C18.9968 5.205 18.5668 5.085 18.0868 5.085C17.5968 5.085 17.1518 5.205 16.7518 5.445C16.3518 5.685 16.0368 6.01 15.8068 6.42C15.5868 6.82 15.4768 7.27 15.4768 7.77C15.4768 8.27 15.5868 8.725 15.8068 9.135C16.0368 9.535 16.3468 9.855 16.7368 10.095C17.1368 10.335 17.5868 10.455 18.0868 10.455ZM26.5945 12.18C26.0645 12.18 25.5945 12.085 25.1845 11.895C24.7845 11.695 24.4695 11.425 24.2395 11.085C24.0095 10.735 23.8945 10.335 23.8945 9.885C23.8945 9.455 23.9845 9.07 24.1645 8.73C24.3545 8.38 24.6445 8.085 25.0345 7.845C25.4345 7.605 25.9345 7.435 26.5345 7.335L29.5345 6.84V8.01L26.8495 8.46C26.3295 8.55 25.9495 8.715 25.7095 8.955C25.4795 9.195 25.3645 9.49 25.3645 9.84C25.3645 10.17 25.4945 10.445 25.7545 10.665C26.0245 10.885 26.3595 10.995 26.7595 10.995C27.2695 10.995 27.7095 10.89 28.0795 10.68C28.4595 10.46 28.7545 10.165 28.9645 9.795C29.1845 9.425 29.2945 9.015 29.2945 8.565V6.51C29.2945 6.07 29.1295 5.715 28.7995 5.445C28.4795 5.165 28.0545 5.025 27.5245 5.025C27.0645 5.025 26.6545 5.145 26.2945 5.385C25.9445 5.615 25.6845 5.925 25.5145 6.315L24.2995 5.685C24.4495 5.315 24.6895 4.985 25.0195 4.695C25.3495 4.395 25.7345 4.16 26.1745 3.99C26.6145 3.82 27.0745 3.735 27.5545 3.735C28.1745 3.735 28.7195 3.855 29.1895 4.095C29.6595 4.325 30.0245 4.65 30.2845 5.07C30.5545 5.48 30.6895 5.96 30.6895 6.51V12H29.3245V10.47L29.5795 10.56C29.4095 10.88 29.1795 11.16 28.8895 11.4C28.5995 11.64 28.2595 11.83 27.8695 11.97C27.4795 12.11 27.0545 12.18 26.5945 12.18ZM32.9575 8.595V7.32H38.5825V8.595H32.9575ZM40.8359 12V3.915H42.2009V5.49L41.9759 5.355C42.1759 4.845 42.4959 4.45 42.9359 4.17C43.3859 3.88 43.9109 3.735 44.5109 3.735C45.0909 3.735 45.6059 3.865 46.0559 4.125C46.5159 4.385 46.8759 4.745 47.1359 5.205C47.4059 5.665 47.5409 6.185 47.5409 6.765V12H46.1309V7.215C46.1309 6.765 46.0509 6.385 45.8909 6.075C45.7309 5.765 45.5009 5.525 45.2009 5.355C44.9109 5.175 44.5759 5.085 44.1959 5.085C43.8159 5.085 43.4759 5.175 43.1759 5.355C42.8859 5.525 42.6559 5.77 42.4859 6.09C42.3159 6.4 42.2309 6.775 42.2309 7.215V12H40.8359ZM53.377 12.18C52.597 12.18 51.892 12 51.262 11.64C50.632 11.27 50.132 10.765 49.762 10.125C49.392 9.485 49.207 8.76 49.207 7.95C49.207 7.14 49.387 6.42 49.747 5.79C50.117 5.16 50.617 4.66 51.247 4.29C51.877 3.92 52.587 3.735 53.377 3.735C54.157 3.735 54.862 3.92 55.492 4.29C56.122 4.65 56.617 5.145 56.977 5.775C57.347 6.405 57.532 7.13 57.532 7.95C57.532 8.77 57.342 9.5 56.962 10.14C56.582 10.77 56.077 11.27 55.447 11.64C54.827 12 54.137 12.18 53.377 12.18ZM53.377 10.83C53.877 10.83 54.327 10.705 54.727 10.455C55.137 10.205 55.457 9.86 55.687 9.42C55.927 8.98 56.047 8.49 56.047 7.95C56.047 7.4 55.927 6.915 55.687 6.495C55.457 6.065 55.137 5.725 54.727 5.475C54.327 5.215 53.877 5.085 53.377 5.085C52.867 5.085 52.407 5.215 51.997 5.475C51.597 5.725 51.277 6.065 51.037 6.495C50.797 6.915 50.677 7.4 50.677 7.95C50.677 8.49 50.797 8.98 51.037 9.42C51.277 9.86 51.597 10.205 51.997 10.455C52.407 10.705 52.867 10.83 53.377 10.83ZM62.2465 12.18C61.4365 12.18 60.7315 11.98 60.1315 11.58C59.5315 11.18 59.1065 10.64 58.8565 9.96L59.9665 9.42C60.1965 9.9 60.5115 10.28 60.9115 10.56C61.3115 10.84 61.7565 10.98 62.2465 10.98C62.6865 10.98 63.0515 10.875 63.3415 10.665C63.6315 10.455 63.7765 10.18 63.7765 9.84C63.7765 9.6 63.7065 9.41 63.5665 9.27C63.4365 9.12 63.2765 9.005 63.0865 8.925C62.8965 8.835 62.7215 8.77 62.5615 8.73L61.3465 8.385C60.6165 8.175 60.0815 7.875 59.7415 7.485C59.4115 7.095 59.2465 6.64 59.2465 6.12C59.2465 5.64 59.3665 5.225 59.6065 4.875C59.8565 4.515 60.1915 4.235 60.6115 4.035C61.0415 3.835 61.5215 3.735 62.0515 3.735C62.7615 3.735 63.3965 3.915 63.9565 4.275C64.5265 4.635 64.9315 5.14 65.1715 5.79L64.0315 6.315C63.8515 5.895 63.5815 5.565 63.2215 5.325C62.8615 5.075 62.4565 4.95 62.0065 4.95C61.5965 4.95 61.2715 5.055 61.0315 5.265C60.7915 5.465 60.6715 5.72 60.6715 6.03C60.6715 6.26 60.7315 6.45 60.8515 6.6C60.9715 6.74 61.1165 6.85 61.2865 6.93C61.4565 7 61.6215 7.06 61.7815 7.11L63.1015 7.5C63.7615 7.69 64.2715 7.985 64.6315 8.385C65.0015 8.785 65.1865 9.265 65.1865 9.825C65.1865 10.275 65.0615 10.68 64.8115 11.04C64.5615 11.4 64.2165 11.68 63.7765 11.88C63.3365 12.08 62.8265 12.18 62.2465 12.18ZM73.3254 12.18C72.5454 12.18 71.8504 11.995 71.2404 11.625C70.6304 11.255 70.1504 10.75 69.8004 10.11C69.4504 9.46 69.2754 8.735 69.2754 7.935C69.2754 7.125 69.4454 6.405 69.7854 5.775C70.1354 5.145 70.6054 4.65 71.1954 4.29C71.7954 3.92 72.4654 3.735 73.2054 3.735C73.8054 3.735 74.3354 3.845 74.7954 4.065C75.2654 4.275 75.6604 4.565 75.9804 4.935C76.3104 5.295 76.5604 5.71 76.7304 6.18C76.9104 6.64 77.0004 7.12 77.0004 7.62C77.0004 7.73 76.9904 7.855 76.9704 7.995C76.9604 8.125 76.9454 8.25 76.9254 8.37H70.2954V7.17H76.1154L75.4554 7.71C75.5454 7.19 75.4954 6.725 75.3054 6.315C75.1154 5.905 74.8354 5.58 74.4654 5.34C74.0954 5.1 73.6754 4.98 73.2054 4.98C72.7354 4.98 72.3054 5.1 71.9154 5.34C71.5254 5.58 71.2204 5.925 71.0004 6.375C70.7904 6.815 70.7054 7.34 70.7454 7.95C70.7054 8.54 70.7954 9.06 71.0154 9.51C71.2454 9.95 71.5654 10.295 71.9754 10.545C72.3954 10.785 72.8504 10.905 73.3404 10.905C73.8804 10.905 74.3354 10.78 74.7054 10.53C75.0754 10.28 75.3754 9.96 75.6054 9.57L76.7754 10.17C76.6154 10.54 76.3654 10.88 76.0254 11.19C75.6954 11.49 75.3004 11.73 74.8404 11.91C74.3904 12.09 73.8854 12.18 73.3254 12.18ZM78.8193 12V3.915H80.1843V5.565L79.9893 5.31C80.1893 4.8 80.5093 4.41 80.9493 4.14C81.3893 3.87 81.8843 3.735 82.4343 3.735C83.0643 3.735 83.6293 3.91 84.1293 4.26C84.6393 4.61 84.9893 5.07 85.1793 5.64L84.7893 5.655C84.9993 5.025 85.3543 4.55 85.8543 4.23C86.3543 3.9 86.9093 3.735 87.5193 3.735C88.0793 3.735 88.5843 3.865 89.0343 4.125C89.4943 4.385 89.8593 4.745 90.1293 5.205C90.3993 5.665 90.5343 6.185 90.5343 6.765V12H89.1243V7.215C89.1243 6.765 89.0443 6.385 88.8843 6.075C88.7243 5.765 88.5043 5.525 88.2243 5.355C87.9543 5.175 87.6343 5.085 87.2643 5.085C86.9043 5.085 86.5793 5.175 86.2893 5.355C86.0093 5.525 85.7843 5.77 85.6143 6.09C85.4543 6.4 85.3743 6.775 85.3743 7.215V12H83.9643V7.215C83.9643 6.765 83.8843 6.385 83.7243 6.075C83.5643 5.765 83.3443 5.525 83.0643 5.355C82.7943 5.175 82.4743 5.085 82.1043 5.085C81.7443 5.085 81.4193 5.175 81.1293 5.355C80.8493 5.525 80.6243 5.77 80.4543 6.09C80.2943 6.4 80.2143 6.775 80.2143 7.215V12H78.8193ZM1.08 31V22.915H2.445V24.49L2.22 24.355C2.42 23.845 2.74 23.45 3.18 23.17C3.63 22.88 4.155 22.735 4.755 22.735C5.335 22.735 5.85 22.865 6.3 23.125C6.76 23.385 7.12 23.745 7.38 24.205C7.65 24.665 7.785 25.185 7.785 25.765V31H6.375V26.215C6.375 25.765 6.295 25.385 6.135 25.075C5.975 24.765 5.745 24.525 5.445 24.355C5.155 24.175 4.82 24.085 4.44 24.085C4.06 24.085 3.72 24.175 3.42 24.355C3.13 24.525 2.9 24.77 2.73 25.09C2.56 25.4 2.475 25.775 2.475 26.215V31H1.08ZM13.6212 31.18C12.8412 31.18 12.1362 31 11.5062 30.64C10.8762 30.27 10.3762 29.765 10.0062 29.125C9.63617 28.485 9.45117 27.76 9.45117 26.95C9.45117 26.14 9.63117 25.42 9.99117 24.79C10.3612 24.16 10.8612 23.66 11.4912 23.29C12.1212 22.92 12.8312 22.735 13.6212 22.735C14.4012 22.735 15.1062 22.92 15.7362 23.29C16.3662 23.65 16.8612 24.145 17.2212 24.775C17.5912 25.405 17.7762 26.13 17.7762 26.95C17.7762 27.77 17.5862 28.5 17.2062 29.14C16.8262 29.77 16.3212 30.27 15.6912 30.64C15.0712 31 14.3812 31.18 13.6212 31.18ZM13.6212 29.83C14.1212 29.83 14.5712 29.705 14.9712 29.455C15.3812 29.205 15.7012 28.86 15.9312 28.42C16.1712 27.98 16.2912 27.49 16.2912 26.95C16.2912 26.4 16.1712 25.915 15.9312 25.495C15.7012 25.065 15.3812 24.725 14.9712 24.475C14.5712 24.215 14.1212 24.085 13.6212 24.085C13.1112 24.085 12.6512 24.215 12.2412 24.475C11.8412 24.725 11.5212 25.065 11.2812 25.495C11.0412 25.915 10.9212 26.4 10.9212 26.95C10.9212 27.49 11.0412 27.98 11.2812 28.42C11.5212 28.86 11.8412 29.205 12.2412 29.455C12.6512 29.705 13.1112 29.83 13.6212 29.83ZM22.4906 31.18C21.6806 31.18 20.9756 30.98 20.3756 30.58C19.7756 30.18 19.3506 29.64 19.1006 28.96L20.2106 28.42C20.4406 28.9 20.7556 29.28 21.1556 29.56C21.5556 29.84 22.0006 29.98 22.4906 29.98C22.9306 29.98 23.2956 29.875 23.5856 29.665C23.8756 29.455 24.0206 29.18 24.0206 28.84C24.0206 28.6 23.9506 28.41 23.8106 28.27C23.6806 28.12 23.5206 28.005 23.3306 27.925C23.1406 27.835 22.9656 27.77 22.8056 27.73L21.5906 27.385C20.8606 27.175 20.3256 26.875 19.9856 26.485C19.6556 26.095 19.4906 25.64 19.4906 25.12C19.4906 24.64 19.6106 24.225 19.8506 23.875C20.1006 23.515 20.4356 23.235 20.8556 23.035C21.2856 22.835 21.7656 22.735 22.2956 22.735C23.0056 22.735 23.6406 22.915 24.2006 23.275C24.7706 23.635 25.1756 24.14 25.4156 24.79L24.2756 25.315C24.0956 24.895 23.8256 24.565 23.4656 24.325C23.1056 24.075 22.7006 23.95 22.2506 23.95C21.8406 23.95 21.5156 24.055 21.2756 24.265C21.0356 24.465 20.9156 24.72 20.9156 25.03C20.9156 25.26 20.9756 25.45 21.0956 25.6C21.2156 25.74 21.3606 25.85 21.5306 25.93C21.7006 26 21.8656 26.06 22.0256 26.11L23.3456 26.5C24.0056 26.69 24.5156 26.985 24.8756 27.385C25.2456 27.785 25.4306 28.265 25.4306 28.825C25.4306 29.275 25.3056 29.68 25.0556 30.04C24.8056 30.4 24.4606 30.68 24.0206 30.88C23.5806 31.08 23.0706 31.18 22.4906 31.18ZM30.1518 31.18C29.3418 31.18 28.6368 30.98 28.0368 30.58C27.4368 30.18 27.0118 29.64 26.7618 28.96L27.8718 28.42C28.1018 28.9 28.4168 29.28 28.8168 29.56C29.2168 29.84 29.6618 29.98 30.1518 29.98C30.5918 29.98 30.9568 29.875 31.2468 29.665C31.5368 29.455 31.6818 29.18 31.6818 28.84C31.6818 28.6 31.6118 28.41 31.4718 28.27C31.3418 28.12 31.1818 28.005 30.9918 27.925C30.8018 27.835 30.6268 27.77 30.4668 27.73L29.2518 27.385C28.5218 27.175 27.9868 26.875 27.6468 26.485C27.3168 26.095 27.1518 25.64 27.1518 25.12C27.1518 24.64 27.2718 24.225 27.5118 23.875C27.7618 23.515 28.0968 23.235 28.5168 23.035C28.9468 22.835 29.4268 22.735 29.9568 22.735C30.6668 22.735 31.3018 22.915 31.8618 23.275C32.4318 23.635 32.8368 24.14 33.0768 24.79L31.9368 25.315C31.7568 24.895 31.4868 24.565 31.1268 24.325C30.7668 24.075 30.3618 23.95 29.9118 23.95C29.5018 23.95 29.1768 24.055 28.9368 24.265C28.6968 24.465 28.5768 24.72 28.5768 25.03C28.5768 25.26 28.6368 25.45 28.7568 25.6C28.8768 25.74 29.0218 25.85 29.1918 25.93C29.3618 26 29.5268 26.06 29.6868 26.11L31.0068 26.5C31.6668 26.69 32.1768 26.985 32.5368 27.385C32.9068 27.785 33.0918 28.265 33.0918 28.825C33.0918 29.275 32.9668 29.68 32.7168 30.04C32.4668 30.4 32.1218 30.68 31.6818 30.88C31.2418 31.08 30.7318 31.18 30.1518 31.18ZM37.2879 31.18C36.7579 31.18 36.2879 31.085 35.8779 30.895C35.4779 30.695 35.1629 30.425 34.9329 30.085C34.7029 29.735 34.5879 29.335 34.5879 28.885C34.5879 28.455 34.6779 28.07 34.8579 27.73C35.0479 27.38 35.3379 27.085 35.7279 26.845C36.1279 26.605 36.6279 26.435 37.2279 26.335L40.2279 25.84V27.01L37.5429 27.46C37.0229 27.55 36.6429 27.715 36.4029 27.955C36.1729 28.195 36.0579 28.49 36.0579 28.84C36.0579 29.17 36.1879 29.445 36.4479 29.665C36.7179 29.885 37.0529 29.995 37.4529 29.995C37.9629 29.995 38.4029 29.89 38.7729 29.68C39.1529 29.46 39.4479 29.165 39.6579 28.795C39.8779 28.425 39.9879 28.015 39.9879 27.565V25.51C39.9879 25.07 39.8229 24.715 39.4929 24.445C39.1729 24.165 38.7479 24.025 38.2179 24.025C37.7579 24.025 37.3479 24.145 36.9879 24.385C36.6379 24.615 36.3779 24.925 36.2079 25.315L34.9929 24.685C35.1429 24.315 35.3829 23.985 35.7129 23.695C36.0429 23.395 36.4279 23.16 36.8679 22.99C37.3079 22.82 37.7679 22.735 38.2479 22.735C38.8679 22.735 39.4129 22.855 39.8829 23.095C40.3529 23.325 40.7179 23.65 40.9779 24.07C41.2479 24.48 41.3829 24.96 41.3829 25.51V31H40.0179V29.47L40.2729 29.56C40.1029 29.88 39.8729 30.16 39.5829 30.4C39.2929 30.64 38.9529 30.83 38.5629 30.97C38.1729 31.11 37.7479 31.18 37.2879 31.18ZM46.4408 31.18C45.6308 31.18 44.9258 30.98 44.3258 30.58C43.7258 30.18 43.3008 29.64 43.0508 28.96L44.1608 28.42C44.3908 28.9 44.7058 29.28 45.1058 29.56C45.5058 29.84 45.9508 29.98 46.4408 29.98C46.8808 29.98 47.2458 29.875 47.5358 29.665C47.8258 29.455 47.9708 29.18 47.9708 28.84C47.9708 28.6 47.9008 28.41 47.7608 28.27C47.6308 28.12 47.4708 28.005 47.2808 27.925C47.0908 27.835 46.9158 27.77 46.7558 27.73L45.5408 27.385C44.8108 27.175 44.2758 26.875 43.9358 26.485C43.6058 26.095 43.4408 25.64 43.4408 25.12C43.4408 24.64 43.5608 24.225 43.8008 23.875C44.0508 23.515 44.3858 23.235 44.8058 23.035C45.2358 22.835 45.7158 22.735 46.2458 22.735C46.9558 22.735 47.5908 22.915 48.1508 23.275C48.7208 23.635 49.1258 24.14 49.3658 24.79L48.2258 25.315C48.0458 24.895 47.7758 24.565 47.4158 24.325C47.0558 24.075 46.6508 23.95 46.2008 23.95C45.7908 23.95 45.4658 24.055 45.2258 24.265C44.9858 24.465 44.8658 24.72 44.8658 25.03C44.8658 25.26 44.9258 25.45 45.0458 25.6C45.1658 25.74 45.3108 25.85 45.4808 25.93C45.6508 26 45.8158 26.06 45.9758 26.11L47.2958 26.5C47.9558 26.69 48.4658 26.985 48.8258 27.385C49.1958 27.785 49.3808 28.265 49.3808 28.825C49.3808 29.275 49.2558 29.68 49.0058 30.04C48.7558 30.4 48.4108 30.68 47.9708 30.88C47.5308 31.08 47.0208 31.18 46.4408 31.18ZM53.7997 31V22.915H55.1647V24.565L54.9697 24.31C55.1697 23.8 55.4897 23.41 55.9297 23.14C56.3697 22.87 56.8647 22.735 57.4147 22.735C58.0447 22.735 58.6097 22.91 59.1097 23.26C59.6197 23.61 59.9697 24.07 60.1597 24.64L59.7697 24.655C59.9797 24.025 60.3347 23.55 60.8347 23.23C61.3347 22.9 61.8897 22.735 62.4997 22.735C63.0597 22.735 63.5647 22.865 64.0147 23.125C64.4747 23.385 64.8397 23.745 65.1097 24.205C65.3797 24.665 65.5147 25.185 65.5147 25.765V31H64.1047V26.215C64.1047 25.765 64.0247 25.385 63.8647 25.075C63.7047 24.765 63.4847 24.525 63.2047 24.355C62.9347 24.175 62.6147 24.085 62.2447 24.085C61.8847 24.085 61.5597 24.175 61.2697 24.355C60.9897 24.525 60.7647 24.77 60.5947 25.09C60.4347 25.4 60.3547 25.775 60.3547 26.215V31H58.9447V26.215C58.9447 25.765 58.8647 25.385 58.7047 25.075C58.5447 24.765 58.3247 24.525 58.0447 24.355C57.7747 24.175 57.4547 24.085 57.0847 24.085C56.7247 24.085 56.3997 24.175 56.1097 24.355C55.8297 24.525 55.6047 24.77 55.4347 25.09C55.2747 25.4 55.1947 25.775 55.1947 26.215V31H53.7997ZM67.286 31V22.915H68.681V31H67.286ZM67.286 21.4L68.471 19.03H70.361L68.681 21.4H67.286ZM74.3058 31.18C73.5458 31.18 72.8608 30.995 72.2508 30.625C71.6508 30.255 71.1758 29.75 70.8258 29.11C70.4758 28.47 70.3008 27.755 70.3008 26.965C70.3008 26.155 70.4758 25.435 70.8258 24.805C71.1758 24.165 71.6508 23.66 72.2508 23.29C72.8608 22.92 73.5458 22.735 74.3058 22.735C74.9758 22.735 75.5708 22.88 76.0908 23.17C76.6108 23.45 77.0208 23.83 77.3208 24.31L77.0958 24.655V19.645H78.5058V31H77.1408V29.275L77.3208 29.515C77.0408 30.045 76.6308 30.455 76.0908 30.745C75.5608 31.035 74.9658 31.18 74.3058 31.18ZM74.4258 29.83C74.9358 29.83 75.3908 29.705 75.7908 29.455C76.1908 29.205 76.5058 28.865 76.7358 28.435C76.9758 27.995 77.0958 27.505 77.0958 26.965C77.0958 26.415 76.9758 25.925 76.7358 25.495C76.5058 25.055 76.1908 24.71 75.7908 24.46C75.3908 24.21 74.9358 24.085 74.4258 24.085C73.9258 24.085 73.4708 24.215 73.0608 24.475C72.6608 24.725 72.3458 25.065 72.1158 25.495C71.8858 25.915 71.7708 26.405 71.7708 26.965C71.7708 27.505 71.8858 27.995 72.1158 28.435C72.3458 28.865 72.6608 29.205 73.0608 29.455C73.4608 29.705 73.9158 29.83 74.4258 29.83ZM80.665 31V22.915H82.06V31H80.665ZM80.665 21.625V19.825H82.06V21.625H80.665ZM86.5945 31.18C86.0645 31.18 85.5945 31.085 85.1845 30.895C84.7845 30.695 84.4695 30.425 84.2395 30.085C84.0095 29.735 83.8945 29.335 83.8945 28.885C83.8945 28.455 83.9845 28.07 84.1645 27.73C84.3545 27.38 84.6445 27.085 85.0345 26.845C85.4345 26.605 85.9345 26.435 86.5345 26.335L89.5345 25.84V27.01L86.8495 27.46C86.3295 27.55 85.9495 27.715 85.7095 27.955C85.4795 28.195 85.3645 28.49 85.3645 28.84C85.3645 29.17 85.4945 29.445 85.7545 29.665C86.0245 29.885 86.3595 29.995 86.7595 29.995C87.2695 29.995 87.7095 29.89 88.0795 29.68C88.4595 29.46 88.7545 29.165 88.9645 28.795C89.1845 28.425 89.2945 28.015 89.2945 27.565V25.51C89.2945 25.07 89.1295 24.715 88.7995 24.445C88.4795 24.165 88.0545 24.025 87.5245 24.025C87.0645 24.025 86.6545 24.145 86.2945 24.385C85.9445 24.615 85.6845 24.925 85.5145 25.315L84.2995 24.685C84.4495 24.315 84.6895 23.985 85.0195 23.695C85.3495 23.395 85.7345 23.16 86.1745 22.99C86.6145 22.82 87.0745 22.735 87.5545 22.735C88.1745 22.735 88.7195 22.855 89.1895 23.095C89.6595 23.325 90.0245 23.65 90.2845 24.07C90.5545 24.48 90.6895 24.96 90.6895 25.51V31H89.3245V29.47L89.5795 29.56C89.4095 29.88 89.1795 30.16 88.8895 30.4C88.5995 30.64 88.2595 30.83 87.8695 30.97C87.4795 31.11 87.0545 31.18 86.5945 31.18ZM95.7475 31.18C94.9375 31.18 94.2325 30.98 93.6325 30.58C93.0325 30.18 92.6075 29.64 92.3575 28.96L93.4675 28.42C93.6975 28.9 94.0125 29.28 94.4125 29.56C94.8125 29.84 95.2575 29.98 95.7475 29.98C96.1875 29.98 96.5525 29.875 96.8425 29.665C97.1325 29.455 97.2775 29.18 97.2775 28.84C97.2775 28.6 97.2075 28.41 97.0675 28.27C96.9375 28.12 96.7775 28.005 96.5875 27.925C96.3975 27.835 96.2225 27.77 96.0625 27.73L94.8475 27.385C94.1175 27.175 93.5825 26.875 93.2425 26.485C92.9125 26.095 92.7475 25.64 92.7475 25.12C92.7475 24.64 92.8675 24.225 93.1075 23.875C93.3575 23.515 93.6925 23.235 94.1125 23.035C94.5425 22.835 95.0225 22.735 95.5525 22.735C96.2625 22.735 96.8975 22.915 97.4575 23.275C98.0275 23.635 98.4325 24.14 98.6725 24.79L97.5325 25.315C97.3525 24.895 97.0825 24.565 96.7225 24.325C96.3625 24.075 95.9575 23.95 95.5075 23.95C95.0975 23.95 94.7725 24.055 94.5325 24.265C94.2925 24.465 94.1725 24.72 94.1725 25.03C94.1725 25.26 94.2325 25.45 94.3525 25.6C94.4725 25.74 94.6175 25.85 94.7875 25.93C94.9575 26 95.1225 26.06 95.2825 26.11L96.6025 26.5C97.2625 26.69 97.7725 26.985 98.1325 27.385C98.5025 27.785 98.6875 28.265 98.6875 28.825C98.6875 29.275 98.5625 29.68 98.3125 30.04C98.0625 30.4 97.7175 30.68 97.2775 30.88C96.8375 31.08 96.3275 31.18 95.7475 31.18ZM3.975 50.18C3.165 50.18 2.46 49.98 1.86 49.58C1.26 49.18 0.835 48.64 0.585 47.96L1.695 47.42C1.925 47.9 2.24 48.28 2.64 48.56C3.04 48.84 3.485 48.98 3.975 48.98C4.415 48.98 4.78 48.875 5.07 48.665C5.36 48.455 5.505 48.18 5.505 47.84C5.505 47.6 5.435 47.41 5.295 47.27C5.165 47.12 5.005 47.005 4.815 46.925C4.625 46.835 4.45 46.77 4.29 46.73L3.075 46.385C2.345 46.175 1.81 45.875 1.47 45.485C1.14 45.095 0.975 44.64 0.975 44.12C0.975 43.64 1.095 43.225 1.335 42.875C1.585 42.515 1.92 42.235 2.34 42.035C2.77 41.835 3.25 41.735 3.78 41.735C4.49 41.735 5.125 41.915 5.685 42.275C6.255 42.635 6.66 43.14 6.9 43.79L5.76 44.315C5.58 43.895 5.31 43.565 4.95 43.325C4.59 43.075 4.185 42.95 3.735 42.95C3.325 42.95 3 43.055 2.76 43.265C2.52 43.465 2.4 43.72 2.4 44.03C2.4 44.26 2.46 44.45 2.58 44.6C2.7 44.74 2.845 44.85 3.015 44.93C3.185 45 3.35 45.06 3.51 45.11L4.83 45.5C5.49 45.69 6 45.985 6.36 46.385C6.73 46.785 6.915 47.265 6.915 47.825C6.915 48.275 6.79 48.68 6.54 49.04C6.29 49.4 5.945 49.68 5.505 49.88C5.065 50.08 4.555 50.18 3.975 50.18ZM12.5811 50.18C11.8011 50.18 11.0961 50 10.4661 49.64C9.83613 49.27 9.33613 48.765 8.96613 48.125C8.59613 47.485 8.41113 46.76 8.41113 45.95C8.41113 45.14 8.59113 44.42 8.95113 43.79C9.32113 43.16 9.82113 42.66 10.4511 42.29C11.0811 41.92 11.7911 41.735 12.5811 41.735C13.3611 41.735 14.0661 41.92 14.6961 42.29C15.3261 42.65 15.8211 43.145 16.1811 43.775C16.5511 44.405 16.7361 45.13 16.7361 45.95C16.7361 46.77 16.5461 47.5 16.1661 48.14C15.7861 48.77 15.2811 49.27 14.6511 49.64C14.0311 50 13.3411 50.18 12.5811 50.18ZM12.5811 48.83C13.0811 48.83 13.5311 48.705 13.9311 48.455C14.3411 48.205 14.6611 47.86 14.8911 47.42C15.1311 46.98 15.2511 46.49 15.2511 45.95C15.2511 45.4 15.1311 44.915 14.8911 44.495C14.6611 44.065 14.3411 43.725 13.9311 43.475C13.5311 43.215 13.0811 43.085 12.5811 43.085C12.0711 43.085 11.6111 43.215 11.2011 43.475C10.8011 43.725 10.4811 44.065 10.2411 44.495C10.0011 44.915 9.88113 45.4 9.88113 45.95C9.88113 46.49 10.0011 46.98 10.2411 47.42C10.4811 47.86 10.8011 48.205 11.2011 48.455C11.6111 48.705 12.0711 48.83 12.5811 48.83ZM22.3056 50.18C21.5156 50.18 20.8106 49.995 20.1906 49.625C19.5806 49.255 19.1006 48.75 18.7506 48.11C18.4006 47.47 18.2256 46.75 18.2256 45.95C18.2256 45.14 18.4006 44.42 18.7506 43.79C19.1006 43.16 19.5806 42.66 20.1906 42.29C20.8106 41.92 21.5156 41.735 22.3056 41.735C22.8356 41.735 23.3306 41.83 23.7906 42.02C24.2506 42.21 24.6556 42.465 25.0056 42.785C25.3556 43.105 25.6106 43.48 25.7706 43.91L24.5256 44.51C24.3356 44.09 24.0456 43.75 23.6556 43.49C23.2656 43.22 22.8156 43.085 22.3056 43.085C21.8156 43.085 21.3706 43.21 20.9706 43.46C20.5806 43.71 20.2706 44.05 20.0406 44.48C19.8106 44.91 19.6956 45.405 19.6956 45.965C19.6956 46.505 19.8106 46.995 20.0406 47.435C20.2706 47.865 20.5806 48.205 20.9706 48.455C21.3706 48.705 21.8156 48.83 22.3056 48.83C22.8156 48.83 23.2656 48.7 23.6556 48.44C24.0456 48.17 24.3356 47.815 24.5256 47.375L25.7706 48.005C25.6106 48.425 25.3556 48.8 25.0056 49.13C24.6556 49.45 24.2506 49.705 23.7906 49.895C23.3306 50.085 22.8356 50.18 22.3056 50.18ZM27.5937 50V41.915H28.9887V50H27.5937ZM27.5937 40.625V38.825H28.9887V40.625H27.5937ZM33.5232 50.18C32.9932 50.18 32.5232 50.085 32.1132 49.895C31.7132 49.695 31.3982 49.425 31.1682 49.085C30.9382 48.735 30.8232 48.335 30.8232 47.885C30.8232 47.455 30.9132 47.07 31.0932 46.73C31.2832 46.38 31.5732 46.085 31.9632 45.845C32.3632 45.605 32.8632 45.435 33.4632 45.335L36.4632 44.84V46.01L33.7782 46.46C33.2582 46.55 32.8782 46.715 32.6382 46.955C32.4082 47.195 32.2932 47.49 32.2932 47.84C32.2932 48.17 32.4232 48.445 32.6832 48.665C32.9532 48.885 33.2882 48.995 33.6882 48.995C34.1982 48.995 34.6382 48.89 35.0082 48.68C35.3882 48.46 35.6832 48.165 35.8932 47.795C36.1132 47.425 36.2232 47.015 36.2232 46.565V44.51C36.2232 44.07 36.0582 43.715 35.7282 43.445C35.4082 43.165 34.9832 43.025 34.4532 43.025C33.9932 43.025 33.5832 43.145 33.2232 43.385C32.8732 43.615 32.6132 43.925 32.4432 44.315L31.2282 43.685C31.3782 43.315 31.6182 42.985 31.9482 42.695C32.2782 42.395 32.6632 42.16 33.1032 41.99C33.5432 41.82 34.0032 41.735 34.4832 41.735C35.1032 41.735 35.6482 41.855 36.1182 42.095C36.5882 42.325 36.9532 42.65 37.2132 43.07C37.4832 43.48 37.6182 43.96 37.6182 44.51V50H36.2532V48.47L36.5082 48.56C36.3382 48.88 36.1082 49.16 35.8182 49.4C35.5282 49.64 35.1882 49.83 34.7982 49.97C34.4082 50.11 33.9832 50.18 33.5232 50.18ZM39.7812 50V41.915H41.1762V50H39.7812ZM39.7812 40.625V38.825H41.1762V40.625H39.7812ZM46.2357 50.18C45.4257 50.18 44.7207 49.98 44.1207 49.58C43.5207 49.18 43.0957 48.64 42.8457 47.96L43.9557 47.42C44.1857 47.9 44.5007 48.28 44.9007 48.56C45.3007 48.84 45.7457 48.98 46.2357 48.98C46.6757 48.98 47.0407 48.875 47.3307 48.665C47.6207 48.455 47.7657 48.18 47.7657 47.84C47.7657 47.6 47.6957 47.41 47.5557 47.27C47.4257 47.12 47.2657 47.005 47.0757 46.925C46.8857 46.835 46.7107 46.77 46.5507 46.73L45.3357 46.385C44.6057 46.175 44.0707 45.875 43.7307 45.485C43.4007 45.095 43.2357 44.64 43.2357 44.12C43.2357 43.64 43.3557 43.225 43.5957 42.875C43.8457 42.515 44.1807 42.235 44.6007 42.035C45.0307 41.835 45.5107 41.735 46.0407 41.735C46.7507 41.735 47.3857 41.915 47.9457 42.275C48.5157 42.635 48.9207 43.14 49.1607 43.79L48.0207 44.315C47.8407 43.895 47.5707 43.565 47.2107 43.325C46.8507 43.075 46.4457 42.95 45.9957 42.95C45.5857 42.95 45.2607 43.055 45.0207 43.265C44.7807 43.465 44.6607 43.72 44.6607 44.03C44.6607 44.26 44.7207 44.45 44.8407 44.6C44.9607 44.74 45.1057 44.85 45.2757 44.93C45.4457 45 45.6107 45.06 45.7707 45.11L47.0907 45.5C47.7507 45.69 48.2607 45.985 48.6207 46.385C48.9907 46.785 49.1757 47.265 49.1757 47.825C49.1757 48.275 49.0507 48.68 48.8007 49.04C48.5507 49.4 48.2057 49.68 47.7657 49.88C47.3257 50.08 46.8157 50.18 46.2357 50.18Z" fill="white"/>
</svg>
